{
copyright = "Copyright \U00A9 2019 IBM Corp. with Reserved Font Name \"Plex\"\012This Font Software is licensed under the SIL Open Font License, Version 1.1.\012This license is copied below, and is also available with a FAQ at: http://scripts.sil.org/OFL.";
customParameters = (
{
name = licenseURL;
value = "http://scripts.sil.org/OFL";
},
{
name = vendorID;
value = "";
},
{
name = glyphOrder;
value = (
    ".notdef",
    uni0000,
    uni000D,
    space,
    a,
    b,
    c,
    d,
    e,
    f,
    g,
    "g.alt02",
    h,
    i,
    j,
    k,
    l,
    m,
    n,
    o,
    p,
    q,
    r,
    s,
    t,
    u,
    v,
    w,
    x,
    y,
    z,
    A,
    B,
    C,
    D,
    E,
    F,
    G,
    H,
    I,
    J,
    K,
    L,
    M,
    N,
    O,
    P,
    Q,
    R,
    S,
    T,
    U,
    V,
    W,
    X,
    Y,
    Z,
    zero,
    one,
    two,
    three,
    four,
    five,
    six,
    seven,
    eight,
    nine,
    ampersand,
    at,
    hyphen,
    uni00AD,
    endash,
    emdash,
    underscore,
    period,
    ellipsis,
    colon,
    comma,
    semicolon,
    quotesingle,
    quotedbl,
    quoteleft,
    quoteright,
    quotedblleft,
    quotedblright,
    quotesinglbase,
    quotedblbase,
    guilsinglleft,
    guilsinglright,
    guillemotleft,
    guillemotright,
    exclamdown,
    exclam,
    questiondown,
    question,
    parenleft,
    parenright,
    bracketleft,
    bracketright,
    braceleft,
    braceright,
    slash,
    backslash,
    fraction,
    percent,
    perthousand,
    bar,
    brokenbar,
    section,
    paragraph,
    copyright,
    registered,
    trademark,
    ordfeminine,
    ordmasculine,
    degree,
    asterisk,
    dagger,
    daggerdbl,
    numbersign,
    asciicircum,
    asciitilde,
    plus,
    minus,
    plusminus,
    multiply,
    divide,
    equal,
    approxequal,
    notequal,
    less,
    greater,
    lessequal,
    greaterequal,
    periodcentered,
    bullet,
    lozenge,
    logicalnot,

glyphs = (
{
glyphname = .notdef;
layers = (
{
layerId = "78D56DC8-6A23-4C9F-B1C5-F953A445AE64";
name = Bold;
paths = (
{
closed = 1;
nodes = (
"32 0 LINE",
"32 780 LINE",
"440 780 LINE",
"440 0 LINE"
);
},
{
closed = 1;
nodes = (
"132 100 LINE",
"340 100 LINE",
"340 680 LINE",
"132 680 LINE"
);
}
);
width = 472;
}
);
},
{
glyphname = a;
lastChange = "2018-11-02 02:08:53 +0000";
layers = (
{
layerId = "78D56DC8-6A23-4C9F-B1C5-F953A445AE64";
name = Bold;
paths = (
{
closed = 1;
nodes = (
"155 537 OFFCURVE",
"97 500 OFFCURVE",
"54 437 CURVE",
"142 359 LINE",
"165 391 OFFCURVE",
"196 421 OFFCURVE",
"255 421 CURVE SMOOTH",
"318 421 OFFCURVE",
"342 389 OFFCURVE",
"342 338 CURVE SMOOTH",
"342 305 LINE",
"259 305 LINE SMOOTH",
"120 305 OFFCURVE",
"34 252 OFFCURVE",
"34 141 CURVE SMOOTH",
"34 49 OFFCURVE",
"92 -12 OFFCURVE",
"197 -12 CURVE SMOOTH",
"277 -12 OFFCURVE",
"335 24 OFFCURVE",
"351 92 CURVE",
"357 92 LINE",
"357 0 LINE",
"490 0 LINE",
"490 345 LINE SMOOTH",
"490 470 OFFCURVE",
"415 537 OFFCURVE",
"266 537 CURVE SMOOTH"
);
},
{
closed = 1;
nodes = (
"342 111 OFFCURVE",
"301 91 OFFCURVE",
"252 91 CURVE SMOOTH",
"208 91 OFFCURVE",
"183 108 OFFCURVE",
"183 147 CURVE SMOOTH",
"183 162 LINE SMOOTH",
"183 201 OFFCURVE",
"212 221 OFFCURVE",
"270 221 CURVE SMOOTH",
"342 221 LINE",
"342 159 LINE SMOOTH"
);
}
);
width = 553;
}
);
leftKerningGroup = a;
rightKerningGroup = a;
unicode = 0061;
},
{
glyphname = b;
layers = (
{
layerId = "78D56DC8-6A23-4C9F-B1C5-F953A445AE64";
name = Bold;
paths = (
{
closed = 1;
nodes = (
"69 740 LINE",
"217 740 LINE",
"217 437 LINE",
"222 437 LINE",
"237 496 OFFCURVE",
"295 537 OFFCURVE",
"363 537 CURVE SMOOTH",
"496 537 OFFCURVE",
"565 442 OFFCURVE",
"565 263 CURVE SMOOTH",
"565 84 OFFCURVE",
"496 -12 OFFCURVE",
"363 -12 CURVE SMOOTH",
"328 -12 OFFCURVE",
"297 -1 OFFCURVE",
"273 17 CURVE SMOOTH",
"248 35 OFFCURVE",
"230 60 OFFCURVE",
"222 88 CURVE",
"217 88 LINE",
"217 0 LINE",
"69 0 LINE"
);
},
{
closed = 1;
nodes = (
"370 108 OFFCURVE",
"411 150 OFFCURVE",
"411 217 CURVE SMOOTH",
"411 308 LINE SMOOTH",
"411 375 OFFCURVE",
"370 417 OFFCURVE",
"314 417 CURVE SMOOTH",
"258 417 OFFCURVE",
"217 388 OFFCURVE",
"217 340 CURVE SMOOTH",
"217 185 LINE SMOOTH",
"217 137 OFFCURVE",
"258 108 OFFCURVE",
"314 108 CURVE SMOOTH"
);
}
);
width = 608;
}
);
leftKerningGroup = b;
rightKerningGroup = b;
unicode = 0062;
},
{
glyphname = c;
layers = (
{
layerId = "78D56DC8-6A23-4C9F-B1C5-F953A445AE64";
name = Bold;
paths = (
{
closed = 1;
nodes = (
"202 -12 OFFCURVE",
"140 15 OFFCURVE",
"99 63 CURVE SMOOTH",
"58 110 OFFCURVE",
"36 179 OFFCURVE",
"36 263 CURVE SMOOTH",
"36 347 OFFCURVE",
"58 415 OFFCURVE",
"99 463 CURVE SMOOTH",
"140 511 OFFCURVE",
"202 537 OFFCURVE",
"281 537 CURVE SMOOTH",
"388 537 OFFCURVE",
"460 487 OFFCURVE",
"491 400 CURVE",
"371 348 LINE",
"362 388 OFFCURVE",
"333 420 OFFCURVE",
"281 420 CURVE SMOOTH",
"221 420 OFFCURVE",
"190 378 OFFCURVE",
"190 311 CURVE SMOOTH",
"190 213 LINE SMOOTH",
"190 146 OFFCURVE",
"221 104 OFFCURVE",
"281 104 CURVE SMOOTH",
"340 104 OFFCURVE",
"364 140 OFFCURVE",
"379 183 CURVE",
"494 133 LINE",
"459 33 OFFCURVE",
"385 -12 OFFCURVE",
"281 -12 CURVE SMOOTH"
);
}
);
width = 517;
}
);
leftKerningGroup = c;
rightKerningGroup = c;
unicode = 0063;
},
{
glyphname = d;
layers = (
{
layerId = "78D56DC8-6A23-4C9F-B1C5-F953A445AE64";
name = Bold;
paths = (
{
closed = 1;
nodes = (
"391 88 LINE",
"386 88 LINE",
"378 60 OFFCURVE",
"360 35 OFFCURVE",
"336 17 CURVE SMOOTH",
"311 -1 OFFCURVE",
"278 -12 OFFCURVE",
"245 -12 CURVE SMOOTH",
"112 -12 OFFCURVE",
"43 84 OFFCURVE",
"43 263 CURVE SMOOTH",
"43 442 OFFCURVE",
"112 537 OFFCURVE",
"245 537 CURVE SMOOTH",
"313 537 OFFCURVE",
"371 496 OFFCURVE",
"386 437 CURVE",
"391 437 LINE",
"391 740 LINE",
"539 740 LINE",
"539 0 LINE",
"391 0 LINE"
);
},
{
closed = 1;
nodes = (
"350 108 OFFCURVE",
"391 137 OFFCURVE",
"391 185 CURVE SMOOTH",
"391 340 LINE SMOOTH",
"391 388 OFFCURVE",
"350 417 OFFCURVE",
"294 417 CURVE SMOOTH",
"238 417 OFFCURVE",
"197 375 OFFCURVE",
"197 308 CURVE SMOOTH",
"197 217 LINE SMOOTH",
"197 150 OFFCURVE",
"238 108 OFFCURVE",
"294 108 CURVE SMOOTH"
);
}
);
width = 608;
}
);
leftKerningGroup = d;
unicode = 0064;
},
{
glyphname = e;
lastChange = "2018-11-07 04:26:42 +0000";
layers = (
{
layerId = "78D56DC8-6A23-4C9F-B1C5-F953A445AE64";
name = Bold;
paths = (
{
closed = 1;
nodes = (
"208 -12 OFFCURVE",
"145 15 OFFCURVE",
"102 63 CURVE SMOOTH",
"58 110 OFFCURVE",
"36 179 OFFCURVE",
"36 263 CURVE SMOOTH",
"36 346 OFFCURVE",
"58 414 OFFCURVE",
"100 462 CURVE SMOOTH",
"142 510 OFFCURVE",
"203 537 OFFCURVE",
"282 537 CURVE SMOOTH",
"369 537 OFFCURVE",
"430 505 OFFCURVE",
"470 456 CURVE SMOOTH",
"509 407 OFFCURVE",
"526 340 OFFCURVE",
"526 269 CURVE SMOOTH",
"526 225 LINE",
"189 225 LINE",
"189 217 LINE SMOOTH",
"189 148 OFFCURVE",
"225 104 OFFCURVE",
"305 104 CURVE SMOOTH",
"366 104 OFFCURVE",
"401 132 OFFCURVE",
"434 167 CURVE",
"508 75 LINE",
"461 20 OFFCURVE",
"384 -12 OFFCURVE",
"288 -12 CURVE SMOOTH"
);
},
{
closed = 1;
nodes = (
"225 428 OFFCURVE",
"189 385 OFFCURVE",
"189 320 CURVE SMOOTH",
"189 312 LINE",
"373 312 LINE",
"373 321 LINE SMOOTH",
"373 385 OFFCURVE",
"345 428 OFFCURVE",
"285 428 CURVE SMOOTH"
);
}
);
width = 562;
}
);
leftKerningGroup = c;
rightKerningGroup = e;
unicode = 0065;
},
{
glyphname = f;
layers = (
{
layerId = "78D56DC8-6A23-4C9F-B1C5-F953A445AE64";
name = Bold;
paths = (
{
closed = 1;
nodes = (
"95 410 LINE",
"21 410 LINE",
"21 525 LINE",
"95 525 LINE",
"95 587 LINE SMOOTH",
"95 688 OFFCURVE",
"149 740 OFFCURVE",
"252 740 CURVE SMOOTH",
"348 740 LINE",
"348 625 LINE",
"243 625 LINE",
"243 525 LINE",
"348 525 LINE",
"348 410 LINE",
"243 410 LINE",
"243 0 LINE",
"95 0 LINE"
);
}
);
width = 361;
}
);
leftKerningGroup = f;
rightKerningGroup = f;
unicode = 0066;
},
{
glyphname = g;
lastChange = "2018-11-05 19:07:51 +0000";
layers = (
{
layerId = "78D56DC8-6A23-4C9F-B1C5-F953A445AE64";
name = Bold;
paths = (
{
closed = 1;
nodes = (
"539 525 LINE",
"391 525 LINE",
"391 436 LINE",
"386 436 LINE",
"371 494 OFFCURVE",
"313 537 OFFCURVE",
"245 537 CURVE SMOOTH",
"112 537 OFFCURVE",
"43 441 OFFCURVE",
"43 269 CURVE SMOOTH",
"43 97 OFFCURVE",
"112 2 OFFCURVE",
"245 2 CURVE SMOOTH",
"313 2 OFFCURVE",
"371 45 OFFCURVE",
"386 102 CURVE",
"391 102 LINE",
"391 18 LINE SMOOTH",
"391 -52 OFFCURVE",
"355 -96 OFFCURVE",
"278 -96 CURVE SMOOTH",
"228 -96 OFFCURVE",
"187 -78 OFFCURVE",
"154 -43 CURVE",
"75 -137 LINE",
"115 -180 OFFCURVE",
"180 -212 OFFCURVE",
"282 -212 CURVE SMOOTH",
"453 -212 OFFCURVE",
"539 -122 OFFCURVE",
"539 32 CURVE SMOOTH"
);
},
{
closed = 1;
nodes = (
"238 122 OFFCURVE",
"197 166 OFFCURVE",
"197 232 CURVE SMOOTH",
"197 307 LINE SMOOTH",
"197 373 OFFCURVE",
"238 417 OFFCURVE",
"294 417 CURVE SMOOTH",
"350 417 OFFCURVE",
"391 388 OFFCURVE",
"391 340 CURVE SMOOTH",
"391 199 LINE SMOOTH",
"391 151 OFFCURVE",
"350 122 OFFCURVE",
"294 122 CURVE SMOOTH"
);
}
);
width = 608;
}
);
leftKerningGroup = g;
rightKerningGroup = g;
unicode = 0067;
},
{
glyphname = h;
layers = (
{
layerId = "78D56DC8-6A23-4C9F-B1C5-F953A445AE64";
name = Bold;
paths = (
{
closed = 1;
nodes = (
"69 740 LINE",
"217 740 LINE",
"217 436 LINE",
"223 436 LINE",
"242 491 OFFCURVE",
"286 537 OFFCURVE",
"369 537 CURVE SMOOTH",
"477 537 OFFCURVE",
"533 462 OFFCURVE",
"533 329 CURVE SMOOTH",
"533 0 LINE",
"385 0 LINE",
"385 317 LINE SMOOTH",
"385 385 OFFCURVE",
"367 417 OFFCURVE",
"312 417 CURVE SMOOTH",
"288 417 OFFCURVE",
"265 411 OFFCURVE",
"247 398 CURVE SMOOTH",
"229 385 OFFCURVE",
"217 365 OFFCURVE",
"217 340 CURVE SMOOTH",
"217 0 LINE",
"69 0 LINE"
);
}
);
width = 596;
}
);
leftKerningGroup = b;
rightKerningGroup = h;
unicode = 0068;
},
{
glyphname = i;
lastChange = "2018-11-07 04:32:22 +0000";
layers = (
{
layerId = "78D56DC8-6A23-4C9F-B1C5-F953A445AE64";
name = Bold;
paths = (
{
closed = 1;
nodes = (
"83 581 OFFCURVE",
"57 611 OFFCURVE",
"57 654 CURVE SMOOTH",
"57 676 LINE SMOOTH",
"57 719 OFFCURVE",
"83 749 OFFCURVE",
"143 749 CURVE SMOOTH",
"203 749 OFFCURVE",
"229 719 OFFCURVE",
"229 676 CURVE SMOOTH",
"229 654 LINE SMOOTH",
"229 611 OFFCURVE",
"203 581 OFFCURVE",
"143 581 CURVE SMOOTH"
);
},
{
closed = 1;
nodes = (
"69 525 LINE",
"217 525 LINE",
"217 0 LINE",
"69 0 LINE"
);
}
);
width = 286;
}
);
leftKerningGroup = i;
rightKerningGroup = i;
unicode = 0069;
},
{
glyphname = j;
layers = (
{
layerId = "78D56DC8-6A23-4C9F-B1C5-F953A445AE64";
name = Bold;
paths = (
{
closed = 1;
nodes = (
"69 525 LINE",
"217 525 LINE",
"217 -56 LINE SMOOTH",
"217 -149 OFFCURVE",
"173 -200 OFFCURVE",
"69 -200 CURVE SMOOTH",
"-9 -200 LINE",
"-9 -85 LINE",
"69 -85 LINE"
);
},
{
closed = 1;
nodes = (
"83 581 OFFCURVE",
"57 611 OFFCURVE",
"57 654 CURVE SMOOTH",
"57 676 LINE SMOOTH",
"57 719 OFFCURVE",
"83 749 OFFCURVE",
"143 749 CURVE SMOOTH",
"203 749 OFFCURVE",
"229 719 OFFCURVE",
"229 676 CURVE SMOOTH",
"229 654 LINE SMOOTH",
"229 611 OFFCURVE",
"203 581 OFFCURVE",
"143 581 CURVE SMOOTH"
);
}
);
width = 286;
}
);
leftKerningGroup = j;
rightKerningGroup = j;
unicode = 006A;
},
{
glyphname = k;
layers = (
{
layerId = "78D56DC8-6A23-4C9F-B1C5-F953A445AE64";
name = Bold;
paths = (
{
closed = 1;
nodes = (
"69 740 LINE",
"217 740 LINE",
"217 303 LINE",
"223 303 LINE",
"288 400 LINE",
"393 525 LINE",
"557 525 LINE",
"382 324 LINE",
"577 0 LINE",
"401 0 LINE",
"283 222 LINE",
"217 148 LINE",
"217 0 LINE",
"69 0 LINE"
);
}
);
width = 577;
}
);
leftKerningGroup = b;
rightKerningGroup = k;
unicode = 006B;
},
{
glyphname = l;
lastChange = "2018-11-02 14:33:42 +0000";
layers = (
{
layerId = "78D56DC8-6A23-4C9F-B1C5-F953A445AE64";
name = Bold;
paths = (
{
closed = 1;
nodes = (
"216 0 LINE SMOOTH",
"115 0 OFFCURVE",
"69 51 OFFCURVE",
"69 144 CURVE SMOOTH",
"69 740 LINE",
"217 740 LINE",
"217 115 LINE",
"283 115 LINE",
"283 0 LINE"
);
}
);
width = 303;
}
);
leftKerningGroup = l;
rightKerningGroup = l;
unicode = 006C;
},
{
glyphname = m;
layers = (
{
layerId = "78D56DC8-6A23-4C9F-B1C5-F953A445AE64";
name = Bold;
paths = (
{
closed = 1;
nodes = (
"69 0 LINE",
"69 525 LINE",
"217 525 LINE",
"217 436 LINE",
"223 436 LINE",
"242 492 OFFCURVE",
"285 537 OFFCURVE",
"364 537 CURVE SMOOTH",
"436 537 OFFCURVE",
"488 500 OFFCURVE",
"511 431 CURVE",
"514 431 LINE",
"523 460 OFFCURVE",
"543 487 OFFCURVE",
"571 506 CURVE SMOOTH",
"599 525 OFFCURVE",
"634 537 OFFCURVE",
"674 537 CURVE SMOOTH",
"775 537 OFFCURVE",
"831 462 OFFCURVE",
"831 329 CURVE SMOOTH",
"831 0 LINE",
"683 0 LINE",
"683 317 LINE SMOOTH",
"683 384 OFFCURVE",
"659 417 OFFCURVE",
"611 417 CURVE SMOOTH",
"567 417 OFFCURVE",
"524 392 OFFCURVE",
"524 340 CURVE SMOOTH",
"524 0 LINE",
"376 0 LINE",
"376 317 LINE SMOOTH",
"376 384 OFFCURVE",
"352 417 OFFCURVE",
"304 417 CURVE SMOOTH",
"283 417 OFFCURVE",
"261 411 OFFCURVE",
"245 398 CURVE SMOOTH",
"228 385 OFFCURVE",
"217 365 OFFCURVE",
"217 340 CURVE SMOOTH",
"217 0 LINE"
);
}
);
width = 894;
}
);
leftKerningGroup = m;
rightKerningGroup = h;
unicode = 006D;
},
{
glyphname = n;
layers = (
{
layerId = "78D56DC8-6A23-4C9F-B1C5-F953A445AE64";
name = Bold;
paths = (
{
closed = 1;
nodes = (
"69 0 LINE",
"69 525 LINE",
"217 525 LINE",
"217 436 LINE",
"223 436 LINE",
"242 491 OFFCURVE",
"286 537 OFFCURVE",
"369 537 CURVE SMOOTH",
"477 537 OFFCURVE",
"533 462 OFFCURVE",
"533 329 CURVE SMOOTH",
"533 0 LINE",
"385 0 LINE",
"385 317 LINE SMOOTH",
"385 385 OFFCURVE",
"367 417 OFFCURVE",
"312 417 CURVE SMOOTH",
"288 417 OFFCURVE",
"265 411 OFFCURVE",
"247 398 CURVE SMOOTH",
"229 385 OFFCURVE",
"217 365 OFFCURVE",
"217 340 CURVE SMOOTH",
"217 0 LINE"
);
}
);
width = 596;
}
);
leftKerningGroup = m;
rightKerningGroup = h;
unicode = 006E;
},
{
glyphname = o;
lastChange = "2018-11-07 04:32:16 +0000";
layers = (
{
layerId = "78D56DC8-6A23-4C9F-B1C5-F953A445AE64";
name = Bold;
paths = (
{
closed = 1;
nodes = (
"205 -12 OFFCURVE",
"144 14 OFFCURVE",
"102 62 CURVE SMOOTH",
"60 110 OFFCURVE",
"36 179 OFFCURVE",
"36 263 CURVE SMOOTH",
"36 347 OFFCURVE",
"60 416 OFFCURVE",
"102 464 CURVE SMOOTH",
"144 511 OFFCURVE",
"205 537 OFFCURVE",
"282 537 CURVE SMOOTH",
"359 537 OFFCURVE",
"421 511 OFFCURVE",
"463 464 CURVE SMOOTH",
"505 416 OFFCURVE",
"528 347 OFFCURVE",
"528 263 CURVE SMOOTH",
"528 179 OFFCURVE",
"505 110 OFFCURVE",
"463 62 CURVE SMOOTH",
"421 14 OFFCURVE",
"359 -12 OFFCURVE",
"282 -12 CURVE SMOOTH"
);
},
{
closed = 1;
nodes = (
"341 105 OFFCURVE",
"374 142 OFFCURVE",
"374 209 CURVE SMOOTH",
"374 316 LINE SMOOTH",
"374 383 OFFCURVE",
"341 420 OFFCURVE",
"282 420 CURVE SMOOTH",
"223 420 OFFCURVE",
"190 383 OFFCURVE",
"190 316 CURVE SMOOTH",
"190 209 LINE SMOOTH",
"190 142 OFFCURVE",
"223 105 OFFCURVE",
"282 105 CURVE SMOOTH"
);
}
);
width = 564;
}
);
leftKerningGroup = c;
rightKerningGroup = o;
unicode = 006F;
},
{
glyphname = p;
layers = (
{
layerId = "78D56DC8-6A23-4C9F-B1C5-F953A445AE64";
name = Bold;
paths = (
{
closed = 1;
nodes = (
"69 525 LINE",
"217 525 LINE",
"217 437 LINE",
"222 437 LINE",
"237 496 OFFCURVE",
"295 537 OFFCURVE",
"363 537 CURVE SMOOTH",
"496 537 OFFCURVE",
"565 442 OFFCURVE",
"565 263 CURVE SMOOTH",
"565 84 OFFCURVE",
"496 -12 OFFCURVE",
"363 -12 CURVE SMOOTH",
"328 -12 OFFCURVE",
"297 -1 OFFCURVE",
"273 17 CURVE SMOOTH",
"248 35 OFFCURVE",
"230 60 OFFCURVE",
"222 88 CURVE",
"217 88 LINE",
"217 -200 LINE",
"69 -200 LINE"
);
},
{
closed = 1;
nodes = (
"370 108 OFFCURVE",
"411 150 OFFCURVE",
"411 217 CURVE SMOOTH",
"411 308 LINE SMOOTH",
"411 375 OFFCURVE",
"370 417 OFFCURVE",
"314 417 CURVE SMOOTH",
"258 417 OFFCURVE",
"217 388 OFFCURVE",
"217 340 CURVE SMOOTH",
"217 185 LINE SMOOTH",
"217 137 OFFCURVE",
"258 108 OFFCURVE",
"314 108 CURVE SMOOTH"
);
}
);
width = 608;
}
);
leftKerningGroup = p;
rightKerningGroup = b;
unicode = 0070;
},
{
glyphname = q;
layers = (
{
layerId = "78D56DC8-6A23-4C9F-B1C5-F953A445AE64";
name = Bold;
paths = (
{
closed = 1;
nodes = (
"391 88 LINE",
"386 88 LINE",
"378 60 OFFCURVE",
"360 35 OFFCURVE",
"336 17 CURVE SMOOTH",
"311 -1 OFFCURVE",
"278 -12 OFFCURVE",
"245 -12 CURVE SMOOTH",
"112 -12 OFFCURVE",
"43 84 OFFCURVE",
"43 263 CURVE SMOOTH",
"43 442 OFFCURVE",
"112 537 OFFCURVE",
"245 537 CURVE SMOOTH",
"313 537 OFFCURVE",
"371 496 OFFCURVE",
"386 437 CURVE",
"391 437 LINE",
"391 525 LINE",
"539 525 LINE",
"539 -200 LINE",
"391 -200 LINE"
);
},
{
closed = 1;
nodes = (
"350 108 OFFCURVE",
"391 137 OFFCURVE",
"391 185 CURVE SMOOTH",
"391 340 LINE SMOOTH",
"391 388 OFFCURVE",
"350 417 OFFCURVE",
"294 417 CURVE SMOOTH",
"238 417 OFFCURVE",
"197 375 OFFCURVE",
"197 308 CURVE SMOOTH",
"197 217 LINE SMOOTH",
"197 150 OFFCURVE",
"238 108 OFFCURVE",
"294 108 CURVE SMOOTH"
);
}
);
width = 608;
}
);
leftKerningGroup = d;
rightKerningGroup = j;
unicode = 0071;
},
{
glyphname = r;
layers = (
{
layerId = "78D56DC8-6A23-4C9F-B1C5-F953A445AE64";
name = Bold;
paths = (
{
closed = 1;
nodes = (
"69 0 LINE",
"69 525 LINE",
"217 525 LINE",
"217 411 LINE",
"222 411 LINE",
"227 440 OFFCURVE",
"241 469 OFFCURVE",
"263 490 CURVE SMOOTH",
"285 511 OFFCURVE",
"315 525 OFFCURVE",
"356 525 CURVE SMOOTH",
"382 525 LINE",
"382 387 LINE",
"345 387 LINE SMOOTH",
"258 387 OFFCURVE",
"217 368 OFFCURVE",
"217 307 CURVE SMOOTH",
"217 0 LINE"
);
}
);
width = 404;
}
);
leftKerningGroup = m;
rightKerningGroup = r;
unicode = 0072;
},
{
glyphname = s;
layers = (
{
layerId = "78D56DC8-6A23-4C9F-B1C5-F953A445AE64";
name = Bold;
paths = (
{
closed = 1;
nodes = (
"146 -12 OFFCURVE",
"81 22 OFFCURVE",
"26 82 CURVE",
"113 170 LINE",
"150 129 OFFCURVE",
"195 103 OFFCURVE",
"252 103 CURVE SMOOTH",
"311 103 OFFCURVE",
"330 122 OFFCURVE",
"330 153 CURVE SMOOTH",
"330 178 OFFCURVE",
"312 192 OFFCURVE",
"277 197 CURVE SMOOTH",
"220 204 LINE SMOOTH",
"102 219 OFFCURVE",
"43 273 OFFCURVE",
"43 366 CURVE SMOOTH",
"43 417 OFFCURVE",
"63 460 OFFCURVE",
"99 490 CURVE SMOOTH",
"134 520 OFFCURVE",
"184 537 OFFCURVE",
"247 537 CURVE SMOOTH",
"302 537 OFFCURVE",
"343 530 OFFCURVE",
"376 516 CURVE SMOOTH",
"408 502 OFFCURVE",
"434 480 OFFCURVE",
"461 455 CURVE",
"376 368 LINE",
"343 401 OFFCURVE",
"299 422 OFFCURVE",
"255 422 CURVE SMOOTH",
"204 422 OFFCURVE",
"185 405 OFFCURVE",
"185 378 CURVE SMOOTH",
"185 350 OFFCURVE",
"197 336 OFFCURVE",
"240 329 CURVE SMOOTH",
"299 321 LINE SMOOTH",
"414 306 OFFCURVE",
"472 253 OFFCURVE",
"472 163 CURVE SMOOTH",
"472 112 OFFCURVE",
"450 69 OFFCURVE",
"411 38 CURVE SMOOTH",
"371 6 OFFCURVE",
"315 -12 OFFCURVE",
"247 -12 CURVE SMOOTH"
);
}
);
width = 504;
}
);
leftKerningGroup = s;
rightKerningGroup = s;
unicode = 0073;
},
{
glyphname = t;
layers = (
{
layerId = "78D56DC8-6A23-4C9F-B1C5-F953A445AE64";
name = Bold;
paths = (
{
closed = 1;
nodes = (
"253 0 LINE SMOOTH",
"150 0 OFFCURVE",
"97 53 OFFCURVE",
"97 153 CURVE SMOOTH",
"97 410 LINE",
"23 410 LINE",
"23 525 LINE",
"60 525 LINE SMOOTH",
"100 525 OFFCURVE",
"112 545 OFFCURVE",
"112 581 CURVE SMOOTH",
"112 667 LINE",
"245 667 LINE",
"245 525 LINE",
"349 525 LINE",
"349 410 LINE",
"245 410 LINE",
"245 115 LINE",
"341 115 LINE",
"341 0 LINE"
);
}
);
width = 383;
}
);
leftKerningGroup = t;
rightKerningGroup = t;
unicode = 0074;
},
{
glyphname = u;
layers = (
{
layerId = "78D56DC8-6A23-4C9F-B1C5-F953A445AE64";
name = Bold;
paths = (
{
closed = 1;
nodes = (
"379 88 LINE",
"374 88 LINE",
"365 61 OFFCURVE",
"350 37 OFFCURVE",
"326 18 CURVE SMOOTH",
"302 -1 OFFCURVE",
"270 -12 OFFCURVE",
"227 -12 CURVE SMOOTH",
"119 -12 OFFCURVE",
"63 62 OFFCURVE",
"63 195 CURVE SMOOTH",
"63 525 LINE",
"211 525 LINE",
"211 208 LINE SMOOTH",
"211 144 OFFCURVE",
"231 108 OFFCURVE",
"286 108 CURVE SMOOTH",
"309 108 OFFCURVE",
"333 115 OFFCURVE",
"350 128 CURVE",
"367 140 OFFCURVE",
"379 159 OFFCURVE",
"379 184 CURVE SMOOTH",
"379 525 LINE",
"527 525 LINE",
"527 0 LINE",
"379 0 LINE"
);
}
);
width = 596;
}
);
leftKerningGroup = u;
rightKerningGroup = u;
unicode = 0075;
},
{
glyphname = v;
layers = (
{
layerId = "78D56DC8-6A23-4C9F-B1C5-F953A445AE64";
name = Bold;
paths = (
{
closed = 1;
nodes = (
"181 0 LINE",
"9 525 LINE",
"155 525 LINE",
"220 313 LINE",
"269 123 LINE",
"277 123 LINE",
"326 313 LINE",
"389 525 LINE",
"529 525 LINE",
"357 0 LINE"
);
}
);
width = 538;
}
);
leftKerningGroup = v;
rightKerningGroup = v;
unicode = 0076;
},
{
glyphname = w;
layers = (
{
layerId = "78D56DC8-6A23-4C9F-B1C5-F953A445AE64";
name = Bold;
paths = (
{
closed = 1;
nodes = (
"19 525 LINE",
"162 525 LINE",
"213 313 LINE",
"249 153 LINE",
"253 153 LINE",
"295 313 LINE",
"355 525 LINE",
"490 525 LINE",
"551 313 LINE",
"594 153 LINE",
"598 153 LINE",
"634 313 LINE",
"685 525 LINE",
"822 525 LINE",
"677 0 LINE",
"522 0 LINE",
"458 222 LINE",
"421 358 LINE",
"418 358 LINE",
"382 222 LINE",
"318 0 LINE",
"166 0 LINE"
);
}
);
width = 841;
}
);
leftKerningGroup = w;
rightKerningGroup = w;
unicode = 0077;
},
{
glyphname = x;
layers = (
{
layerId = "78D56DC8-6A23-4C9F-B1C5-F953A445AE64";
name = Bold;
paths = (
{
closed = 1;
nodes = (
"18 0 LINE",
"191 267 LINE",
"20 525 LINE",
"188 525 LINE",
"286 360 LINE",
"290 360 LINE",
"385 525 LINE",
"541 525 LINE",
"367 262 LINE",
"542 0 LINE",
"374 0 LINE",
"273 171 LINE",
"269 171 LINE",
"172 0 LINE"
);
}
);
width = 560;
}
);
leftKerningGroup = x;
rightKerningGroup = x;
unicode = 0078;
},
{
glyphname = y;
layers = (
{
layerId = "78D56DC8-6A23-4C9F-B1C5-F953A445AE64";
name = Bold;
paths = (
{
closed = 1;
nodes = (
"390 525 LINE",
"528 525 LINE",
"326 -81 LINE SMOOTH",
"299 -162 OFFCURVE",
"256 -200 OFFCURVE",
"165 -200 CURVE SMOOTH",
"73 -200 LINE",
"73 -85 LINE",
"172 -85 LINE",
"190 -27 LINE",
"6 525 LINE",
"153 525 LINE",
"230 280 LINE",
"268 128 LINE",
"274 128 LINE",
"313 280 LINE"
);
}
);
width = 534;
}
);
leftKerningGroup = y;
rightKerningGroup = y;
unicode = 0079;
},
{
glyphname = z;
layers = (
{
layerId = "78D56DC8-6A23-4C9F-B1C5-F953A445AE64";
name = Bold;
paths = (
{
closed = 1;
nodes = (
"39 0 LINE",
"39 117 LINE",
"300 410 LINE",
"48 410 LINE",
"48 525 LINE",
"472 525 LINE",
"472 409 LINE",
"210 115 LINE",
"479 115 LINE",
"479 0 LINE"
);
}
);
width = 518;
}
);
leftKerningGroup = z;
rightKerningGroup = z;
unicode = 007A;
},
{
glyphname = A;
layers = (
{
layerId = "78D56DC8-6A23-4C9F-B1C5-F953A445AE64";
name = Bold;
paths = (
{
closed = 1;
nodes = (
"507 0 LINE",
"457 166 LINE",
"224 166 LINE",
"174 0 LINE",
"20 0 LINE",
"250 698 LINE",
"438 698 LINE",
"665 0 LINE"
);
},
{
closed = 1;
nodes = (
"342 560 LINE",
"337 560 LINE",
"260 295 LINE",
"420 295 LINE"
);
}
);
width = 685;
}
);
leftKerningGroup = A;
rightKerningGroup = A;
unicode = 0041;
},
{
glyphname = B;
layers = (
{
layerId = "78D56DC8-6A23-4C9F-B1C5-F953A445AE64";
name = Bold;
paths = (
{
closed = 1;
nodes = (
"77 698 LINE",
"416 698 LINE SMOOTH",
"532 698 OFFCURVE",
"600 627 OFFCURVE",
"600 519 CURVE SMOOTH",
"600 466 OFFCURVE",
"585 429 OFFCURVE",
"562 405 CURVE SMOOTH",
"538 381 OFFCURVE",
"506 370 OFFCURVE",
"470 369 CURVE",
"470 363 LINE",
"503 363 OFFCURVE",
"542 352 OFFCURVE",
"573 326 CURVE SMOOTH",
"604 300 OFFCURVE",
"627 259 OFFCURVE",
"627 199 CURVE SMOOTH",
"627 144 OFFCURVE",
"608 94 OFFCURVE",
"576 58 CURVE SMOOTH",
"544 22 OFFCURVE",
"499 0 OFFCURVE",
"447 0 CURVE SMOOTH",
"77 0 LINE"
);
},
{
closed = 1;
nodes = (
"229 128 LINE",
"404 128 LINE SMOOTH",
"444 128 OFFCURVE",
"469 151 OFFCURVE",
"469 191 CURVE SMOOTH",
"469 225 LINE SMOOTH",
"469 265 OFFCURVE",
"444 288 OFFCURVE",
"404 288 CURVE SMOOTH",
"229 288 LINE"
);
},
{
closed = 1;
nodes = (
"229 412 LINE",
"380 412 LINE SMOOTH",
"420 412 OFFCURVE",
"444 436 OFFCURVE",
"444 476 CURVE SMOOTH",
"444 506 LINE SMOOTH",
"444 546 OFFCURVE",
"420 570 OFFCURVE",
"380 570 CURVE SMOOTH",
"229 570 LINE"
);
}
);
width = 667;
}
);
unicode = 0042;
},
{
glyphname = C;
layers = (
{
layerId = "78D56DC8-6A23-4C9F-B1C5-F953A445AE64";
name = Bold;
paths = (
{
closed = 1;
nodes = (
"264 -12 OFFCURVE",
"187 18 OFFCURVE",
"134 78 CURVE SMOOTH",
"81 137 OFFCURVE",
"50 225 OFFCURVE",
"50 344 CURVE SMOOTH",
"50 461 OFFCURVE",
"81 554 OFFCURVE",
"134 616 CURVE SMOOTH",
"187 678 OFFCURVE",
"264 710 OFFCURVE",
"359 710 CURVE SMOOTH",
"488 710 OFFCURVE",
"569 659 OFFCURVE",
"620 546 CURVE",
"489 478 LINE",
"470 537 OFFCURVE",
"435 575 OFFCURVE",
"359 575 CURVE SMOOTH",
"270 575 OFFCURVE",
"211 516 OFFCURVE",
"211 405 CURVE SMOOTH",
"211 293 LINE SMOOTH",
"211 182 OFFCURVE",
"270 123 OFFCURVE",
"359 123 CURVE SMOOTH",
"434 123 OFFCURVE",
"477 170 OFFCURVE",
"498 227 CURVE",
"622 155 LINE",
"570 48 OFFCURVE",
"488 -12 OFFCURVE",
"359 -12 CURVE SMOOTH"
);
}
);
width = 651;
}
);
leftKerningGroup = C;
rightKerningGroup = C;
unicode = 0043;
},
{
glyphname = D;
layers = (
{
layerId = "78D56DC8-6A23-4C9F-B1C5-F953A445AE64";
name = Bold;
paths = (
{
closed = 1;
nodes = (
"77 698 LINE",
"340 698 LINE SMOOTH",
"432 698 OFFCURVE",
"510 669 OFFCURVE",
"563 611 CURVE SMOOTH",
"616 553 OFFCURVE",
"647 465 OFFCURVE",
"647 349 CURVE SMOOTH",
"647 233 OFFCURVE",
"616 146 OFFCURVE",
"563 88 CURVE SMOOTH",
"510 30 OFFCURVE",
"432 0 OFFCURVE",
"340 0 CURVE SMOOTH",
"77 0 LINE"
);
},
{
closed = 1;
nodes = (
"340 135 LINE SMOOTH",
"431 135 OFFCURVE",
"486 183 OFFCURVE",
"486 295 CURVE SMOOTH",
"486 403 LINE SMOOTH",
"486 515 OFFCURVE",
"431 563 OFFCURVE",
"340 563 CURVE SMOOTH",
"229 563 LINE",
"229 135 LINE"
);
}
);
width = 697;
}
);
rightKerningGroup = D;
unicode = 0044;
},
{
glyphname = E;
layers = (
{
layerId = "78D56DC8-6A23-4C9F-B1C5-F953A445AE64";
name = Bold;
paths = (
{
closed = 1;
nodes = (
"77 0 LINE",
"77 698 LINE",
"552 698 LINE",
"552 563 LINE",
"229 563 LINE",
"229 420 LINE",
"506 420 LINE",
"506 286 LINE",
"229 286 LINE",
"229 135 LINE",
"552 135 LINE",
"552 0 LINE"
);
}
);
width = 607;
}
);
rightKerningGroup = E;
unicode = 0045;
},
{
glyphname = F;
layers = (
{
layerId = "78D56DC8-6A23-4C9F-B1C5-F953A445AE64";
name = Bold;
paths = (
{
closed = 1;
nodes = (
"77 0 LINE",
"77 698 LINE",
"540 698 LINE",
"540 563 LINE",
"229 563 LINE",
"229 420 LINE",
"494 420 LINE",
"494 286 LINE",
"229 286 LINE",
"229 0 LINE"
);
}
);
width = 585;
}
);
rightKerningGroup = F;
unicode = 0046;
},
{
glyphname = G;
layers = (
{
layerId = "78D56DC8-6A23-4C9F-B1C5-F953A445AE64";
name = Bold;
paths = (
{
closed = 1;
nodes = (
"520 111 LINE",
"515 111 LINE",
"504 40 OFFCURVE",
"441 -12 OFFCURVE",
"336 -12 CURVE SMOOTH",
"256 -12 OFFCURVE",
"185 19 OFFCURVE",
"133 79 CURVE SMOOTH",
"81 139 OFFCURVE",
"50 229 OFFCURVE",
"50 346 CURVE SMOOTH",
"50 463 OFFCURVE",
"82 555 OFFCURVE",
"138 616 CURVE SMOOTH",
"193 677 OFFCURVE",
"271 710 OFFCURVE",
"366 710 CURVE SMOOTH",
"491 710 OFFCURVE",
"583 656 OFFCURVE",
"635 548 CURVE",
"511 477 LINE",
"490 532 OFFCURVE",
"447 575 OFFCURVE",
"366 575 CURVE SMOOTH",
"271 575 OFFCURVE",
"211 522 OFFCURVE",
"211 405 CURVE SMOOTH",
"211 293 LINE SMOOTH",
"211 177 OFFCURVE",
"271 123 OFFCURVE",
"366 123 CURVE SMOOTH",
"403 123 OFFCURVE",
"438 132 OFFCURVE",
"463 150 CURVE SMOOTH",
"488 168 OFFCURVE",
"503 192 OFFCURVE",
"503 227 CURVE SMOOTH",
"503 262 LINE",
"373 262 LINE",
"373 389 LINE",
"648 389 LINE",
"648 0 LINE",
"520 0 LINE"
);
}
);
width = 719;
}
);
leftKerningGroup = C;
rightKerningGroup = G;
unicode = 0047;
},
{
glyphname = H;
layers = (
{
layerId = "78D56DC8-6A23-4C9F-B1C5-F953A445AE64";
name = Bold;
paths = (
{
closed = 1;
nodes = (
"495 286 LINE",
"229 286 LINE",
"229 0 LINE",
"77 0 LINE",
"77 698 LINE",
"229 698 LINE",
"229 420 LINE",
"495 420 LINE",
"495 698 LINE",
"647 698 LINE",
"647 0 LINE",
"495 0 LINE"
);
}
);
width = 724;
}
);
unicode = 0048;
},
{
glyphname = I;
lastChange = "2018-11-02 03:48:00 +0000";
layers = (
{
layerId = "78D56DC8-6A23-4C9F-B1C5-F953A445AE64";
name = Bold;
paths = (
{
closed = 1;
nodes = (
"77 0 LINE",
"229 0 LINE",
"229 698 LINE",
"77 698 LINE"
);
}
);
width = 306;
}
);
leftKerningGroup = I;
rightKerningGroup = I;
unicode = 0049;
},
{
glyphname = J;
lastChange = "2018-11-02 03:43:07 +0000";
layers = (
{
layerId = "78D56DC8-6A23-4C9F-B1C5-F953A445AE64";
name = Bold;
paths = (
{
closed = 1;
nodes = (
"334 209 LINE SMOOTH",
"334 149 OFFCURVE",
"298 122 OFFCURVE",
"254 122 CURVE SMOOTH",
"207 122 OFFCURVE",
"178 152 OFFCURVE",
"167 213 CURVE",
"25 185 LINE",
"34 126 OFFCURVE",
"59 78 OFFCURVE",
"97 43 CURVE SMOOTH",
"135 8 OFFCURVE",
"187 -11 OFFCURVE",
"256 -11 CURVE SMOOTH",
"328 -11 OFFCURVE",
"385 11 OFFCURVE",
"425 48 CURVE SMOOTH",
"465 84 OFFCURVE",
"486 138 OFFCURVE",
"486 202 CURVE SMOOTH",
"486 698 LINE",
"334 698 LINE"
);
}
);
width = 559;
}
);
leftKerningGroup = J;
rightKerningGroup = J;
unicode = 004A;
},
{
glyphname = K;
layers = (
{
layerId = "78D56DC8-6A23-4C9F-B1C5-F953A445AE64";
name = Bold;
paths = (
{
closed = 1;
nodes = (
"320 304 LINE",
"229 194 LINE",
"229 0 LINE",
"77 0 LINE",
"77 698 LINE",
"229 698 LINE",
"229 366 LINE",
"235 366 LINE",
"334 501 LINE",
"491 698 LINE",
"663 698 LINE",
"428 411 LINE",
"684 0 LINE",
"505 0 LINE"
);
}
);
width = 696;
}
);
rightKerningGroup = K;
unicode = 004B;
},
{
glyphname = L;
layers = (
{
layerId = "78D56DC8-6A23-4C9F-B1C5-F953A445AE64";
name = Bold;
paths = (
{
closed = 1;
nodes = (
"77 0 LINE",
"77 698 LINE",
"229 698 LINE",
"229 135 LINE",
"495 135 LINE",
"495 0 LINE"
);
}
);
width = 530;
}
);
rightKerningGroup = L;
unicode = 004C;
},
{
glyphname = M;
layers = (
{
layerId = "78D56DC8-6A23-4C9F-B1C5-F953A445AE64";
name = Bold;
paths = (
{
closed = 1;
nodes = (
"599 458 LINE",
"596 458 LINE",
"545 356 LINE",
"409 109 LINE",
"276 355 LINE",
"223 465 LINE",
"220 465 LINE",
"220 0 LINE",
"77 0 LINE",
"77 698 LINE",
"238 698 LINE",
"409 371 LINE",
"411 371 LINE",
"580 698 LINE",
"742 698 LINE",
"742 0 LINE",
"599 0 LINE"
);
}
);
width = 819;
}
);
unicode = 004D;
},
{
glyphname = N;
layers = (
{
layerId = "78D56DC8-6A23-4C9F-B1C5-F953A445AE64";
name = Bold;
paths = (
{
closed = 1;
nodes = (
"290 330 LINE",
"223 470 LINE",
"220 470 LINE",
"220 0 LINE",
"77 0 LINE",
"77 698 LINE",
"243 698 LINE",
"434 368 LINE",
"501 228 LINE",
"504 228 LINE",
"504 698 LINE",
"647 698 LINE",
"647 0 LINE",
"481 0 LINE"
);
}
);
width = 724;
}
);
unicode = 004E;
},
{
glyphname = O;
layers = (
{
layerId = "78D56DC8-6A23-4C9F-B1C5-F953A445AE64";
name = Bold;
paths = (
{
closed = 1;
nodes = (
"265 -12 OFFCURVE",
"187 19 OFFCURVE",
"134 80 CURVE SMOOTH",
"81 140 OFFCURVE",
"50 230 OFFCURVE",
"50 349 CURVE SMOOTH",
"50 468 OFFCURVE",
"81 558 OFFCURVE",
"134 619 CURVE SMOOTH",
"187 679 OFFCURVE",
"265 710 OFFCURVE",
"357 710 CURVE SMOOTH",
"449 710 OFFCURVE",
"527 679 OFFCURVE",
"580 619 CURVE SMOOTH",
"633 558 OFFCURVE",
"664 468 OFFCURVE",
"664 349 CURVE SMOOTH",
"664 230 OFFCURVE",
"633 140 OFFCURVE",
"580 80 CURVE SMOOTH",
"527 19 OFFCURVE",
"449 -12 OFFCURVE",
"357 -12 CURVE SMOOTH"
);
},
{
closed = 1;
nodes = (
"449 123 OFFCURVE",
"503 185 OFFCURVE",
"503 297 CURVE SMOOTH",
"503 401 LINE SMOOTH",
"503 513 OFFCURVE",
"449 575 OFFCURVE",
"357 575 CURVE SMOOTH",
"265 575 OFFCURVE",
"211 513 OFFCURVE",
"211 401 CURVE SMOOTH",
"211 297 LINE SMOOTH",
"211 185 OFFCURVE",
"265 123 OFFCURVE",
"357 123 CURVE SMOOTH"
);
}
);
width = 714;
}
);
leftKerningGroup = C;
rightKerningGroup = O;
unicode = 004F;
},
{
glyphname = P;
layers = (
{
layerId = "78D56DC8-6A23-4C9F-B1C5-F953A445AE64";
name = Bold;
paths = (
{
closed = 1;
nodes = (
"77 0 LINE",
"77 698 LINE",
"407 698 LINE SMOOTH",
"472 698 OFFCURVE",
"525 675 OFFCURVE",
"562 636 CURVE SMOOTH",
"598 597 OFFCURVE",
"619 540 OFFCURVE",
"619 475 CURVE SMOOTH",
"619 408 OFFCURVE",
"598 353 OFFCURVE",
"562 314 CURVE SMOOTH",
"525 275 OFFCURVE",
"472 252 OFFCURVE",
"407 252 CURVE SMOOTH",
"229 252 LINE",
"229 0 LINE"
);
},
{
closed = 1;
nodes = (
"229 384 LINE",
"389 384 LINE SMOOTH",
"434 384 OFFCURVE",
"462 408 OFFCURVE",
"462 453 CURVE SMOOTH",
"462 497 LINE SMOOTH",
"462 542 OFFCURVE",
"434 566 OFFCURVE",
"389 566 CURVE SMOOTH",
"229 566 LINE"
);
}
);
width = 656;
}
);
rightKerningGroup = P;
unicode = 0050;
},
{
glyphname = Q;
layers = (
{
layerId = "78D56DC8-6A23-4C9F-B1C5-F953A445AE64";
name = Bold;
paths = (
{
closed = 1;
nodes = (
"542 -184 LINE",
"448 -184 LINE SMOOTH",
"340 -184 OFFCURVE",
"293 -132 OFFCURVE",
"293 -36 CURVE SMOOTH",
"293 -7 LINE",
"144 20 OFFCURVE",
"50 140 OFFCURVE",
"50 349 CURVE SMOOTH",
"50 468 OFFCURVE",
"81 558 OFFCURVE",
"134 619 CURVE SMOOTH",
"187 679 OFFCURVE",
"265 710 OFFCURVE",
"357 710 CURVE SMOOTH",
"449 710 OFFCURVE",
"527 679 OFFCURVE",
"580 619 CURVE SMOOTH",
"633 558 OFFCURVE",
"664 468 OFFCURVE",
"664 349 CURVE SMOOTH",
"664 146 OFFCURVE",
"576 27 OFFCURVE",
"435 -4 CURVE",
"435 -60 LINE",
"542 -60 LINE"
);
},
{
closed = 1;
nodes = (
"449 123 OFFCURVE",
"503 185 OFFCURVE",
"503 297 CURVE SMOOTH",
"503 401 LINE SMOOTH",
"503 513 OFFCURVE",
"449 575 OFFCURVE",
"357 575 CURVE SMOOTH",
"265 575 OFFCURVE",
"211 513 OFFCURVE",
"211 401 CURVE SMOOTH",
"211 297 LINE SMOOTH",
"211 185 OFFCURVE",
"265 123 OFFCURVE",
"357 123 CURVE SMOOTH"
);
}
);
width = 714;
}
);
leftKerningGroup = C;
rightKerningGroup = O;
unicode = 0051;
},
{
glyphname = R;
layers = (
{
layerId = "78D56DC8-6A23-4C9F-B1C5-F953A445AE64";
name = Bold;
paths = (
{
closed = 1;
nodes = (
"229 0 LINE",
"77 0 LINE",
"77 698 LINE",
"408 698 LINE SMOOTH",
"472 698 OFFCURVE",
"525 676 OFFCURVE",
"562 637 CURVE SMOOTH",
"598 597 OFFCURVE",
"619 542 OFFCURVE",
"619 475 CURVE SMOOTH",
"619 380 OFFCURVE",
"577 306 OFFCURVE",
"492 274 CURVE",
"629 0 LINE",
"460 0 LINE",
"338 256 LINE",
"229 256 LINE"
);
},
{
closed = 1;
nodes = (
"389 384 LINE SMOOTH",
"434 384 OFFCURVE",
"462 408 OFFCURVE",
"462 453 CURVE SMOOTH",
"462 497 LINE SMOOTH",
"462 542 OFFCURVE",
"434 566 OFFCURVE",
"389 566 CURVE SMOOTH",
"229 566 LINE",
"229 384 LINE"
);
}
);
width = 674;
}
);
rightKerningGroup = R;
unicode = 0052;
},
{
glyphname = S;
layers = (
{
layerId = "78D56DC8-6A23-4C9F-B1C5-F953A445AE64";
name = Bold;
paths = (
{
closed = 1;
nodes = (
"180 -12 OFFCURVE",
"98 34 OFFCURVE",
"38 101 CURVE",
"138 202 LINE",
"185 149 OFFCURVE",
"244 122 OFFCURVE",
"313 122 CURVE SMOOTH",
"388 122 OFFCURVE",
"423 155 OFFCURVE",
"423 206 CURVE SMOOTH",
"423 245 OFFCURVE",
"407 272 OFFCURVE",
"342 281 CURVE SMOOTH",
"273 290 LINE SMOOTH",
"125 309 OFFCURVE",
"59 381 OFFCURVE",
"59 498 CURVE SMOOTH",
"59 561 OFFCURVE",
"84 614 OFFCURVE",
"129 651 CURVE SMOOTH",
"173 688 OFFCURVE",
"238 710 OFFCURVE",
"321 710 CURVE SMOOTH",
"426 710 OFFCURVE",
"506 676 OFFCURVE",
"563 612 CURVE",
"462 510 LINE",
"429 549 OFFCURVE",
"384 576 OFFCURVE",
"312 576 CURVE SMOOTH",
"244 576 OFFCURVE",
"211 551 OFFCURVE",
"211 508 CURVE SMOOTH",
"211 460 OFFCURVE",
"235 442 OFFCURVE",
"294 433 CURVE SMOOTH",
"363 422 LINE SMOOTH",
"507 399 OFFCURVE",
"575 336 OFFCURVE",
"575 215 CURVE SMOOTH",
"575 148 OFFCURVE",
"551 91 OFFCURVE",
"505 51 CURVE SMOOTH",
"459 11 OFFCURVE",
"390 -12 OFFCURVE",
"303 -12 CURVE SMOOTH"
);
}
);
width = 624;
}
);
leftKerningGroup = S;
rightKerningGroup = S;
unicode = 0053;
},
{
glyphname = T;
layers = (
{
layerId = "78D56DC8-6A23-4C9F-B1C5-F953A445AE64";
name = Bold;
paths = (
{
closed = 1;
nodes = (
"368 563 LINE",
"368 0 LINE",
"216 0 LINE",
"216 563 LINE",
"27 563 LINE",
"27 698 LINE",
"557 698 LINE",
"557 563 LINE"
);
}
);
width = 584;
}
);
leftKerningGroup = T;
rightKerningGroup = T;
unicode = 0054;
},
{
glyphname = U;
layers = (
{
layerId = "78D56DC8-6A23-4C9F-B1C5-F953A445AE64";
name = Bold;
paths = (
{
closed = 1;
nodes = (
"221 698 LINE",
"221 270 LINE SMOOTH",
"221 171 OFFCURVE",
"256 123 OFFCURVE",
"347 123 CURVE SMOOTH",
"438 123 OFFCURVE",
"473 171 OFFCURVE",
"473 270 CURVE SMOOTH",
"473 698 LINE",
"621 698 LINE",
"621 286 LINE SMOOTH",
"621 183 OFFCURVE",
"603 108 OFFCURVE",
"559 60 CURVE SMOOTH",
"515 11 OFFCURVE",
"447 -12 OFFCURVE",
"347 -12 CURVE SMOOTH",
"247 -12 OFFCURVE",
"179 11 OFFCURVE",
"135 60 CURVE SMOOTH",
"91 108 OFFCURVE",
"73 183 OFFCURVE",
"73 286 CURVE SMOOTH",
"73 698 LINE"
);
}
);
width = 694;
}
);
leftKerningGroup = U;
rightKerningGroup = U;
unicode = 0055;
},
{
glyphname = V;
layers = (
{
layerId = "78D56DC8-6A23-4C9F-B1C5-F953A445AE64";
name = Bold;
paths = (
{
closed = 1;
nodes = (
"239 0 LINE",
"14 698 LINE",
"168 698 LINE",
"272 363 LINE",
"327 144 LINE",
"330 144 LINE",
"383 363 LINE",
"487 698 LINE",
"636 698 LINE",
"409 0 LINE"
);
}
);
width = 650;
}
);
leftKerningGroup = V;
rightKerningGroup = V;
unicode = 0056;
},
{
glyphname = W;
layers = (
{
layerId = "78D56DC8-6A23-4C9F-B1C5-F953A445AE64";
name = Bold;
paths = (
{
closed = 1;
nodes = (
"187 0 LINE",
"29 698 LINE",
"179 698 LINE",
"245 363 LINE",
"282 169 LINE",
"285 169 LINE",
"329 363 LINE",
"406 698 LINE",
"572 698 LINE",
"650 363 LINE",
"693 169 LINE",
"696 169 LINE",
"733 363 LINE",
"800 698 LINE",
"944 698 LINE",
"782 0 LINE",
"609 0 LINE",
"521 378 LINE",
"487 531 LINE",
"484 531 LINE",
"449 378 LINE",
"361 0 LINE"
);
}
);
width = 973;
}
);
leftKerningGroup = W;
rightKerningGroup = W;
unicode = 0057;
},
{
glyphname = X;
layers = (
{
layerId = "78D56DC8-6A23-4C9F-B1C5-F953A445AE64";
name = Bold;
paths = (
{
closed = 1;
nodes = (
"657 0 LINE",
"481 0 LINE",
"330 257 LINE",
"327 257 LINE",
"180 0 LINE",
"16 0 LINE",
"240 361 LINE",
"27 698 LINE",
"204 698 LINE",
"340 462 LINE",
"343 462 LINE",
"481 698 LINE",
"645 698 LINE",
"430 358 LINE"
);
}
);
width = 673;
}
);
leftKerningGroup = X;
rightKerningGroup = X;
unicode = 0058;
},
{
glyphname = Y;
layers = (
{
layerId = "78D56DC8-6A23-4C9F-B1C5-F953A445AE64";
name = Bold;
paths = (
{
closed = 1;
nodes = (
"248 0 LINE",
"248 273 LINE",
"9 698 LINE",
"179 698 LINE",
"329 420 LINE",
"331 420 LINE",
"475 698 LINE",
"640 698 LINE",
"401 274 LINE",
"401 0 LINE"
);
}
);
width = 649;
}
);
leftKerningGroup = Y;
rightKerningGroup = Y;
unicode = 0059;
},
{
glyphname = Z;
layers = (
{
layerId = "78D56DC8-6A23-4C9F-B1C5-F953A445AE64";
name = Bold;
paths = (
{
closed = 1;
nodes = (
"568 0 LINE",
"39 0 LINE",
"39 135 LINE",
"384 564 LINE",
"56 564 LINE",
"56 698 LINE",
"560 698 LINE",
"560 563 LINE",
"214 134 LINE",
"568 134 LINE"
);
}
);
width = 607;
}
);
leftKerningGroup = Z;
rightKerningGroup = Z;
unicode = 005A;
},
{
glyphname = zero;
layers = (
{
layerId = "78D56DC8-6A23-4C9F-B1C5-F953A445AE64";
name = Bold;
paths = (
{
closed = 1;
nodes = (
"117 -12 OFFCURVE",
"31 121 OFFCURVE",
"31 349 CURVE SMOOTH",
"31 577 OFFCURVE",
"117 710 OFFCURVE",
"300 710 CURVE SMOOTH",
"483 710 OFFCURVE",
"569 577 OFFCURVE",
"569 349 CURVE SMOOTH",
"569 121 OFFCURVE",
"483 -12 OFFCURVE",
"300 -12 CURVE SMOOTH"
);
},
{
closed = 1;
nodes = (
"380 115 OFFCURVE",
"406 176 OFFCURVE",
"406 283 CURVE SMOOTH",
"406 415 LINE SMOOTH",
"406 522 OFFCURVE",
"380 583 OFFCURVE",
"300 583 CURVE SMOOTH",
"220 583 OFFCURVE",
"194 522 OFFCURVE",
"194 415 CURVE SMOOTH",
"194 283 LINE SMOOTH",
"194 176 OFFCURVE",
"220 115 OFFCURVE",
"300 115 CURVE SMOOTH"
);
}
);
width = 600;
}
);
unicode = 0030;
},
{
glyphname = one;
lastChange = "2018-11-04 17:13:06 +0000";
layers = (
{
layerId = "78D56DC8-6A23-4C9F-B1C5-F953A445AE64";
name = Bold;
paths = (
{
closed = 1;
nodes = (
"49 619 LINE",
"49 479 LINE",
"199 561 LINE",
"199 0 LINE",
"348 0 LINE",
"348 698 LINE",
"191 698 LINE"
);
}
);
width = 450;
}
);
unicode = 0031;
},
{
glyphname = two;
layers = (
{
layerId = "78D56DC8-6A23-4C9F-B1C5-F953A445AE64";
name = Bold;
paths = (
{
closed = 1;
nodes = (
"551 0 LINE",
"57 0 LINE",
"57 137 LINE",
"272 321 LINE SMOOTH",
"311 354 OFFCURVE",
"337 381 OFFCURVE",
"354 407 CURVE SMOOTH",
"370 433 OFFCURVE",
"377 457 OFFCURVE",
"377 486 CURVE SMOOTH",
"377 500 LINE SMOOTH",
"377 527 OFFCURVE",
"365 547 OFFCURVE",
"348 560 CURVE SMOOTH",
"331 573 OFFCURVE",
"308 580 OFFCURVE",
"285 580 CURVE SMOOTH",
"252 580 OFFCURVE",
"228 569 OFFCURVE",
"210 551 CURVE SMOOTH",
"192 533 OFFCURVE",
"180 509 OFFCURVE",
"173 482 CURVE",
"42 532 LINE",
"58 580 OFFCURVE",
"86 625 OFFCURVE",
"128 658 CURVE SMOOTH",
"170 690 OFFCURVE",
"227 710 OFFCURVE",
"299 710 CURVE SMOOTH",
"375 710 OFFCURVE",
"434 687 OFFCURVE",
"475 650 CURVE SMOOTH",
"515 613 OFFCURVE",
"537 560 OFFCURVE",
"537 500 CURVE SMOOTH",
"537 440 OFFCURVE",
"516 392 OFFCURVE",
"482 349 CURVE SMOOTH",
"448 305 OFFCURVE",
"400 268 OFFCURVE",
"351 228 CURVE SMOOTH",
"221 126 LINE",
"551 126 LINE"
);
}
);
width = 600;
}
);
unicode = 0032;
},
{
glyphname = three;
layers = (
{
layerId = "78D56DC8-6A23-4C9F-B1C5-F953A445AE64";
name = Bold;
paths = (
{
closed = 1;
nodes = (
"262 422 LINE SMOOTH",
"337 422 OFFCURVE",
"369 454 OFFCURVE",
"369 497 CURVE SMOOTH",
"369 504 LINE SMOOTH",
"369 555 OFFCURVE",
"335 588 OFFCURVE",
"275 588 CURVE SMOOTH",
"219 588 OFFCURVE",
"168 558 OFFCURVE",
"133 505 CURVE",
"39 593 LINE",
"66 628 OFFCURVE",
"95 657 OFFCURVE",
"134 678 CURVE SMOOTH",
"173 698 OFFCURVE",
"220 710 OFFCURVE",
"280 710 CURVE SMOOTH",
"355 710 OFFCURVE",
"416 692 OFFCURVE",
"460 660 CURVE SMOOTH",
"503 627 OFFCURVE",
"527 581 OFFCURVE",
"527 525 CURVE SMOOTH",
"527 481 OFFCURVE",
"512 445 OFFCURVE",
"488 418 CURVE SMOOTH",
"463 391 OFFCURVE",
"430 375 OFFCURVE",
"394 368 CURVE",
"394 362 LINE",
"435 354 OFFCURVE",
"472 336 OFFCURVE",
"498 308 CURVE SMOOTH",
"524 280 OFFCURVE",
"539 242 OFFCURVE",
"539 194 CURVE SMOOTH",
"539 131 OFFCURVE",
"513 80 OFFCURVE",
"466 44 CURVE SMOOTH",
"419 8 OFFCURVE",
"353 -12 OFFCURVE",
"274 -12 CURVE SMOOTH",
"203 -12 OFFCURVE",
"149 4 OFFCURVE",
"109 29 CURVE SMOOTH",
"68 53 OFFCURVE",
"39 86 OFFCURVE",
"16 122 CURVE",
"127 208 LINE",
"158 151 OFFCURVE",
"198 110 OFFCURVE",
"274 110 CURVE SMOOTH",
"342 110 OFFCURVE",
"382 146 OFFCURVE",
"382 205 CURVE SMOOTH",
"382 211 LINE SMOOTH",
"382 268 OFFCURVE",
"336 297 OFFCURVE",
"260 297 CURVE SMOOTH",
"197 297 LINE",
"197 422 LINE"
);
}
);
width = 600;
}
);
unicode = 0033;
},
{
glyphname = four;
lastChange = "2018-11-02 04:53:15 +0000";
layers = (
{
layerId = "78D56DC8-6A23-4C9F-B1C5-F953A445AE64";
name = Bold;
paths = (
{
closed = 1;
nodes = (
"337 0 LINE",
"337 134 LINE",
"30 134 LINE",
"30 262 LINE",
"302 698 LINE",
"480 698 LINE",
"480 250 LINE",
"568 250 LINE",
"568 134 LINE",
"480 134 LINE",
"480 0 LINE"
);
},
{
closed = 1;
nodes = (
"150 250 LINE",
"337 250 LINE",
"337 543 LINE",
"327 543 LINE"
);
}
);
width = 600;
}
);
unicode = 0034;
},
{
glyphname = five;
layers = (
{
layerId = "78D56DC8-6A23-4C9F-B1C5-F953A445AE64";
name = Bold;
paths = (
{
closed = 1;
nodes = (
"522 567 LINE",
"205 567 LINE",
"190 346 LINE",
"198 346 LINE",
"211 379 OFFCURVE",
"227 407 OFFCURVE",
"250 427 CURVE SMOOTH",
"273 446 OFFCURVE",
"304 457 OFFCURVE",
"348 457 CURVE SMOOTH",
"408 457 OFFCURVE",
"461 437 OFFCURVE",
"500 399 CURVE SMOOTH",
"539 361 OFFCURVE",
"563 304 OFFCURVE",
"563 235 CURVE SMOOTH",
"563 164 OFFCURVE",
"540 102 OFFCURVE",
"494 58 CURVE SMOOTH",
"448 14 OFFCURVE",
"380 -12 OFFCURVE",
"295 -12 CURVE SMOOTH",
"227 -12 OFFCURVE",
"176 4 OFFCURVE",
"136 29 CURVE SMOOTH",
"96 53 OFFCURVE",
"67 86 OFFCURVE",
"46 122 CURVE",
"155 208 LINE",
"186 153 OFFCURVE",
"224 110 OFFCURVE",
"296 110 CURVE SMOOTH",
"368 110 OFFCURVE",
"405 155 OFFCURVE",
"405 223 CURVE SMOOTH",
"405 231 LINE SMOOTH",
"405 295 OFFCURVE",
"365 335 OFFCURVE",
"300 335 CURVE SMOOTH",
"245 335 OFFCURVE",
"211 307 OFFCURVE",
"192 286 CURVE",
"69 303 LINE",
"95 698 LINE",
"522 698 LINE"
);
}
);
width = 600;
}
);
unicode = 0035;
},
{
glyphname = six;
layers = (
{
layerId = "78D56DC8-6A23-4C9F-B1C5-F953A445AE64";
name = Bold;
paths = (
{
closed = 1;
nodes = (
"221 -12 OFFCURVE",
"155 15 OFFCURVE",
"111 64 CURVE SMOOTH",
"66 112 OFFCURVE",
"42 181 OFFCURVE",
"42 265 CURVE SMOOTH",
"42 362 OFFCURVE",
"75 451 OFFCURVE",
"123 525 CURVE SMOOTH",
"170 599 OFFCURVE",
"232 658 OFFCURVE",
"292 698 CURVE",
"499 698 LINE",
"414 637 OFFCURVE",
"346 583 OFFCURVE",
"296 527 CURVE SMOOTH",
"246 471 OFFCURVE",
"212 415 OFFCURVE",
"199 348 CURVE",
"208 345 LINE",
"220 372 OFFCURVE",
"236 398 OFFCURVE",
"261 418 CURVE SMOOTH",
"285 437 OFFCURVE",
"318 450 OFFCURVE",
"362 450 CURVE SMOOTH",
"419 450 OFFCURVE",
"471 428 OFFCURVE",
"508 391 CURVE SMOOTH",
"544 354 OFFCURVE",
"566 298 OFFCURVE",
"566 233 CURVE SMOOTH",
"566 161 OFFCURVE",
"541 100 OFFCURVE",
"495 57 CURVE SMOOTH",
"449 13 OFFCURVE",
"384 -12 OFFCURVE",
"304 -12 CURVE SMOOTH"
);
},
{
closed = 1;
nodes = (
"371 105 OFFCURVE",
"410 143 OFFCURVE",
"410 211 CURVE SMOOTH",
"410 229 LINE SMOOTH",
"410 297 OFFCURVE",
"371 335 OFFCURVE",
"304 335 CURVE SMOOTH",
"237 335 OFFCURVE",
"198 297 OFFCURVE",
"198 229 CURVE SMOOTH",
"198 211 LINE SMOOTH",
"198 143 OFFCURVE",
"237 105 OFFCURVE",
"304 105 CURVE SMOOTH"
);
}
);
width = 600;
}
);
unicode = 0036;
},
{
glyphname = seven;
lastChange = "2018-11-02 04:47:24 +0000";
layers = (
{
layerId = "78D56DC8-6A23-4C9F-B1C5-F953A445AE64";
name = Bold;
paths = (
{
closed = 1;
nodes = (
"55 576 LINE",
"400 576 LINE",
"166 0 LINE",
"324 0 LINE",
"549 568 LINE",
"549 698 LINE",
"55 698 LINE"
);
}
);
width = 600;
}
);
unicode = 0037;
},
{
glyphname = eight;
layers = (
{
layerId = "78D56DC8-6A23-4C9F-B1C5-F953A445AE64";
name = Bold;
paths = (
{
closed = 1;
nodes = (
"217 -12 OFFCURVE",
"152 10 OFFCURVE",
"108 46 CURVE SMOOTH",
"64 82 OFFCURVE",
"40 132 OFFCURVE",
"40 191 CURVE SMOOTH",
"40 280 OFFCURVE",
"93 337 OFFCURVE",
"177 360 CURVE",
"177 368 LINE",
"109 393 OFFCURVE",
"61 445 OFFCURVE",
"61 526 CURVE SMOOTH",
"61 579 OFFCURVE",
"82 626 OFFCURVE",
"123 659 CURVE SMOOTH",
"163 691 OFFCURVE",
"223 710 OFFCURVE",
"300 710 CURVE SMOOTH",
"377 710 OFFCURVE",
"437 691 OFFCURVE",
"478 659 CURVE SMOOTH",
"518 626 OFFCURVE",
"539 579 OFFCURVE",
"539 526 CURVE SMOOTH",
"539 445 OFFCURVE",
"491 393 OFFCURVE",
"423 368 CURVE",
"423 360 LINE",
"507 337 OFFCURVE",
"560 280 OFFCURVE",
"560 191 CURVE SMOOTH",
"560 132 OFFCURVE",
"536 82 OFFCURVE",
"492 46 CURVE SMOOTH",
"448 10 OFFCURVE",
"383 -12 OFFCURVE",
"300 -12 CURVE SMOOTH"
);
},
{
closed = 1;
nodes = (
"367 103 OFFCURVE",
"403 136 OFFCURVE",
"403 192 CURVE SMOOTH",
"403 212 LINE SMOOTH",
"403 268 OFFCURVE",
"367 301 OFFCURVE",
"300 301 CURVE SMOOTH",
"233 301 OFFCURVE",
"197 268 OFFCURVE",
"197 212 CURVE SMOOTH",
"197 192 LINE SMOOTH",
"197 136 OFFCURVE",
"233 103 OFFCURVE",
"300 103 CURVE SMOOTH"
);
},
{
closed = 1;
nodes = (
"364 411 OFFCURVE",
"398 443 OFFCURVE",
"398 495 CURVE SMOOTH",
"398 511 LINE SMOOTH",
"398 563 OFFCURVE",
"364 595 OFFCURVE",
"300 595 CURVE SMOOTH",
"236 595 OFFCURVE",
"202 563 OFFCURVE",
"202 511 CURVE SMOOTH",
"202 495 LINE SMOOTH",
"202 443 OFFCURVE",
"236 411 OFFCURVE",
"300 411 CURVE SMOOTH"
);
}
);
width = 600;
}
);
unicode = 0038;
},
{
glyphname = nine;
layers = (
{
layerId = "78D56DC8-6A23-4C9F-B1C5-F953A445AE64";
name = Bold;
paths = (
{
closed = 1;
nodes = (
"558 334 OFFCURVE",
"525 248 OFFCURVE",
"478 174 CURVE SMOOTH",
"430 100 OFFCURVE",
"368 40 OFFCURVE",
"308 0 CURVE",
"101 0 LINE",
"186 61 OFFCURVE",
"255 115 OFFCURVE",
"305 171 CURVE SMOOTH",
"355 227 OFFCURVE",
"386 283 OFFCURVE",
"401 350 CURVE",
"392 353 LINE",
"380 326 OFFCURVE",
"364 300 OFFCURVE",
"340 281 CURVE SMOOTH",
"315 261 OFFCURVE",
"282 248 OFFCURVE",
"238 248 CURVE SMOOTH",
"181 248 OFFCURVE",
"129 270 OFFCURVE",
"93 307 CURVE SMOOTH",
"56 344 OFFCURVE",
"34 398 OFFCURVE",
"34 465 CURVE SMOOTH",
"34 537 OFFCURVE",
"60 598 OFFCURVE",
"106 642 CURVE SMOOTH",
"152 685 OFFCURVE",
"216 710 OFFCURVE",
"296 710 CURVE SMOOTH",
"379 710 OFFCURVE",
"445 683 OFFCURVE",
"490 635 CURVE SMOOTH",
"534 586 OFFCURVE",
"558 517 OFFCURVE",
"558 433 CURVE SMOOTH"
);
},
{
closed = 1;
nodes = (
"363 363 OFFCURVE",
"402 401 OFFCURVE",
"402 469 CURVE SMOOTH",
"402 487 LINE SMOOTH",
"402 555 OFFCURVE",
"363 593 OFFCURVE",
"296 593 CURVE SMOOTH",
"229 593 OFFCURVE",
"190 555 OFFCURVE",
"190 487 CURVE SMOOTH",
"190 469 LINE SMOOTH",
"190 401 OFFCURVE",
"229 363 OFFCURVE",
"296 363 CURVE SMOOTH"
);
}
);
width = 600;
}
);
unicode = 0039;
},
{
glyphname = ampersand;
layers = (
{
layerId = "78D56DC8-6A23-4C9F-B1C5-F953A445AE64";
name = Bold;
paths = (
{
closed = 1;
nodes = (
"487 57 LINE",
"443 21 OFFCURVE",
"384 -12 OFFCURVE",
"287 -12 CURVE SMOOTH",
"210 -12 OFFCURVE",
"151 8 OFFCURVE",
"111 44 CURVE SMOOTH",
"71 79 OFFCURVE",
"50 127 OFFCURVE",
"50 183 CURVE SMOOTH",
"50 231 OFFCURVE",
"65 267 OFFCURVE",
"90 298 CURVE SMOOTH",
"114 329 OFFCURVE",
"150 353 OFFCURVE",
"190 377 CURVE",
"170 398 OFFCURVE",
"151 424 OFFCURVE",
"136 452 CURVE SMOOTH",
"121 480 OFFCURVE",
"112 511 OFFCURVE",
"112 543 CURVE SMOOTH",
"112 588 OFFCURVE",
"132 630 OFFCURVE",
"169 661 CURVE SMOOTH",
"205 692 OFFCURVE",
"257 710 OFFCURVE",
"321 710 CURVE SMOOTH",
"378 710 OFFCURVE",
"428 696 OFFCURVE",
"464 669 CURVE SMOOTH",
"500 641 OFFCURVE",
"522 601 OFFCURVE",
"522 550 CURVE SMOOTH",
"522 506 OFFCURVE",
"506 471 OFFCURVE",
"481 441 CURVE SMOOTH",
"456 411 OFFCURVE",
"420 386 OFFCURVE",
"383 363 CURVE",
"491 246 LINE",
"508 289 OFFCURVE",
"517 338 OFFCURVE",
"520 385 CURVE",
"687 385 LINE",
"687 262 LINE",
"624 262 LINE",
"613 219 OFFCURVE",
"598 182 OFFCURVE",
"579 151 CURVE",
"718 0 LINE",
"539 0 LINE"
);
},
{
closed = 1;
nodes = (
"281 597 OFFCURVE",
"253 576 OFFCURVE",
"253 540 CURVE SMOOTH",
"253 536 LINE SMOOTH",
"253 509 OFFCURVE",
"269 489 OFFCURVE",
"310 442 CURVE",
"357 470 OFFCURVE",
"381 496 OFFCURVE",
"381 536 CURVE SMOOTH",
"381 540 LINE SMOOTH",
"381 576 OFFCURVE",
"353 597 OFFCURVE",
"317 597 CURVE SMOOTH"
);
},
{
closed = 1;
nodes = (
"348 111 OFFCURVE",
"382 120 OFFCURVE",
"410 139 CURVE",
"263 298 LINE",
"218 271 OFFCURVE",
"201 245 OFFCURVE",
"201 209 CURVE SMOOTH",
"201 199 LINE SMOOTH",
"201 148 OFFCURVE",
"237 111 OFFCURVE",
"309 111 CURVE SMOOTH"
);
}
);
width = 721;
}
);
leftKerningGroup = ampersand;
rightKerningGroup = ampersand;
unicode = 0026;
},
{
glyphname = at;
layers = (
{
layerId = "78D56DC8-6A23-4C9F-B1C5-F953A445AE64";
name = Bold;
paths = (
{
closed = 1;
nodes = (
"672 -121 LINE",
"462 -121 LINE SMOOTH",
"335 -121 OFFCURVE",
"235 -79 OFFCURVE",
"167 -6 CURVE SMOOTH",
"98 66 OFFCURVE",
"61 168 OFFCURVE",
"61 291 CURVE SMOOTH",
"61 412 OFFCURVE",
"100 518 OFFCURVE",
"169 592 CURVE SMOOTH",
"238 666 OFFCURVE",
"338 709 OFFCURVE",
"462 709 CURVE SMOOTH",
"577 709 OFFCURVE",
"673 672 OFFCURVE",
"741 608 CURVE SMOOTH",
"808 543 OFFCURVE",
"846 448 OFFCURVE",
"846 335 CURVE SMOOTH",
"846 175 OFFCURVE",
"774 82 OFFCURVE",
"659 82 CURVE SMOOTH",
"587 82 OFFCURVE",
"538 120 OFFCURVE",
"534 176 CURVE",
"529 176 LINE",
"516 120 OFFCURVE",
"481 84 OFFCURVE",
"414 84 CURVE SMOOTH",
"326 84 OFFCURVE",
"260 155 OFFCURVE",
"260 291 CURVE SMOOTH",
"260 427 OFFCURVE",
"326 498 OFFCURVE",
"414 498 CURVE SMOOTH",
"470 498 OFFCURVE",
"505 464 OFFCURVE",
"517 420 CURVE",
"522 420 LINE",
"522 489 LINE",
"633 489 LINE",
"633 220 LINE SMOOTH",
"633 187 OFFCURVE",
"648 170 OFFCURVE",
"677 170 CURVE SMOOTH",
"700 170 OFFCURVE",
"718 182 OFFCURVE",
"732 207 CURVE SMOOTH",
"746 231 OFFCURVE",
"753 269 OFFCURVE",
"753 320 CURVE SMOOTH",
"753 348 LINE SMOOTH",
"753 433 OFFCURVE",
"723 502 OFFCURVE",
"672 549 CURVE SMOOTH",
"620 596 OFFCURVE",
"547 622 OFFCURVE",
"462 622 CURVE SMOOTH",
"367 622 OFFCURVE",
"292 590 OFFCURVE",
"238 535 CURVE SMOOTH",
"184 479 OFFCURVE",
"154 401 OFFCURVE",
"154 310 CURVE SMOOTH",
"154 272 LINE SMOOTH",
"154 181 OFFCURVE",
"184 104 OFFCURVE",
"238 51 CURVE SMOOTH",
"292 -2 OFFCURVE",
"367 -33 OFFCURVE",
"462 -33 CURVE SMOOTH",
"672 -33 LINE"
);
},
{
closed = 1;
nodes = (
"490 175 OFFCURVE",
"522 206 OFFCURVE",
"522 237 CURVE SMOOTH",
"522 353 LINE SMOOTH",
"522 384 OFFCURVE",
"490 407 OFFCURVE",
"455 407 CURVE SMOOTH",
"407 407 OFFCURVE",
"376 373 OFFCURVE",
"376 325 CURVE SMOOTH",
"376 257 LINE SMOOTH",
"376 209 OFFCURVE",
"407 175 OFFCURVE",
"455 175 CURVE SMOOTH"
);
}
);
width = 903;
}
);
leftKerningGroup = at;
rightKerningGroup = at;
unicode = 0040;
},
{
glyphname = hyphen;
layers = (
{
layerId = "78D56DC8-6A23-4C9F-B1C5-F953A445AE64";
name = Bold;
paths = (
{
closed = 1;
nodes = (
"53 233 LINE",
"53 377 LINE",
"350 377 LINE",
"350 233 LINE"
);
}
);
width = 403;
}
);
leftKerningGroup = hyphen;
rightKerningGroup = hyphen;
unicode = 002D;
},
{
glyphname = uni00AD;
layers = (
{
layerId = "78D56DC8-6A23-4C9F-B1C5-F953A445AE64";
name = Bold;
paths = (
{
closed = 1;
nodes = (
"53 233 LINE",
"53 377 LINE",
"350 377 LINE",
"350 233 LINE"
);
}
);
width = 403;
}
);
leftKerningGroup = hyphen;
rightKerningGroup = hyphen;
unicode = 00AD;
},
{
glyphname = endash;
layers = (
{
layerId = "78D56DC8-6A23-4C9F-B1C5-F953A445AE64";
name = Bold;
paths = (
{
closed = 1;
nodes = (
"36 244 LINE",
"36 364 LINE",
"552 364 LINE",
"552 244 LINE"
);
}
);
width = 588;
}
);
leftKerningGroup = hyphen;
rightKerningGroup = hyphen;
unicode = 2013;
},
{
glyphname = emdash;
layers = (
{
layerId = "78D56DC8-6A23-4C9F-B1C5-F953A445AE64";
name = Bold;
paths = (
{
closed = 1;
nodes = (
"36 244 LINE",
"36 364 LINE",
"744 364 LINE",
"744 244 LINE"
);
}
);
width = 780;
}
);
leftKerningGroup = hyphen;
rightKerningGroup = hyphen;
unicode = 2014;
},
{
glyphname = underscore;
layers = (
{
layerId = "78D56DC8-6A23-4C9F-B1C5-F953A445AE64";
name = Bold;
paths = (
{
closed = 1;
nodes = (
"30 -190 LINE",
"30 -67 LINE",
"526 -67 LINE",
"526 -190 LINE"
);
}
);
width = 556;
}
);
leftKerningGroup = underscore;
rightKerningGroup = underscore;
unicode = 005F;
},
{
glyphname = period;
layers = (
{
layerId = "78D56DC8-6A23-4C9F-B1C5-F953A445AE64";
name = Bold;
paths = (
{
closed = 1;
nodes = (
"95 -11 OFFCURVE",
"67 22 OFFCURVE",
"67 69 CURVE SMOOTH",
"67 89 LINE SMOOTH",
"67 136 OFFCURVE",
"95 169 OFFCURVE",
"155 169 CURVE SMOOTH",
"215 169 OFFCURVE",
"243 136 OFFCURVE",
"243 89 CURVE SMOOTH",
"243 69 LINE SMOOTH",
"243 22 OFFCURVE",
"215 -11 OFFCURVE",
"155 -11 CURVE SMOOTH"
);
}
);
width = 310;
}
);
leftKerningGroup = period;
rightKerningGroup = period;
unicode = 002E;
},
{
glyphname = ellipsis;
layers = (
{
layerId = "78D56DC8-6A23-4C9F-B1C5-F953A445AE64";
name = Bold;
paths = (
{
closed = 1;
nodes = (
"95 -11 OFFCURVE",
"67 22 OFFCURVE",
"67 69 CURVE SMOOTH",
"67 89 LINE SMOOTH",
"67 136 OFFCURVE",
"95 169 OFFCURVE",
"155 169 CURVE SMOOTH",
"215 169 OFFCURVE",
"243 136 OFFCURVE",
"243 89 CURVE SMOOTH",
"243 69 LINE SMOOTH",
"243 22 OFFCURVE",
"215 -11 OFFCURVE",
"155 -11 CURVE SMOOTH"
);
},
{
closed = 1;
nodes = (
"388 -11 OFFCURVE",
"360 22 OFFCURVE",
"360 69 CURVE SMOOTH",
"360 89 LINE SMOOTH",
"360 136 OFFCURVE",
"388 169 OFFCURVE",
"448 169 CURVE SMOOTH",
"508 169 OFFCURVE",
"536 136 OFFCURVE",
"536 89 CURVE SMOOTH",
"536 69 LINE SMOOTH",
"536 22 OFFCURVE",
"508 -11 OFFCURVE",
"448 -11 CURVE SMOOTH"
);
},
{
closed = 1;
nodes = (
"682 -11 OFFCURVE",
"654 22 OFFCURVE",
"654 69 CURVE SMOOTH",
"654 89 LINE SMOOTH",
"654 136 OFFCURVE",
"682 169 OFFCURVE",
"742 169 CURVE SMOOTH",
"802 169 OFFCURVE",
"830 136 OFFCURVE",
"830 89 CURVE SMOOTH",
"830 69 LINE SMOOTH",
"830 22 OFFCURVE",
"802 -11 OFFCURVE",
"742 -11 CURVE SMOOTH"
);
}
);
width = 897;
}
);
leftKerningGroup = period;
rightKerningGroup = period;
unicode = 2026;
},
{
glyphname = colon;
layers = (
{
layerId = "78D56DC8-6A23-4C9F-B1C5-F953A445AE64";
name = Bold;
paths = (
{
closed = 1;
nodes = (
"105 -11 OFFCURVE",
"77 22 OFFCURVE",
"77 69 CURVE SMOOTH",
"77 89 LINE SMOOTH",
"77 136 OFFCURVE",
"105 169 OFFCURVE",
"165 169 CURVE SMOOTH",
"225 169 OFFCURVE",
"253 136 OFFCURVE",
"253 89 CURVE SMOOTH",
"253 69 LINE SMOOTH",
"253 22 OFFCURVE",
"225 -11 OFFCURVE",
"165 -11 CURVE SMOOTH"
);
},
{
closed = 1;
nodes = (
"105 355 OFFCURVE",
"77 388 OFFCURVE",
"77 435 CURVE SMOOTH",
"77 455 LINE SMOOTH",
"77 502 OFFCURVE",
"105 535 OFFCURVE",
"165 535 CURVE SMOOTH",
"225 535 OFFCURVE",
"253 502 OFFCURVE",
"253 455 CURVE SMOOTH",
"253 435 LINE SMOOTH",
"253 388 OFFCURVE",
"225 355 OFFCURVE",
"165 355 CURVE SMOOTH"
);
}
);
width = 330;
}
);
leftKerningGroup = colon;
unicode = 003A;
},
{
glyphname = comma;
layers = (
{
layerId = "78D56DC8-6A23-4C9F-B1C5-F953A445AE64";
name = Bold;
paths = (
{
closed = 1;
nodes = (
"217 169 OFFCURVE",
"245 136 OFFCURVE",
"245 89 CURVE SMOOTH",
"245 69 LINE SMOOTH",
"245 -12 OFFCURVE",
"202 -98 OFFCURVE",
"138 -147 CURVE",
"38 -147 LINE",
"85 -103 OFFCURVE",
"119 -62 OFFCURVE",
"136 -9 CURVE",
"89 -1 OFFCURVE",
"69 30 OFFCURVE",
"69 69 CURVE SMOOTH",
"69 89 LINE SMOOTH",
"69 136 OFFCURVE",
"97 169 OFFCURVE",
"157 169 CURVE SMOOTH"
);
}
);
width = 310;
}
);
leftKerningGroup = period;
rightKerningGroup = period;
unicode = 002C;
},
{
glyphname = semicolon;
layers = (
{
layerId = "78D56DC8-6A23-4C9F-B1C5-F953A445AE64";
name = Bold;
paths = (
{
closed = 1;
nodes = (
"225 169 OFFCURVE",
"253 136 OFFCURVE",
"253 89 CURVE SMOOTH",
"253 69 LINE SMOOTH",
"253 -12 OFFCURVE",
"210 -98 OFFCURVE",
"146 -147 CURVE",
"46 -147 LINE",
"93 -103 OFFCURVE",
"127 -62 OFFCURVE",
"144 -9 CURVE",
"97 -1 OFFCURVE",
"77 30 OFFCURVE",
"77 69 CURVE SMOOTH",
"77 89 LINE SMOOTH",
"77 136 OFFCURVE",
"105 169 OFFCURVE",
"165 169 CURVE SMOOTH"
);
},
{
closed = 1;
nodes = (
"104 355 OFFCURVE",
"76 388 OFFCURVE",
"76 435 CURVE SMOOTH",
"76 455 LINE SMOOTH",
"76 502 OFFCURVE",
"104 535 OFFCURVE",
"164 535 CURVE SMOOTH",
"224 535 OFFCURVE",
"252 502 OFFCURVE",
"252 455 CURVE SMOOTH",
"252 435 LINE SMOOTH",
"252 388 OFFCURVE",
"224 355 OFFCURVE",
"164 355 CURVE SMOOTH"
);
}
);
width = 330;
}
);
leftKerningGroup = colon;
unicode = 003B;
},
{
glyphname = quotesingle;
layers = (
{
layerId = "78D56DC8-6A23-4C9F-B1C5-F953A445AE64";
name = Bold;
paths = (
{
closed = 1;
nodes = (
"68 414 LINE",
"68 740 LINE",
"200 740 LINE",
"200 414 LINE"
);
}
);
width = 268;
}
);
leftKerningGroup = quotesingle;
rightKerningGroup = quotesingle;
unicode = 0027;
},
{
glyphname = quotedbl;
layers = (
{
layerId = "78D56DC8-6A23-4C9F-B1C5-F953A445AE64";
name = Bold;
paths = (
{
closed = 1;
nodes = (
"68 414 LINE",
"68 740 LINE",
"200 740 LINE",
"200 414 LINE"
);
},
{
closed = 1;
nodes = (
"293 414 LINE",
"293 740 LINE",
"425 740 LINE",
"425 414 LINE"
);
}
);
width = 493;
}
);
leftKerningGroup = quotesingle;
rightKerningGroup = quotesingle;
unicode = 0022;
},
{
glyphname = quoteleft;
layers = (
{
layerId = "78D56DC8-6A23-4C9F-B1C5-F953A445AE64";
name = Bold;
paths = (
{
closed = 1;
nodes = (
"88 440 OFFCURVE",
"62 471 OFFCURVE",
"62 512 CURVE SMOOTH",
"62 533 LINE SMOOTH",
"62 572 OFFCURVE",
"74 612 OFFCURVE",
"94 648 CURVE SMOOTH",
"113 684 OFFCURVE",
"140 716 OFFCURVE",
"171 740 CURVE",
"264 740 LINE",
"220 700 OFFCURVE",
"188 661 OFFCURVE",
"172 610 CURVE",
"215 602 OFFCURVE",
"234 572 OFFCURVE",
"234 537 CURVE SMOOTH",
"234 512 LINE SMOOTH",
"234 471 OFFCURVE",
"208 440 OFFCURVE",
"148 440 CURVE SMOOTH"
);
}
);
width = 300;
}
);
leftKerningGroup = quoteleft;
rightKerningGroup = quoteleft;
unicode = 2018;
},
{
glyphname = quoteright;
layers = (
{
layerId = "78D56DC8-6A23-4C9F-B1C5-F953A445AE64";
name = Bold;
paths = (
{
closed = 1;
nodes = (
"212 750 OFFCURVE",
"238 719 OFFCURVE",
"238 678 CURVE SMOOTH",
"238 657 LINE SMOOTH",
"238 618 OFFCURVE",
"226 578 OFFCURVE",
"207 542 CURVE SMOOTH",
"187 506 OFFCURVE",
"160 474 OFFCURVE",
"129 450 CURVE",
"36 450 LINE",
"80 490 OFFCURVE",
"112 529 OFFCURVE",
"128 580 CURVE",
"85 588 OFFCURVE",
"66 618 OFFCURVE",
"66 653 CURVE SMOOTH",
"66 678 LINE SMOOTH",
"66 719 OFFCURVE",
"92 750 OFFCURVE",
"152 750 CURVE SMOOTH"
);
}
);
width = 300;
}
);
leftKerningGroup = quoteright;
rightKerningGroup = quoteright;
unicode = 2019;
},
{
glyphname = quotedblleft;
layers = (
{
layerId = "78D56DC8-6A23-4C9F-B1C5-F953A445AE64";
name = Bold;
paths = (
{
closed = 1;
nodes = (
"88 440 OFFCURVE",
"62 471 OFFCURVE",
"62 512 CURVE SMOOTH",
"62 533 LINE SMOOTH",
"62 572 OFFCURVE",
"74 612 OFFCURVE",
"94 648 CURVE SMOOTH",
"113 684 OFFCURVE",
"140 716 OFFCURVE",
"171 740 CURVE",
"264 740 LINE",
"220 700 OFFCURVE",
"188 661 OFFCURVE",
"172 610 CURVE",
"215 602 OFFCURVE",
"234 572 OFFCURVE",
"234 537 CURVE SMOOTH",
"234 512 LINE SMOOTH",
"234 471 OFFCURVE",
"208 440 OFFCURVE",
"148 440 CURVE SMOOTH"
);
},
{
closed = 1;
nodes = (
"323 440 OFFCURVE",
"297 471 OFFCURVE",
"297 512 CURVE SMOOTH",
"297 533 LINE SMOOTH",
"297 572 OFFCURVE",
"309 612 OFFCURVE",
"329 648 CURVE SMOOTH",
"348 684 OFFCURVE",
"375 716 OFFCURVE",
"406 740 CURVE",
"499 740 LINE",
"455 700 OFFCURVE",
"423 661 OFFCURVE",
"407 610 CURVE",
"450 602 OFFCURVE",
"469 572 OFFCURVE",
"469 537 CURVE SMOOTH",
"469 512 LINE SMOOTH",
"469 471 OFFCURVE",
"443 440 OFFCURVE",
"383 440 CURVE SMOOTH"
);
}
);
width = 535;
}
);
leftKerningGroup = quoteleft;
rightKerningGroup = quoteleft;
unicode = 201C;
},
{
glyphname = quotedblright;
layers = (
{
layerId = "78D56DC8-6A23-4C9F-B1C5-F953A445AE64";
name = Bold;
paths = (
{
closed = 1;
nodes = (
"212 750 OFFCURVE",
"238 719 OFFCURVE",
"238 678 CURVE SMOOTH",
"238 657 LINE SMOOTH",
"238 618 OFFCURVE",
"226 578 OFFCURVE",
"207 542 CURVE SMOOTH",
"187 506 OFFCURVE",
"160 474 OFFCURVE",
"129 450 CURVE",
"36 450 LINE",
"80 490 OFFCURVE",
"112 529 OFFCURVE",
"128 580 CURVE",
"85 588 OFFCURVE",
"66 618 OFFCURVE",
"66 653 CURVE SMOOTH",
"66 678 LINE SMOOTH",
"66 719 OFFCURVE",
"92 750 OFFCURVE",
"152 750 CURVE SMOOTH"
);
},
{
closed = 1;
nodes = (
"447 750 OFFCURVE",
"473 719 OFFCURVE",
"473 678 CURVE SMOOTH",
"473 657 LINE SMOOTH",
"473 618 OFFCURVE",
"461 578 OFFCURVE",
"442 542 CURVE SMOOTH",
"422 506 OFFCURVE",
"395 474 OFFCURVE",
"364 450 CURVE",
"271 450 LINE",
"315 490 OFFCURVE",
"347 529 OFFCURVE",
"363 580 CURVE",
"320 588 OFFCURVE",
"301 618 OFFCURVE",
"301 653 CURVE SMOOTH",
"301 678 LINE SMOOTH",
"301 719 OFFCURVE",
"327 750 OFFCURVE",
"387 750 CURVE SMOOTH"
);
}
);
width = 535;
}
);
leftKerningGroup = quoteright;
rightKerningGroup = quoteright;
unicode = 201D;
},
{
glyphname = quotesinglbase;
layers = (
{
layerId = "78D56DC8-6A23-4C9F-B1C5-F953A445AE64";
name = Bold;
paths = (
{
closed = 1;
nodes = (
"216 183 OFFCURVE",
"240 152 OFFCURVE",
"240 109 CURVE SMOOTH",
"240 87 LINE SMOOTH",
"240 48 OFFCURVE",
"229 9 OFFCURVE",
"210 -26 CURVE SMOOTH",
"190 -62 OFFCURVE",
"163 -93 OFFCURVE",
"134 -117 CURVE",
"38 -117 LINE",
"83 -77 OFFCURVE",
"116 -38 OFFCURVE",
"132 13 CURVE",
"88 21 OFFCURVE",
"70 52 OFFCURVE",
"70 87 CURVE SMOOTH",
"70 109 LINE SMOOTH",
"70 152 OFFCURVE",
"94 183 OFFCURVE",
"155 183 CURVE SMOOTH"
);
}
);
width = 304;
}
);
leftKerningGroup = period;
rightKerningGroup = period;
unicode = 201A;
},
{
glyphname = quotedblbase;
layers = (
{
layerId = "78D56DC8-6A23-4C9F-B1C5-F953A445AE64";
name = Bold;
paths = (
{
closed = 1;
nodes = (
"216 183 OFFCURVE",
"240 152 OFFCURVE",
"240 109 CURVE SMOOTH",
"240 87 LINE SMOOTH",
"240 48 OFFCURVE",
"229 9 OFFCURVE",
"210 -26 CURVE SMOOTH",
"190 -62 OFFCURVE",
"163 -93 OFFCURVE",
"134 -117 CURVE",
"38 -117 LINE",
"83 -77 OFFCURVE",
"116 -38 OFFCURVE",
"132 13 CURVE",
"88 21 OFFCURVE",
"70 52 OFFCURVE",
"70 87 CURVE SMOOTH",
"70 109 LINE SMOOTH",
"70 152 OFFCURVE",
"94 183 OFFCURVE",
"155 183 CURVE SMOOTH"
);
},
{
closed = 1;
nodes = (
"451 183 OFFCURVE",
"475 152 OFFCURVE",
"475 109 CURVE SMOOTH",
"475 87 LINE SMOOTH",
"475 48 OFFCURVE",
"464 9 OFFCURVE",
"445 -26 CURVE SMOOTH",
"425 -62 OFFCURVE",
"398 -93 OFFCURVE",
"369 -117 CURVE",
"273 -117 LINE",
"318 -77 OFFCURVE",
"351 -38 OFFCURVE",
"367 13 CURVE",
"323 21 OFFCURVE",
"305 52 OFFCURVE",
"305 87 CURVE SMOOTH",
"305 109 LINE SMOOTH",
"305 152 OFFCURVE",
"329 183 OFFCURVE",
"390 183 CURVE SMOOTH"
);
}
);
width = 539;
}
);
leftKerningGroup = period;
rightKerningGroup = period;
unicode = 201E;
},
{
glyphname = guilsinglleft;
layers = (
{
layerId = "78D56DC8-6A23-4C9F-B1C5-F953A445AE64";
name = Bold;
paths = (
{
closed = 1;
nodes = (
"224 49 LINE",
"38 209 LINE",
"38 335 LINE",
"224 495 LINE",
"267 403 LINE",
"147 272 LINE",
"267 141 LINE"
);
}
);
width = 317;
}
);
leftKerningGroup = guilsinglleft;
rightKerningGroup = guilsinglleft;
unicode = 2039;
},
{
glyphname = guilsinglright;
layers = (
{
layerId = "78D56DC8-6A23-4C9F-B1C5-F953A445AE64";
name = Bold;
paths = (
{
closed = 1;
nodes = (
"50 141 LINE",
"170 272 LINE",
"50 403 LINE",
"93 495 LINE",
"279 335 LINE",
"279 209 LINE",
"93 49 LINE"
);
}
);
width = 317;
}
);
leftKerningGroup = guilsinglright;
rightKerningGroup = guilsinglright;
unicode = 203A;
},
{
glyphname = guillemotleft;
layers = (
{
layerId = "78D56DC8-6A23-4C9F-B1C5-F953A445AE64";
name = Bold;
paths = (
{
closed = 1;
nodes = (
"224 49 LINE",
"38 209 LINE",
"38 335 LINE",
"224 495 LINE",
"267 403 LINE",
"147 272 LINE",
"267 141 LINE"
);
},
{
closed = 1;
nodes = (
"465 49 LINE",
"279 209 LINE",
"279 335 LINE",
"465 495 LINE",
"508 403 LINE",
"388 272 LINE",
"508 141 LINE"
);
}
);
width = 558;
}
);
leftKerningGroup = guilsinglleft;
rightKerningGroup = guilsinglleft;
unicode = 00AB;
},
{
glyphname = guillemotright;
layers = (
{
layerId = "78D56DC8-6A23-4C9F-B1C5-F953A445AE64";
name = Bold;
paths = (
{
closed = 1;
nodes = (
"50 141 LINE",
"170 272 LINE",
"50 403 LINE",
"93 495 LINE",
"279 335 LINE",
"279 209 LINE",
"93 49 LINE"
);
},
{
closed = 1;
nodes = (
"291 141 LINE",
"411 272 LINE",
"291 403 LINE",
"334 495 LINE",
"520 335 LINE",
"520 209 LINE",
"334 49 LINE"
);
}
);
width = 558;
}
);
leftKerningGroup = guilsinglright;
rightKerningGroup = guilsinglright;
unicode = 00BB;
},
{
glyphname = exclamdown;
layers = (
{
layerId = "78D56DC8-6A23-4C9F-B1C5-F953A445AE64";
name = Bold;
paths = (
{
closed = 1;
nodes = (
"82 -173 LINE",
"82 21 LINE",
"128 305 LINE",
"191 305 LINE",
"238 21 LINE",
"238 -173 LINE"
);
},
{
closed = 1;
nodes = (
"96 361 OFFCURVE",
"71 394 OFFCURVE",
"71 437 CURVE SMOOTH",
"71 461 LINE SMOOTH",
"71 504 OFFCURVE",
"96 537 OFFCURVE",
"160 537 CURVE SMOOTH",
"224 537 OFFCURVE",
"249 504 OFFCURVE",
"249 461 CURVE SMOOTH",
"249 437 LINE SMOOTH",
"249 394 OFFCURVE",
"224 361 OFFCURVE",
"160 361 CURVE SMOOTH"
);
}
);
width = 320;
}
);
rightKerningGroup = exclamdown;
unicode = 00A1;
},
{
glyphname = exclam;
layers = (
{
layerId = "78D56DC8-6A23-4C9F-B1C5-F953A445AE64";
name = Bold;
paths = (
{
closed = 1;
nodes = (
"130 220 LINE",
"83 504 LINE",
"83 698 LINE",
"239 698 LINE",
"239 504 LINE",
"193 220 LINE"
);
},
{
closed = 1;
nodes = (
"96 -12 OFFCURVE",
"71 21 OFFCURVE",
"71 64 CURVE SMOOTH",
"71 88 LINE SMOOTH",
"71 131 OFFCURVE",
"96 164 OFFCURVE",
"160 164 CURVE SMOOTH",
"224 164 OFFCURVE",
"249 131 OFFCURVE",
"249 88 CURVE SMOOTH",
"249 64 LINE SMOOTH",
"249 21 OFFCURVE",
"224 -12 OFFCURVE",
"160 -12 CURVE SMOOTH"
);
}
);
width = 320;
}
);
leftKerningGroup = exclam;
unicode = 0021;
},
{
glyphname = questiondown;
layers = (
{
layerId = "78D56DC8-6A23-4C9F-B1C5-F953A445AE64";
name = Bold;
paths = (
{
closed = 1;
nodes = (
"189 -185 OFFCURVE",
"132 -164 OFFCURVE",
"91 -128 CURVE SMOOTH",
"50 -92 OFFCURVE",
"27 -40 OFFCURVE",
"27 21 CURVE SMOOTH",
"27 77 OFFCURVE",
"47 123 OFFCURVE",
"79 157 CURVE SMOOTH",
"111 191 OFFCURVE",
"155 212 OFFCURVE",
"202 220 CURVE",
"202 292 LINE",
"342 292 LINE",
"342 139 LINE",
"237 135 OFFCURVE",
"184 108 OFFCURVE",
"184 33 CURVE SMOOTH",
"184 19 LINE SMOOTH",
"184 -32 OFFCURVE",
"217 -59 OFFCURVE",
"265 -59 CURVE SMOOTH",
"317 -59 OFFCURVE",
"352 -23 OFFCURVE",
"364 26 CURVE",
"486 -25 LINE",
"474 -65 OFFCURVE",
"452 -105 OFFCURVE",
"416 -135 CURVE SMOOTH",
"379 -165 OFFCURVE",
"328 -185 OFFCURVE",
"260 -185 CURVE SMOOTH"
);
},
{
closed = 1;
nodes = (
"206 361 OFFCURVE",
"181 394 OFFCURVE",
"181 437 CURVE SMOOTH",
"181 461 LINE SMOOTH",
"181 504 OFFCURVE",
"206 537 OFFCURVE",
"270 537 CURVE SMOOTH",
"334 537 OFFCURVE",
"359 504 OFFCURVE",
"359 461 CURVE SMOOTH",
"359 437 LINE SMOOTH",
"359 394 OFFCURVE",
"334 361 OFFCURVE",
"270 361 CURVE SMOOTH"
);
}
);
width = 494;
}
);
leftKerningGroup = questiondown;
rightKerningGroup = questiondown;
unicode = 00BF;
},
{
glyphname = question;
layers = (
{
layerId = "78D56DC8-6A23-4C9F-B1C5-F953A445AE64";
name = Bold;
paths = (
{
closed = 1;
nodes = (
"158 233 LINE",
"158 386 LINE",
"263 390 OFFCURVE",
"316 417 OFFCURVE",
"316 492 CURVE SMOOTH",
"316 506 LINE SMOOTH",
"316 557 OFFCURVE",
"283 584 OFFCURVE",
"235 584 CURVE SMOOTH",
"183 584 OFFCURVE",
"148 548 OFFCURVE",
"136 499 CURVE",
"14 550 LINE",
"26 590 OFFCURVE",
"48 630 OFFCURVE",
"85 660 CURVE SMOOTH",
"121 690 OFFCURVE",
"172 710 OFFCURVE",
"240 710 CURVE SMOOTH",
"309 710 OFFCURVE",
"368 689 OFFCURVE",
"409 653 CURVE SMOOTH",
"450 617 OFFCURVE",
"473 565 OFFCURVE",
"473 504 CURVE SMOOTH",
"473 448 OFFCURVE",
"453 403 OFFCURVE",
"421 369 CURVE SMOOTH",
"389 335 OFFCURVE",
"345 313 OFFCURVE",
"298 305 CURVE",
"298 233 LINE"
);
},
{
closed = 1;
nodes = (
"166 -12 OFFCURVE",
"141 21 OFFCURVE",
"141 64 CURVE SMOOTH",
"141 88 LINE SMOOTH",
"141 131 OFFCURVE",
"166 164 OFFCURVE",
"230 164 CURVE SMOOTH",
"294 164 OFFCURVE",
"319 131 OFFCURVE",
"319 88 CURVE SMOOTH",
"319 64 LINE SMOOTH",
"319 21 OFFCURVE",
"294 -12 OFFCURVE",
"230 -12 CURVE SMOOTH"
);
}
);
width = 500;
}
);
leftKerningGroup = question;
rightKerningGroup = question;
unicode = 003F;
},
{
glyphname = parenleft;
layers = (
{
layerId = "78D56DC8-6A23-4C9F-B1C5-F953A445AE64";
name = Bold;
paths = (
{
closed = 1;
nodes = (
"37 408 OFFCURVE",
"56 499 OFFCURVE",
"87 576 CURVE SMOOTH",
"118 652 OFFCURVE",
"161 716 OFFCURVE",
"212 760 CURVE",
"351 760 LINE",
"243 660 OFFCURVE",
"177 517 OFFCURVE",
"177 346 CURVE SMOOTH",
"177 276 LINE SMOOTH",
"177 99 OFFCURVE",
"244 -41 OFFCURVE",
"351 -138 CURVE",
"211 -138 LINE",
"163 -97 OFFCURVE",
"119 -32 OFFCURVE",
"88 46 CURVE SMOOTH",
"56 124 OFFCURVE",
"37 215 OFFCURVE",
"37 312 CURVE SMOOTH"
);
}
);
width = 338;
}
);
rightKerningGroup = parenleft;
unicode = 0028;
},
{
glyphname = parenright;
layers = (
{
layerId = "78D56DC8-6A23-4C9F-B1C5-F953A445AE64";
name = Bold;
paths = (
{
closed = 1;
nodes = (
"301 216 OFFCURVE",
"282 124 OFFCURVE",
"251 47 CURVE SMOOTH",
"220 -30 OFFCURVE",
"175 -94 OFFCURVE",
"126 -138 CURVE",
"-13 -138 LINE",
"95 -38 OFFCURVE",
"161 105 OFFCURVE",
"161 276 CURVE SMOOTH",
"161 346 LINE SMOOTH",
"161 523 OFFCURVE",
"94 663 OFFCURVE",
"-13 760 CURVE",
"127 760 LINE",
"175 717 OFFCURVE",
"219 654 OFFCURVE",
"251 578 CURVE SMOOTH",
"282 501 OFFCURVE",
"301 409 OFFCURVE",
"301 312 CURVE SMOOTH"
);
}
);
width = 338;
}
);
leftKerningGroup = parenright;
unicode = 0029;
},
{
glyphname = bracketleft;
layers = (
{
layerId = "78D56DC8-6A23-4C9F-B1C5-F953A445AE64";
name = Bold;
paths = (
{
closed = 1;
nodes = (
"77 -138 LINE",
"77 760 LINE",
"284 760 LINE",
"284 656 LINE",
"214 656 LINE",
"214 -34 LINE",
"284 -34 LINE",
"284 -138 LINE"
);
}
);
width = 334;
}
);
rightKerningGroup = bracketleft;
unicode = 005B;
},
{
glyphname = bracketright;
layers = (
{
layerId = "78D56DC8-6A23-4C9F-B1C5-F953A445AE64";
name = Bold;
paths = (
{
closed = 1;
nodes = (
"257 760 LINE",
"257 -138 LINE",
"50 -138 LINE",
"50 -34 LINE",
"120 -34 LINE",
"120 656 LINE",
"50 656 LINE",
"50 760 LINE"
);
}
);
width = 334;
}
);
leftKerningGroup = bracketright;
unicode = 005D;
},
{
glyphname = braceleft;
layers = (
{
layerId = "78D56DC8-6A23-4C9F-B1C5-F953A445AE64";
name = Bold;
paths = (
{
closed = 1;
nodes = (
"213 -138 LINE SMOOTH",
"158 -138 OFFCURVE",
"116 -102 OFFCURVE",
"116 -37 CURVE SMOOTH",
"116 166 LINE SMOOTH",
"116 225 OFFCURVE",
"75 255 OFFCURVE",
"19 255 CURVE",
"19 368 LINE",
"75 368 OFFCURVE",
"116 398 OFFCURVE",
"116 457 CURVE SMOOTH",
"116 659 LINE SMOOTH",
"116 724 OFFCURVE",
"158 760 OFFCURVE",
"213 760 CURVE SMOOTH",
"322 760 LINE",
"322 656 LINE",
"253 656 LINE",
"253 441 LINE SMOOTH",
"253 409 OFFCURVE",
"241 380 OFFCURVE",
"222 357 CURVE SMOOTH",
"203 334 OFFCURVE",
"177 318 OFFCURVE",
"149 313 CURVE",
"149 309 LINE",
"177 304 OFFCURVE",
"203 288 OFFCURVE",
"222 265 CURVE SMOOTH",
"241 242 OFFCURVE",
"253 213 OFFCURVE",
"253 181 CURVE SMOOTH",
"253 -34 LINE",
"322 -34 LINE",
"322 -138 LINE"
);
}
);
width = 372;
}
);
rightKerningGroup = bracketleft;
unicode = 007B;
},
{
glyphname = braceright;
layers = (
{
layerId = "78D56DC8-6A23-4C9F-B1C5-F953A445AE64";
name = Bold;
paths = (
{
closed = 1;
nodes = (
"159 760 LINE SMOOTH",
"214 760 OFFCURVE",
"256 724 OFFCURVE",
"256 659 CURVE SMOOTH",
"256 457 LINE SMOOTH",
"256 398 OFFCURVE",
"297 368 OFFCURVE",
"353 368 CURVE",
"353 255 LINE",
"297 255 OFFCURVE",
"256 225 OFFCURVE",
"256 166 CURVE SMOOTH",
"256 -37 LINE SMOOTH",
"256 -102 OFFCURVE",
"214 -138 OFFCURVE",
"159 -138 CURVE SMOOTH",
"50 -138 LINE",
"50 -34 LINE",
"119 -34 LINE",
"119 182 LINE SMOOTH",
"119 214 OFFCURVE",
"131 243 OFFCURVE",
"150 266 CURVE SMOOTH",
"169 289 OFFCURVE",
"195 305 OFFCURVE",
"223 310 CURVE",
"223 314 LINE",
"195 319 OFFCURVE",
"169 335 OFFCURVE",
"150 358 CURVE SMOOTH",
"131 381 OFFCURVE",
"119 410 OFFCURVE",
"119 442 CURVE SMOOTH",
"119 656 LINE",
"50 656 LINE",
"50 760 LINE"
);
}
);
width = 372;
}
);
leftKerningGroup = bracketright;
unicode = 007D;
},
{
glyphname = slash;
layers = (
{
layerId = "78D56DC8-6A23-4C9F-B1C5-F953A445AE64";
name = Bold;
paths = (
{
closed = 1;
nodes = (
"3 -151 LINE",
"301 740 LINE",
"423 740 LINE",
"125 -151 LINE"
);
}
);
width = 460;
}
);
leftKerningGroup = slash;
rightKerningGroup = slash;
unicode = 002F;
},
{
glyphname = backslash;
layers = (
{
layerId = "78D56DC8-6A23-4C9F-B1C5-F953A445AE64";
name = Bold;
paths = (
{
closed = 1;
nodes = (
"334 -151 LINE",
"36 740 LINE",
"158 740 LINE",
"456 -151 LINE"
);
}
);
width = 460;
}
);
unicode = 005C;
},
{
glyphname = fraction;
layers = (
{
layerId = "78D56DC8-6A23-4C9F-B1C5-F953A445AE64";
name = Bold;
paths = (
{
closed = 1;
nodes = (
"-245 0 LINE",
"284 698 LINE",
"392 698 LINE",
"-137 0 LINE"
);
}
);
width = 147;
}
);
unicode = 2044;
},
{
glyphname = percent;
layers = (
{
layerId = "78D56DC8-6A23-4C9F-B1C5-F953A445AE64";
name = Bold;
paths = (
{
closed = 1;
nodes = (
"179 0 LINE",
"663 698 LINE",
"795 698 LINE",
"311 0 LINE"
);
},
{
closed = 1;
nodes = (
"113 314 OFFCURVE",
"50 381 OFFCURVE",
"50 512 CURVE SMOOTH",
"50 643 OFFCURVE",
"113 710 OFFCURVE",
"230 710 CURVE SMOOTH",
"347 710 OFFCURVE",
"410 643 OFFCURVE",
"410 512 CURVE SMOOTH",
"410 381 OFFCURVE",
"347 314 OFFCURVE",
"230 314 CURVE SMOOTH"
);
},
{
closed = 1;
nodes = (
"265 400 OFFCURVE",
"282 426 OFFCURVE",
"282 486 CURVE SMOOTH",
"282 538 LINE SMOOTH",
"282 598 OFFCURVE",
"265 624 OFFCURVE",
"230 624 CURVE SMOOTH",
"195 624 OFFCURVE",
"178 598 OFFCURVE",
"178 538 CURVE SMOOTH",
"178 486 LINE SMOOTH",
"178 426 OFFCURVE",
"195 400 OFFCURVE",
"230 400 CURVE SMOOTH"
);
},
{
closed = 1;
nodes = (
"627 -12 OFFCURVE",
"564 55 OFFCURVE",
"564 186 CURVE SMOOTH",
"564 317 OFFCURVE",
"627 384 OFFCURVE",
"744 384 CURVE SMOOTH",
"861 384 OFFCURVE",
"924 317 OFFCURVE",
"924 186 CURVE SMOOTH",
"924 55 OFFCURVE",
"861 -12 OFFCURVE",
"744 -12 CURVE SMOOTH"
);
},
{
closed = 1;
nodes = (
"779 74 OFFCURVE",
"796 100 OFFCURVE",
"796 160 CURVE SMOOTH",
"796 212 LINE SMOOTH",
"796 272 OFFCURVE",
"779 298 OFFCURVE",
"744 298 CURVE SMOOTH",
"709 298 OFFCURVE",
"692 272 OFFCURVE",
"692 212 CURVE SMOOTH",
"692 160 LINE SMOOTH",
"692 100 OFFCURVE",
"709 74 OFFCURVE",
"744 74 CURVE SMOOTH"
);
}
);
width = 974;
}
);
rightKerningGroup = percent;
unicode = 0025;
},
{
glyphname = perthousand;
layers = (
{
layerId = "78D56DC8-6A23-4C9F-B1C5-F953A445AE64";
name = Bold;
paths = (
{
closed = 1;
nodes = (
"179 0 LINE",
"663 698 LINE",
"795 698 LINE",
"311 0 LINE"
);
},
{
closed = 1;
nodes = (
"113 314 OFFCURVE",
"50 381 OFFCURVE",
"50 512 CURVE SMOOTH",
"50 643 OFFCURVE",
"113 710 OFFCURVE",
"230 710 CURVE SMOOTH",
"347 710 OFFCURVE",
"410 643 OFFCURVE",
"410 512 CURVE SMOOTH",
"410 381 OFFCURVE",
"347 314 OFFCURVE",
"230 314 CURVE SMOOTH"
);
},
{
closed = 1;
nodes = (
"265 400 OFFCURVE",
"282 426 OFFCURVE",
"282 486 CURVE SMOOTH",
"282 538 LINE SMOOTH",
"282 598 OFFCURVE",
"265 624 OFFCURVE",
"230 624 CURVE SMOOTH",
"195 624 OFFCURVE",
"178 598 OFFCURVE",
"178 538 CURVE SMOOTH",
"178 486 LINE SMOOTH",
"178 426 OFFCURVE",
"195 400 OFFCURVE",
"230 400 CURVE SMOOTH"
);
},
{
closed = 1;
nodes = (
"627 -12 OFFCURVE",
"564 55 OFFCURVE",
"564 186 CURVE SMOOTH",
"564 317 OFFCURVE",
"627 384 OFFCURVE",
"744 384 CURVE SMOOTH",
"861 384 OFFCURVE",
"924 317 OFFCURVE",
"924 186 CURVE SMOOTH",
"924 55 OFFCURVE",
"861 -12 OFFCURVE",
"744 -12 CURVE SMOOTH"
);
},
{
closed = 1;
nodes = (
"779 74 OFFCURVE",
"796 100 OFFCURVE",
"796 160 CURVE SMOOTH",
"796 212 LINE SMOOTH",
"796 272 OFFCURVE",
"779 298 OFFCURVE",
"744 298 CURVE SMOOTH",
"709 298 OFFCURVE",
"692 272 OFFCURVE",
"692 212 CURVE SMOOTH",
"692 160 LINE SMOOTH",
"692 100 OFFCURVE",
"709 74 OFFCURVE",
"744 74 CURVE SMOOTH"
);
},
{
closed = 1;
nodes = (
"1035 -12 OFFCURVE",
"972 55 OFFCURVE",
"972 186 CURVE SMOOTH",
"972 317 OFFCURVE",
"1035 384 OFFCURVE",
"1152 384 CURVE SMOOTH",
"1269 384 OFFCURVE",
"1332 317 OFFCURVE",
"1332 186 CURVE SMOOTH",
"1332 55 OFFCURVE",
"1269 -12 OFFCURVE",
"1152 -12 CURVE SMOOTH"
);
},
{
closed = 1;
nodes = (
"1187 74 OFFCURVE",
"1204 100 OFFCURVE",
"1204 160 CURVE SMOOTH",
"1204 212 LINE SMOOTH",
"1204 272 OFFCURVE",
"1187 298 OFFCURVE",
"1152 298 CURVE SMOOTH",
"1117 298 OFFCURVE",
"1100 272 OFFCURVE",
"1100 212 CURVE SMOOTH",
"1100 160 LINE SMOOTH",
"1100 100 OFFCURVE",
"1117 74 OFFCURVE",
"1152 74 CURVE SMOOTH"
);
}
);
width = 1382;
}
);
rightKerningGroup = perthousand;
unicode = 2030;
},
{
glyphname = bar;
layers = (
{
layerId = "78D56DC8-6A23-4C9F-B1C5-F953A445AE64";
name = Bold;
paths = (
{
closed = 1;
nodes = (
"138 -138 LINE",
"138 760 LINE",
"264 760 LINE",
"264 -138 LINE"
);
}
);
width = 402;
}
);
unicode = 007C;
},
{
glyphname = brokenbar;
layers = (
{
layerId = "78D56DC8-6A23-4C9F-B1C5-F953A445AE64";
name = Bold;
paths = (
{
closed = 1;
nodes = (
"138 401 LINE",
"138 760 LINE",
"264 760 LINE",
"264 401 LINE"
);
},
{
closed = 1;
nodes = (
"138 -138 LINE",
"138 221 LINE",
"264 221 LINE",
"264 -138 LINE"
);
}
);
width = 402;
}
);
unicode = 00A6;
},
{
glyphname = section;
layers = (
{
layerId = "78D56DC8-6A23-4C9F-B1C5-F953A445AE64";
name = Bold;
paths = (
{
closed = 1;
nodes = (
"488 -42 OFFCURVE",
"466 -84 OFFCURVE",
"428 -114 CURVE SMOOTH",
"390 -144 OFFCURVE",
"335 -161 OFFCURVE",
"271 -161 CURVE SMOOTH",
"202 -161 OFFCURVE",
"129 -142 OFFCURVE",
"72 -89 CURVE",
"144 -1 LINE",
"179 -36 OFFCURVE",
"221 -56 OFFCURVE",
"273 -56 CURVE SMOOTH",
"328 -56 OFFCURVE",
"364 -34 OFFCURVE",
"364 7 CURVE SMOOTH",
"364 44 OFFCURVE",
"337 62 OFFCURVE",
"277 78 CURVE SMOOTH",
"200 99 LINE SMOOTH",
"144 115 OFFCURVE",
"106 137 OFFCURVE",
"83 163 CURVE SMOOTH",
"59 189 OFFCURVE",
"50 218 OFFCURVE",
"50 247 CURVE SMOOTH",
"50 304 OFFCURVE",
"84 354 OFFCURVE",
"157 385 CURVE",
"157 402 LINE",
"110 433 OFFCURVE",
"80 478 OFFCURVE",
"80 541 CURVE SMOOTH",
"80 596 OFFCURVE",
"103 638 OFFCURVE",
"141 667 CURVE SMOOTH",
"179 695 OFFCURVE",
"233 710 OFFCURVE",
"296 710 CURVE SMOOTH",
"368 710 OFFCURVE",
"438 693 OFFCURVE",
"497 638 CURVE",
"424 550 LINE",
"389 585 OFFCURVE",
"352 605 OFFCURVE",
"293 605 CURVE SMOOTH",
"242 605 OFFCURVE",
"204 589 OFFCURVE",
"204 546 CURVE SMOOTH",
"204 511 OFFCURVE",
"231 494 OFFCURVE",
"291 478 CURVE SMOOTH",
"368 457 LINE SMOOTH",
"424 441 OFFCURVE",
"462 419 OFFCURVE",
"486 393 CURVE SMOOTH",
"510 367 OFFCURVE",
"519 336 OFFCURVE",
"519 307 CURVE SMOOTH",
"519 250 OFFCURVE",
"486 200 OFFCURVE",
"411 169 CURVE",
"411 153 LINE",
"458 122 OFFCURVE",
"488 77 OFFCURVE",
"488 13 CURVE SMOOTH"
);
},
{
closed = 1;
nodes = (
"396 297 OFFCURVE",
"380 326 OFFCURVE",
"316 345 CURVE SMOOTH",
"240 366 LINE SMOOTH",
"228 369 OFFCURVE",
"217 373 OFFCURVE",
"208 376 CURVE",
"185 349 OFFCURVE",
"172 323 OFFCURVE",
"172 292 CURVE SMOOTH",
"172 259 OFFCURVE",
"188 230 OFFCURVE",
"252 211 CURVE SMOOTH",
"328 190 LINE SMOOTH",
"339 187 OFFCURVE",
"350 183 OFFCURVE",
"361 179 CURVE",
"384 206 OFFCURVE",
"396 231 OFFCURVE",
"396 262 CURVE SMOOTH"
);
}
);
width = 569;
}
);
unicode = 00A7;
},
{
glyphname = paragraph;
layers = (
{
layerId = "78D56DC8-6A23-4C9F-B1C5-F953A445AE64";
name = Bold;
paths = (
{
closed = 1;
nodes = (
"242 260 LINE",
"183 260 OFFCURVE",
"131 285 OFFCURVE",
"93 325 CURVE SMOOTH",
"55 364 OFFCURVE",
"31 419 OFFCURVE",
"31 479 CURVE SMOOTH",
"31 539 OFFCURVE",
"55 594 OFFCURVE",
"93 634 CURVE SMOOTH",
"131 673 OFFCURVE",
"183 698 OFFCURVE",
"242 698 CURVE SMOOTH",
"624 698 LINE",
"624 592 LINE",
"558 592 LINE",
"558 -149 LINE",
"449 -149 LINE",
"449 592 LINE",
"351 592 LINE",
"351 -149 LINE",
"242 -149 LINE"
);
}
);
width = 677;
}
);
unicode = 00B6;
},
{
glyphname = copyright;
layers = (
{
layerId = "78D56DC8-6A23-4C9F-B1C5-F953A445AE64";
name = Bold;
paths = (
{
closed = 1;
nodes = (
"295 -12 OFFCURVE",
"207 22 OFFCURVE",
"146 85 CURVE SMOOTH",
"85 148 OFFCURVE",
"48 237 OFFCURVE",
"48 349 CURVE SMOOTH",
"48 461 OFFCURVE",
"85 550 OFFCURVE",
"146 613 CURVE SMOOTH",
"207 676 OFFCURVE",
"295 710 OFFCURVE",
"396 710 CURVE SMOOTH",
"497 710 OFFCURVE",
"585 676 OFFCURVE",
"646 613 CURVE SMOOTH",
"707 550 OFFCURVE",
"744 461 OFFCURVE",
"744 349 CURVE SMOOTH",
"744 237 OFFCURVE",
"707 148 OFFCURVE",
"646 85 CURVE SMOOTH",
"585 22 OFFCURVE",
"497 -12 OFFCURVE",
"396 -12 CURVE SMOOTH"
);
},
{
closed = 1;
nodes = (
"476 52 OFFCURVE",
"544 81 OFFCURVE",
"593 128 CURVE SMOOTH",
"641 175 OFFCURVE",
"670 240 OFFCURVE",
"670 315 CURVE SMOOTH",
"670 383 LINE SMOOTH",
"670 456 OFFCURVE",
"641 523 OFFCURVE",
"593 570 CURVE SMOOTH",
"544 617 OFFCURVE",
"476 646 OFFCURVE",
"396 646 CURVE SMOOTH",
"316 646 OFFCURVE",
"248 617 OFFCURVE",
"200 570 CURVE SMOOTH",
"151 523 OFFCURVE",
"122 456 OFFCURVE",
"122 383 CURVE SMOOTH",
"122 315 LINE SMOOTH",
"122 240 OFFCURVE",
"151 175 OFFCURVE",
"200 128 CURVE SMOOTH",
"248 81 OFFCURVE",
"316 52 OFFCURVE",
"396 52 CURVE SMOOTH"
);
},
{
closed = 1;
nodes = (
"338 134 OFFCURVE",
"286 156 OFFCURVE",
"250 193 CURVE SMOOTH",
"214 230 OFFCURVE",
"195 284 OFFCURVE",
"195 349 CURVE SMOOTH",
"195 414 OFFCURVE",
"214 468 OFFCURVE",
"250 505 CURVE SMOOTH",
"286 542 OFFCURVE",
"338 564 OFFCURVE",
"403 564 CURVE SMOOTH",
"500 564 OFFCURVE",
"557 519 OFFCURVE",
"584 451 CURVE",
"484 403 LINE",
"468 438 OFFCURVE",
"447 461 OFFCURVE",
"403 461 CURVE SMOOTH",
"359 461 OFFCURVE",
"332 433 OFFCURVE",
"332 389 CURVE SMOOTH",
"332 309 LINE SMOOTH",
"332 265 OFFCURVE",
"359 237 OFFCURVE",
"403 237 CURVE SMOOTH",
"447 237 OFFCURVE",
"474 262 OFFCURVE",
"491 295 CURVE",
"592 248 LINE",
"577 217 OFFCURVE",
"558 189 OFFCURVE",
"527 168 CURVE SMOOTH",
"496 147 OFFCURVE",
"456 134 OFFCURVE",
"403 134 CURVE SMOOTH"
);
}
);
width = 792;
}
);
leftKerningGroup = copyright;
unicode = 00A9;
},
{
glyphname = registered;
layers = (
{
layerId = "78D56DC8-6A23-4C9F-B1C5-F953A445AE64";
name = Bold;
paths = (
{
closed = 1;
nodes = (
"176 298 OFFCURVE",
"125 320 OFFCURVE",
"89 357 CURVE SMOOTH",
"52 393 OFFCURVE",
"30 445 OFFCURVE",
"30 504 CURVE SMOOTH",
"30 563 OFFCURVE",
"52 615 OFFCURVE",
"89 652 CURVE SMOOTH",
"125 688 OFFCURVE",
"176 710 OFFCURVE",
"232 710 CURVE SMOOTH",
"288 710 OFFCURVE",
"339 688 OFFCURVE",
"376 652 CURVE SMOOTH",
"412 615 OFFCURVE",
"434 563 OFFCURVE",
"434 504 CURVE SMOOTH",
"434 445 OFFCURVE",
"412 393 OFFCURVE",
"376 357 CURVE SMOOTH",
"339 320 OFFCURVE",
"288 298 OFFCURVE",
"232 298 CURVE SMOOTH"
);
},
{
closed = 1;
nodes = (
"272 345 OFFCURVE",
"309 358 OFFCURVE",
"336 383 CURVE SMOOTH",
"363 407 OFFCURVE",
"380 443 OFFCURVE",
"380 488 CURVE SMOOTH",
"380 520 LINE SMOOTH",
"380 565 OFFCURVE",
"363 601 OFFCURVE",
"336 626 CURVE SMOOTH",
"309 650 OFFCURVE",
"272 663 OFFCURVE",
"232 663 CURVE SMOOTH",
"192 663 OFFCURVE",
"155 650 OFFCURVE",
"128 626 CURVE SMOOTH",
"101 601 OFFCURVE",
"84 565 OFFCURVE",
"84 520 CURVE SMOOTH",
"84 488 LINE SMOOTH",
"84 443 OFFCURVE",
"101 407 OFFCURVE",
"128 383 CURVE SMOOTH",
"155 358 OFFCURVE",
"192 345 OFFCURVE",
"232 345 CURVE SMOOTH"
);
},
{
closed = 1;
nodes = (
"209 400 LINE",
"145 400 LINE",
"145 609 LINE",
"247 609 LINE SMOOTH",
"303 609 OFFCURVE",
"327 579 OFFCURVE",
"327 539 CURVE SMOOTH",
"327 506 OFFCURVE",
"313 484 OFFCURVE",
"290 473 CURVE",
"333 400 LINE",
"264 400 LINE",
"232 461 LINE",
"209 461 LINE"
);
},
{
closed = 1;
nodes = (
"234 508 LINE SMOOTH",
"253 508 OFFCURVE",
"262 516 OFFCURVE",
"262 531 CURVE SMOOTH",
"262 538 LINE SMOOTH",
"262 553 OFFCURVE",
"253 561 OFFCURVE",
"234 561 CURVE SMOOTH",
"209 561 LINE",
"209 508 LINE"
);
}
);
width = 464;
}
);
leftKerningGroup = registered;
rightKerningGroup = registered;
unicode = 00AE;
},
{
glyphname = trademark;
layers = (
{
layerId = "78D56DC8-6A23-4C9F-B1C5-F953A445AE64";
name = Bold;
paths = (
{
closed = 1;
nodes = (
"91 409 LINE",
"91 637 LINE",
"24 637 LINE",
"24 698 LINE",
"243 698 LINE",
"243 637 LINE",
"177 637 LINE",
"177 409 LINE"
);
},
{
closed = 1;
nodes = (
"273 409 LINE",
"273 698 LINE",
"363 698 LINE",
"418 591 LINE",
"424 591 LINE",
"478 698 LINE",
"562 698 LINE",
"562 409 LINE",
"491 409 LINE",
"491 504 LINE",
"499 598 LINE",
"495 598 LINE",
"418 453 LINE",
"340 598 LINE",
"336 598 LINE",
"345 504 LINE",
"345 409 LINE"
);
}
);
width = 614;
}
);
leftKerningGroup = trademark;
rightKerningGroup = trademark;
unicode = 2122;
},
{
glyphname = ordfeminine;
lastChange = "2018-11-02 02:40:02 +0000";
layers = (
{
layerId = "78D56DC8-6A23-4C9F-B1C5-F953A445AE64";
name = Bold;
paths = (
{
closed = 1;
nodes = (
"131 710 OFFCURVE",
"80 682 OFFCURVE",
"56 639 CURVE",
"112 589 LINE",
"131 616 OFFCURVE",
"156 634 OFFCURVE",
"199 634 CURVE SMOOTH",
"246 634 OFFCURVE",
"262 613 OFFCURVE",
"262 569 CURVE SMOOTH",
"262 551 LINE",
"206 551 LINE SMOOTH",
"102 551 OFFCURVE",
"46 516 OFFCURVE",
"46 440 CURVE SMOOTH",
"46 372 OFFCURVE",
"92 332 OFFCURVE",
"160 332 CURVE SMOOTH",
"215 332 OFFCURVE",
"255 357 OFFCURVE",
"268 404 CURVE",
"272 404 LINE",
"272 340 LINE",
"366 340 LINE",
"366 573 LINE SMOOTH",
"366 665 OFFCURVE",
"307 710 OFFCURVE",
"211 710 CURVE SMOOTH"
);
},
{
closed = 1;
nodes = (
"262 417 OFFCURVE",
"235 400 OFFCURVE",
"200 400 CURVE SMOOTH",
"168 400 OFFCURVE",
"147 411 OFFCURVE",
"147 438 CURVE SMOOTH",
"147 452 LINE SMOOTH",
"147 481 OFFCURVE",
"168 495 OFFCURVE",
"209 495 CURVE SMOOTH",
"262 495 LINE",
"262 452 LINE SMOOTH"
);
}
);
width = 429;
}
);
unicode = 00AA;
},
{
glyphname = ordmasculine;
layers = (
{
layerId = "78D56DC8-6A23-4C9F-B1C5-F953A445AE64";
name = Bold;
paths = (
{
closed = 1;
nodes = (
"104 330 OFFCURVE",
"38 403 OFFCURVE",
"38 520 CURVE SMOOTH",
"38 637 OFFCURVE",
"104 710 OFFCURVE",
"217 710 CURVE SMOOTH",
"330 710 OFFCURVE",
"396 637 OFFCURVE",
"396 520 CURVE SMOOTH",
"396 403 OFFCURVE",
"330 330 OFFCURVE",
"217 330 CURVE SMOOTH"
);
},
{
closed = 1;
nodes = (
"262 408 OFFCURVE",
"289 435 OFFCURVE",
"289 491 CURVE SMOOTH",
"289 549 LINE SMOOTH",
"289 605 OFFCURVE",
"262 632 OFFCURVE",
"217 632 CURVE SMOOTH",
"172 632 OFFCURVE",
"145 605 OFFCURVE",
"145 549 CURVE SMOOTH",
"145 491 LINE SMOOTH",
"145 435 OFFCURVE",
"172 408 OFFCURVE",
"217 408 CURVE SMOOTH"
);
}
);
width = 433;
}
);
unicode = 00BA;
},
{
glyphname = degree;
layers = (
{
layerId = "78D56DC8-6A23-4C9F-B1C5-F953A445AE64";
name = Bold;
paths = (
{
closed = 1;
nodes = (
"183 334 OFFCURVE",
"136 354 OFFCURVE",
"103 388 CURVE SMOOTH",
"70 422 OFFCURVE",
"50 467 OFFCURVE",
"50 522 CURVE SMOOTH",
"50 575 OFFCURVE",
"70 623 OFFCURVE",
"103 657 CURVE SMOOTH",
"136 691 OFFCURVE",
"183 710 OFFCURVE",
"235 710 CURVE SMOOTH",
"287 710 OFFCURVE",
"334 691 OFFCURVE",
"367 657 CURVE SMOOTH",
"400 623 OFFCURVE",
"420 575 OFFCURVE",
"420 522 CURVE SMOOTH",
"420 467 OFFCURVE",
"400 422 OFFCURVE",
"367 388 CURVE SMOOTH",
"334 354 OFFCURVE",
"287 334 OFFCURVE",
"235 334 CURVE SMOOTH"
);
},
{
closed = 1;
nodes = (
"286 429 OFFCURVE",
"319 469 OFFCURVE",
"319 522 CURVE SMOOTH",
"319 575 OFFCURVE",
"286 615 OFFCURVE",
"235 615 CURVE SMOOTH",
"184 615 OFFCURVE",
"151 575 OFFCURVE",
"151 522 CURVE SMOOTH",
"151 469 OFFCURVE",
"184 429 OFFCURVE",
"235 429 CURVE SMOOTH"
);
}
);
width = 470;
}
);
unicode = 00B0;
},
{
glyphname = asterisk;
layers = (
{
layerId = "78D56DC8-6A23-4C9F-B1C5-F953A445AE64";
name = Bold;
paths = (
{
closed = 1;
nodes = (
"192 238 LINE",
"88 308 LINE",
"215 461 LINE",
"32 516 LINE",
"71 630 LINE",
"245 557 LINE",
"236 747 LINE",
"365 747 LINE",
"356 557 LINE",
"530 630 LINE",
"569 516 LINE",
"386 461 LINE",
"512 308 LINE",
"408 239 LINE",
"300 401 LINE"
);
}
);
width = 601;
}
);
leftKerningGroup = quotesingle;
rightKerningGroup = quotesingle;
unicode = 002A;
},
{
glyphname = dagger;
layers = (
{
layerId = "78D56DC8-6A23-4C9F-B1C5-F953A445AE64";
name = Bold;
paths = (
{
closed = 1;
nodes = (
"198 -200 LINE",
"198 408 LINE",
"26 408 LINE",
"26 516 LINE",
"198 516 LINE",
"198 740 LINE",
"324 740 LINE",
"324 516 LINE",
"496 516 LINE",
"496 408 LINE",
"324 408 LINE",
"324 -200 LINE"
);
}
);
width = 522;
}
);
unicode = 2020;
},
{
glyphname = daggerdbl;
layers = (
{
layerId = "78D56DC8-6A23-4C9F-B1C5-F953A445AE64";
name = Bold;
paths = (
{
closed = 1;
nodes = (
"208 -200 LINE",
"208 24 LINE",
"36 24 LINE",
"36 132 LINE",
"208 132 LINE",
"208 408 LINE",
"36 408 LINE",
"36 516 LINE",
"208 516 LINE",
"208 740 LINE",
"334 740 LINE",
"334 516 LINE",
"506 516 LINE",
"506 408 LINE",
"334 408 LINE",
"334 132 LINE",
"506 132 LINE",
"506 24 LINE",
"334 24 LINE",
"334 -200 LINE"
);
}
);
width = 542;
}
);
unicode = 2021;
},
{
glyphname = numbersign;
layers = (
{
layerId = "78D56DC8-6A23-4C9F-B1C5-F953A445AE64";
name = Bold;
paths = (
{
closed = 1;
nodes = (
"366 173 LINE",
"206 173 LINE",
"176 0 LINE",
"82 0 LINE",
"112 173 LINE",
"11 173 LINE",
"11 263 LINE",
"128 263 LINE",
"157 435 LINE",
"56 435 LINE",
"56 525 LINE",
"173 525 LINE",
"203 698 LINE",
"296 698 LINE",
"266 525 LINE",
"426 525 LINE",
"456 698 LINE",
"550 698 LINE",
"520 525 LINE",
"621 525 LINE",
"621 435 LINE",
"504 435 LINE",
"475 263 LINE",
"576 263 LINE",
"576 173 LINE",
"459 173 LINE",
"429 0 LINE",
"336 0 LINE"
);
},
{
closed = 1;
nodes = (
"381 263 LINE",
"411 435 LINE",
"251 435 LINE",
"221 263 LINE"
);
}
);
width = 632;
}
);
unicode = 0023;
},
{
glyphname = asciicircum;
layers = (
{
layerId = "78D56DC8-6A23-4C9F-B1C5-F953A445AE64";
name = Bold;
paths = (
{
closed = 1;
nodes = (
"440 277 LINE",
"300 537 LINE",
"294 537 LINE",
"154 277 LINE",
"42 334 LINE",
"242 698 LINE",
"362 698 LINE",
"559 334 LINE"
);
}
);
width = 600;
}
);
unicode = 005E;
},
{
glyphname = asciitilde;
layers = (
{
layerId = "78D56DC8-6A23-4C9F-B1C5-F953A445AE64";
name = Bold;
paths = (
{
closed = 1;
nodes = (
"367 212 OFFCURVE",
"334 225 OFFCURVE",
"290 248 CURVE SMOOTH",
"254 267 OFFCURVE",
"221 281 OFFCURVE",
"180 281 CURVE SMOOTH",
"149 281 OFFCURVE",
"131 273 OFFCURVE",
"102 254 CURVE",
"53 338 LINE",
"77 373 OFFCURVE",
"119 400 OFFCURVE",
"184 400 CURVE SMOOTH",
"233 400 OFFCURVE",
"266 387 OFFCURVE",
"310 364 CURVE SMOOTH",
"346 345 OFFCURVE",
"379 331 OFFCURVE",
"420 331 CURVE SMOOTH",
"451 331 OFFCURVE",
"469 339 OFFCURVE",
"498 358 CURVE",
"547 274 LINE",
"523 239 OFFCURVE",
"481 212 OFFCURVE",
"416 212 CURVE SMOOTH"
);
}
);
width = 600;
}
);
unicode = 007E;
},
{
glyphname = plus;
layers = (
{
layerId = "78D56DC8-6A23-4C9F-B1C5-F953A445AE64";
name = Bold;
paths = (
{
closed = 1;
nodes = (
"236 63 LINE",
"236 247 LINE",
"67 247 LINE",
"67 365 LINE",
"236 365 LINE",
"236 549 LINE",
"364 549 LINE",
"364 365 LINE",
"533 365 LINE",
"533 247 LINE",
"364 247 LINE",
"364 63 LINE"
);
}
);
width = 600;
}
);
unicode = 002B;
},
{
glyphname = minus;
layers = (
{
layerId = "78D56DC8-6A23-4C9F-B1C5-F953A445AE64";
name = Bold;
paths = (
{
closed = 1;
nodes = (
"67 247 LINE",
"67 365 LINE",
"533 365 LINE",
"533 247 LINE"
);
}
);
width = 600;
}
);
unicode = 2212;
},
{
glyphname = plusminus;
layers = (
{
layerId = "78D56DC8-6A23-4C9F-B1C5-F953A445AE64";
name = Bold;
paths = (
{
closed = 1;
nodes = (
"236 184 LINE",
"236 351 LINE",
"67 351 LINE",
"67 470 LINE",
"236 470 LINE",
"236 635 LINE",
"364 635 LINE",
"364 470 LINE",
"533 470 LINE",
"533 351 LINE",
"364 351 LINE",
"364 184 LINE"
);
},
{
closed = 1;
nodes = (
"67 0 LINE",
"67 119 LINE",
"533 119 LINE",
"533 0 LINE"
);
}
);
width = 600;
}
);
unicode = 00B1;
},
{
glyphname = multiply;
layers = (
{
layerId = "78D56DC8-6A23-4C9F-B1C5-F953A445AE64";
name = Bold;
paths = (
{
closed = 1;
nodes = (
"300 217 LINE",
"161 71 LINE",
"79 153 LINE",
"218 299 LINE",
"79 445 LINE",
"161 527 LINE",
"300 381 LINE",
"439 527 LINE",
"521 445 LINE",
"382 299 LINE",
"521 153 LINE",
"439 71 LINE"
);
}
);
width = 600;
}
);
unicode = 00D7;
},
{
glyphname = divide;
layers = (
{
layerId = "78D56DC8-6A23-4C9F-B1C5-F953A445AE64";
name = Bold;
paths = (
{
closed = 1;
nodes = (
"67 247 LINE",
"67 365 LINE",
"532 365 LINE",
"532 247 LINE"
);
},
{
closed = 1;
nodes = (
"237 28 OFFCURVE",
"213 60 OFFCURVE",
"213 97 CURVE SMOOTH",
"213 121 LINE SMOOTH",
"213 158 OFFCURVE",
"237 190 OFFCURVE",
"300 190 CURVE SMOOTH",
"363 190 OFFCURVE",
"387 158 OFFCURVE",
"387 121 CURVE SMOOTH",
"387 97 LINE SMOOTH",
"387 60 OFFCURVE",
"363 28 OFFCURVE",
"300 28 CURVE SMOOTH"
);
},
{
closed = 1;
nodes = (
"237 420 OFFCURVE",
"213 452 OFFCURVE",
"213 489 CURVE SMOOTH",
"213 513 LINE SMOOTH",
"213 550 OFFCURVE",
"237 582 OFFCURVE",
"300 582 CURVE SMOOTH",
"363 582 OFFCURVE",
"387 550 OFFCURVE",
"387 513 CURVE SMOOTH",
"387 489 LINE SMOOTH",
"387 452 OFFCURVE",
"363 420 OFFCURVE",
"300 420 CURVE SMOOTH"
);
}
);
width = 600;
}
);
unicode = 00F7;
},
{
glyphname = equal;
layers = (
{
layerId = "78D56DC8-6A23-4C9F-B1C5-F953A445AE64";
name = Bold;
paths = (
{
closed = 1;
nodes = (
"67 362 LINE",
"67 480 LINE",
"533 480 LINE",
"533 362 LINE"
);
},
{
closed = 1;
nodes = (
"67 130 LINE",
"67 248 LINE",
"533 248 LINE",
"533 130 LINE"
);
}
);
width = 600;
}
);
unicode = 003D;
},
{
glyphname = approxequal;
layers = (
{
layerId = "78D56DC8-6A23-4C9F-B1C5-F953A445AE64";
name = Bold;
paths = (
{
closed = 1;
nodes = (
"370 328 OFFCURVE",
"337 341 OFFCURVE",
"293 364 CURVE SMOOTH",
"257 383 OFFCURVE",
"224 397 OFFCURVE",
"183 397 CURVE SMOOTH",
"152 397 OFFCURVE",
"134 389 OFFCURVE",
"105 370 CURVE",
"56 454 LINE",
"80 489 OFFCURVE",
"122 516 OFFCURVE",
"187 516 CURVE SMOOTH",
"236 516 OFFCURVE",
"269 503 OFFCURVE",
"313 480 CURVE SMOOTH",
"349 461 OFFCURVE",
"382 447 OFFCURVE",
"423 447 CURVE SMOOTH",
"454 447 OFFCURVE",
"472 455 OFFCURVE",
"501 474 CURVE",
"550 390 LINE",
"526 355 OFFCURVE",
"484 328 OFFCURVE",
"419 328 CURVE SMOOTH"
);
},
{
closed = 1;
nodes = (
"370 96 OFFCURVE",
"337 109 OFFCURVE",
"293 132 CURVE SMOOTH",
"257 151 OFFCURVE",
"224 165 OFFCURVE",
"183 165 CURVE SMOOTH",
"152 165 OFFCURVE",
"134 157 OFFCURVE",
"105 138 CURVE",
"56 222 LINE",
"80 257 OFFCURVE",
"122 284 OFFCURVE",
"187 284 CURVE SMOOTH",
"236 284 OFFCURVE",
"269 271 OFFCURVE",
"313 248 CURVE SMOOTH",
"349 229 OFFCURVE",
"382 215 OFFCURVE",
"423 215 CURVE SMOOTH",
"454 215 OFFCURVE",
"472 223 OFFCURVE",
"501 242 CURVE",
"550 158 LINE",
"526 123 OFFCURVE",
"484 96 OFFCURVE",
"419 96 CURVE SMOOTH"
);
}
);
width = 600;
}
);
unicode = 2248;
},
{
glyphname = notequal;
layers = (
{
layerId = "78D56DC8-6A23-4C9F-B1C5-F953A445AE64";
name = Bold;
paths = (
{
closed = 1;
nodes = (
"93 37 LINE",
"143 130 LINE",
"67 130 LINE",
"67 246 LINE",
"205 246 LINE",
"266 364 LINE",
"67 364 LINE",
"67 480 LINE",
"327 480 LINE",
"378 575 LINE",
"504 575 LINE",
"453 480 LINE",
"533 480 LINE",
"533 364 LINE",
"392 364 LINE",
"330 246 LINE",
"533 246 LINE",
"533 130 LINE",
"268 130 LINE",
"218 37 LINE"
);
}
);
width = 600;
}
);
unicode = 2260;
},
{
glyphname = less;
layers = (
{
layerId = "78D56DC8-6A23-4C9F-B1C5-F953A445AE64";
name = Bold;
paths = (
{
closed = 1;
nodes = (
"103 258 LINE",
"103 345 LINE",
"497 604 LINE",
"497 455 LINE",
"259 305 LINE",
"259 298 LINE",
"497 148 LINE",
"497 -2 LINE"
);
}
);
width = 600;
}
);
unicode = 003C;
},
{
glyphname = greater;
layers = (
{
layerId = "78D56DC8-6A23-4C9F-B1C5-F953A445AE64";
name = Bold;
paths = (
{
closed = 1;
nodes = (
"103 148 LINE",
"341 298 LINE",
"341 305 LINE",
"103 455 LINE",
"103 604 LINE",
"497 346 LINE",
"497 259 LINE",
"103 -2 LINE"
);
}
);
width = 600;
}
);
unicode = 003E;
},
{
glyphname = lessequal;
layers = (
{
layerId = "78D56DC8-6A23-4C9F-B1C5-F953A445AE64";
name = Bold;
paths = (
{
closed = 1;
nodes = (
"103 0 LINE",
"103 116 LINE",
"497 116 LINE",
"497 0 LINE"
);
},
{
closed = 1;
nodes = (
"497 472 LINE",
"279 377 LINE",
"279 370 LINE",
"497 276 LINE",
"497 139 LINE",
"103 328 LINE",
"103 418 LINE",
"497 609 LINE"
);
}
);
width = 600;
}
);
unicode = 2264;
},
{
glyphname = greaterequal;
layers = (
{
layerId = "78D56DC8-6A23-4C9F-B1C5-F953A445AE64";
name = Bold;
paths = (
{
closed = 1;
nodes = (
"103 276 LINE",
"321 371 LINE",
"321 378 LINE",
"103 472 LINE",
"103 609 LINE",
"497 420 LINE",
"497 330 LINE",
"103 139 LINE"
);
},
{
closed = 1;
nodes = (
"103 116 LINE",
"497 116 LINE",
"497 0 LINE",
"103 0 LINE"
);
}
);
width = 600;
}
);
unicode = 2265;
},
{
glyphname = periodcentered;
layers = (
{
layerId = "78D56DC8-6A23-4C9F-B1C5-F953A445AE64";
name = Bold;
paths = (
{
closed = 1;
nodes = (
"119 213 OFFCURVE",
"91 246 OFFCURVE",
"91 293 CURVE SMOOTH",
"91 313 LINE SMOOTH",
"91 360 OFFCURVE",
"119 393 OFFCURVE",
"179 393 CURVE SMOOTH",
"239 393 OFFCURVE",
"267 360 OFFCURVE",
"267 313 CURVE SMOOTH",
"267 293 LINE SMOOTH",
"267 246 OFFCURVE",
"239 213 OFFCURVE",
"179 213 CURVE SMOOTH"
);
}
);
width = 358;
}
);
unicode = 00B7;
},
{
glyphname = bullet;
layers = (
{
layerId = "78D56DC8-6A23-4C9F-B1C5-F953A445AE64";
name = Bold;
paths = (
{
closed = 1;
nodes = (
"159 150 OFFCURVE",
"121 164 OFFCURVE",
"97 188 CURVE SMOOTH",
"73 211 OFFCURVE",
"62 244 OFFCURVE",
"62 281 CURVE SMOOTH",
"62 317 LINE SMOOTH",
"62 354 OFFCURVE",
"73 387 OFFCURVE",
"97 411 CURVE SMOOTH",
"121 434 OFFCURVE",
"159 448 OFFCURVE",
"215 448 CURVE SMOOTH",
"271 448 OFFCURVE",
"309 434 OFFCURVE",
"333 411 CURVE SMOOTH",
"357 387 OFFCURVE",
"368 354 OFFCURVE",
"368 317 CURVE SMOOTH",
"368 281 LINE SMOOTH",
"368 244 OFFCURVE",
"357 211 OFFCURVE",
"333 188 CURVE SMOOTH",
"309 164 OFFCURVE",
"271 150 OFFCURVE",
"215 150 CURVE SMOOTH"
);
}
);
width = 430;
}
);
unicode = 2022;
},
{
glyphname = lozenge;
layers = (
{
layerId = "78D56DC8-6A23-4C9F-B1C5-F953A445AE64";
name = Bold;
paths = (
{
closed = 1;
nodes = (
"258 0 LINE",
"53 349 LINE",
"258 698 LINE",
"342 698 LINE",
"547 349 LINE",
"342 0 LINE"
);
},
{
closed = 1;
nodes = (
"303 143 LINE",
"416 349 LINE",
"303 555 LINE",
"297 555 LINE",
"184 349 LINE",
"297 143 LINE"
);
}
);
width = 600;
}
);
unicode = 25CA;
},
{
glyphname = logicalnot;
layers = (
{
layerId = "78D56DC8-6A23-4C9F-B1C5-F953A445AE64";
name = Bold;
paths = (
{
closed = 1;
nodes = (
"412 78 LINE",
"412 247 LINE",
"52 247 LINE",
"52 365 LINE",
"533 365 LINE",
"533 78 LINE"
);
}
);
width = 600;
}
);
unicode = 00AC;
},
{
glyphname = radical;
layers = (
{
layerId = "78D56DC8-6A23-4C9F-B1C5-F953A445AE64";
name = Bold;
paths = (
{
closed = 1;
nodes = (
"207 0 LINE",
"90 401 LINE",
"14 401 LINE",
"14 525 LINE",
"184 525 LINE",
"248 299 LINE",
"293 123 LINE",
"301 123 LINE",
"346 299 LINE",
"462 698 LINE",
"585 698 LINE",
"383 0 LINE"
);
}
);
width = 600;
}
);
unicode = 221A;
},
{
glyphname = integral;
layers = (
{
layerId = "78D56DC8-6A23-4C9F-B1C5-F953A445AE64";
name = Bold;
paths = (
{
closed = 1;
nodes = (
"35 -85 LINE",
"150 -85 LINE",
"150 590 LINE SMOOTH",
"150 634 OFFCURVE",
"163 671 OFFCURVE",
"189 698 CURVE SMOOTH",
"215 725 OFFCURVE",
"254 740 OFFCURVE",
"307 740 CURVE SMOOTH",
"413 740 LINE",
"413 625 LINE",
"298 625 LINE",
"298 -50 LINE SMOOTH",
"298 -94 OFFCURVE",
"286 -131 OFFCURVE",
"260 -158 CURVE SMOOTH",
"234 -185 OFFCURVE",
"194 -200 OFFCURVE",
"141 -200 CURVE SMOOTH",
"35 -200 LINE"
);
}
);
width = 448;
}
);
unicode = 222B;
},
{
glyphname = infinity;
layers = (
{
layerId = "78D56DC8-6A23-4C9F-B1C5-F953A445AE64";
name = Bold;
paths = (
{
closed = 1;
nodes = (
"98 85 OFFCURVE",
"22 161 OFFCURVE",
"22 290 CURVE SMOOTH",
"22 419 OFFCURVE",
"98 495 OFFCURVE",
"223 495 CURVE SMOOTH",
"312 495 OFFCURVE",
"384 459 OFFCURVE",
"417 359 CURVE",
"423 359 LINE",
"426 399 OFFCURVE",
"445 433 OFFCURVE",
"473 457 CURVE SMOOTH",
"501 481 OFFCURVE",
"536 495 OFFCURVE",
"569 495 CURVE SMOOTH",
"694 495 OFFCURVE",
"770 419 OFFCURVE",
"770 290 CURVE SMOOTH",
"770 161 OFFCURVE",
"694 85 OFFCURVE",
"569 85 CURVE SMOOTH",
"480 85 OFFCURVE",
"408 121 OFFCURVE",
"375 221 CURVE",
"369 221 LINE",
"366 181 OFFCURVE",
"347 147 OFFCURVE",
"319 123 CURVE SMOOTH",
"291 99 OFFCURVE",
"256 85 OFFCURVE",
"223 85 CURVE SMOOTH"
);
},
{
closed = 1;
nodes = (
"280 198 OFFCURVE",
"325 237 OFFCURVE",
"340 278 CURVE",
"329 305 OFFCURVE",
"315 331 OFFCURVE",
"296 351 CURVE",
"276 370 OFFCURVE",
"251 382 OFFCURVE",
"223 382 CURVE SMOOTH",
"178 382 OFFCURVE",
"151 354 OFFCURVE",
"151 299 CURVE SMOOTH",
"151 281 LINE SMOOTH",
"151 226 OFFCURVE",
"178 198 OFFCURVE",
"223 198 CURVE SMOOTH"
);
},
{
closed = 1;
nodes = (
"614 198 OFFCURVE",
"641 226 OFFCURVE",
"641 281 CURVE SMOOTH",
"641 299 LINE SMOOTH",
"641 354 OFFCURVE",
"614 382 OFFCURVE",
"569 382 CURVE SMOOTH",
"512 382 OFFCURVE",
"467 343 OFFCURVE",
"452 302 CURVE",
"461 275 OFFCURVE",
"477 249 OFFCURVE",
"497 230 CURVE",
"516 210 OFFCURVE",
"541 198 OFFCURVE",
"569 198 CURVE SMOOTH"
);
}
);
width = 792;
}
);
unicode = 221E;
},
{
glyphname = uni212E;
layers = (
{
layerId = "78D56DC8-6A23-4C9F-B1C5-F953A445AE64";
name = Bold;
paths = (
{
closed = 1;
nodes = (
"214 88 LINE",
"253 64 OFFCURVE",
"298 49 OFFCURVE",
"357 49 CURVE SMOOTH",
"477 49 OFFCURVE",
"553 109 OFFCURVE",
"601 198 CURVE",
"656 166 LINE",
"629 115 OFFCURVE",
"591 71 OFFCURVE",
"540 39 CURVE SMOOTH",
"489 7 OFFCURVE",
"428 -12 OFFCURVE",
"357 -12 CURVE SMOOTH",
"262 -12 OFFCURVE",
"182 23 OFFCURVE",
"123 86 CURVE SMOOTH",
"64 149 OFFCURVE",
"30 238 OFFCURVE",
"30 349 CURVE SMOOTH",
"30 458 OFFCURVE",
"64 549 OFFCURVE",
"123 612 CURVE SMOOTH",
"182 675 OFFCURVE",
"262 710 OFFCURVE",
"357 710 CURVE SMOOTH",
"450 710 OFFCURVE",
"532 675 OFFCURVE",
"591 612 CURVE SMOOTH",
"650 549 OFFCURVE",
"684 458 OFFCURVE",
"684 349 CURVE",
"214 349 LINE"
);
},
{
closed = 1;
nodes = (
"500 407 LINE",
"500 613 LINE",
"461 636 OFFCURVE",
"416 652 OFFCURVE",
"357 652 CURVE SMOOTH",
"298 652 OFFCURVE",
"253 636 OFFCURVE",
"214 613 CURVE",
"214 407 LINE"
);
}
);
width = 714;
}
);
unicode = 212E;
},
{
glyphname = uni2113;
layers = (
{
layerId = "78D56DC8-6A23-4C9F-B1C5-F953A445AE64";
name = Bold;
paths = (
{
closed = 1;
nodes = (
"261 -12 OFFCURVE",
"213 5 OFFCURVE",
"178 34 CURVE SMOOTH",
"142 63 OFFCURVE",
"121 106 OFFCURVE",
"121 159 CURVE SMOOTH",
"121 162 LINE",
"80 135 LINE",
"16 238 LINE",
"34 248 OFFCURVE",
"52 259 OFFCURVE",
"71 272 CURVE SMOOTH",
"89 285 OFFCURVE",
"103 295 OFFCURVE",
"114 302 CURVE",
"114 545 LINE SMOOTH",
"114 620 OFFCURVE",
"134 672 OFFCURVE",
"167 705 CURVE SMOOTH",
"199 737 OFFCURVE",
"245 752 OFFCURVE",
"296 752 CURVE SMOOTH",
"413 752 OFFCURVE",
"477 680 OFFCURVE",
"477 561 CURVE SMOOTH",
"477 498 OFFCURVE",
"458 444 OFFCURVE",
"422 392 CURVE SMOOTH",
"385 339 OFFCURVE",
"329 287 OFFCURVE",
"254 228 CURVE",
"254 187 LINE SMOOTH",
"254 136 OFFCURVE",
"276 116 OFFCURVE",
"312 116 CURVE SMOOTH",
"331 116 OFFCURVE",
"347 123 OFFCURVE",
"362 138 CURVE SMOOTH",
"376 152 OFFCURVE",
"393 179 OFFCURVE",
"412 219 CURVE",
"532 158 LINE",
"493 57 OFFCURVE",
"425 -12 OFFCURVE",
"314 -12 CURVE SMOOTH"
);
},
{
closed = 1;
nodes = (
"277 621 OFFCURVE",
"254 602 OFFCURVE",
"254 550 CURVE SMOOTH",
"254 378 LINE",
"305 423 OFFCURVE",
"341 477 OFFCURVE",
"341 549 CURVE SMOOTH",
"341 559 LINE SMOOTH",
"341 602 OFFCURVE",
"323 621 OFFCURVE",
"300 621 CURVE SMOOTH"
);
}
);
width = 553;
}
);
unicode = 2113;
},
{
glyphname = uni2116;
layers = (
{
layerId = "78D56DC8-6A23-4C9F-B1C5-F953A445AE64";
name = Bold;
paths = (
{
closed = 1;
nodes = (
"752 358 OFFCURVE",
"691 422 OFFCURVE",
"691 534 CURVE SMOOTH",
"691 646 OFFCURVE",
"752 710 OFFCURVE",
"857 710 CURVE SMOOTH",
"962 710 OFFCURVE",
"1023 646 OFFCURVE",
"1023 534 CURVE SMOOTH",
"1023 422 OFFCURVE",
"962 358 OFFCURVE",
"857 358 CURVE SMOOTH"
);
},
{
closed = 1;
nodes = (
"77 0 LINE",
"77 698 LINE",
"243 698 LINE",
"408 378 LINE",
"475 226 LINE",
"478 226 LINE",
"478 698 LINE",
"621 698 LINE",
"621 0 LINE",
"455 0 LINE",
"290 320 LINE",
"223 472 LINE",
"220 472 LINE",
"220 0 LINE"
);
},
{
closed = 1;
nodes = (
"894 437 OFFCURVE",
"917 462 OFFCURVE",
"917 507 CURVE SMOOTH",
"917 561 LINE SMOOTH",
"917 606 OFFCURVE",
"894 631 OFFCURVE",
"857 631 CURVE SMOOTH",
"820 631 OFFCURVE",
"797 606 OFFCURVE",
"797 561 CURVE SMOOTH",
"797 507 LINE SMOOTH",
"797 462 OFFCURVE",
"820 437 OFFCURVE",
"857 437 CURVE SMOOTH"
);
},
{
closed = 1;
nodes = (
"698 218 LINE",
"698 297 LINE",
"1016 297 LINE",
"1016 218 LINE"
);
}
);
width = 1060;
}
);
unicode = 2116;
},
{
glyphname = partialdiff;
layers = (
{
layerId = "78D56DC8-6A23-4C9F-B1C5-F953A445AE64";
name = Bold;
paths = (
{
closed = 1;
nodes = (
"548 175 OFFCURVE",
"522 104 OFFCURVE",
"478 57 CURVE SMOOTH",
"433 10 OFFCURVE",
"370 -12 OFFCURVE",
"295 -12 CURVE SMOOTH",
"215 -12 OFFCURVE",
"151 14 OFFCURVE",
"107 60 CURVE SMOOTH",
"62 106 OFFCURVE",
"38 172 OFFCURVE",
"38 255 CURVE SMOOTH",
"38 330 OFFCURVE",
"57 392 OFFCURVE",
"91 436 CURVE SMOOTH",
"125 479 OFFCURVE",
"173 504 OFFCURVE",
"233 504 CURVE SMOOTH",
"306 504 OFFCURVE",
"355 466 OFFCURVE",
"387 406 CURVE",
"396 410 LINE",
"359 518 OFFCURVE",
"256 606 OFFCURVE",
"89 698 CURVE",
"306 698 LINE",
"367 659 OFFCURVE",
"428 608 OFFCURVE",
"473 538 CURVE SMOOTH",
"518 468 OFFCURVE",
"548 381 OFFCURVE",
"548 274 CURVE SMOOTH"
);
},
{
closed = 1;
nodes = (
"357 98 OFFCURVE",
"395 141 OFFCURVE",
"395 217 CURVE SMOOTH",
"395 273 LINE SMOOTH",
"395 349 OFFCURVE",
"357 392 OFFCURVE",
"293 392 CURVE SMOOTH",
"229 392 OFFCURVE",
"191 349 OFFCURVE",
"191 273 CURVE SMOOTH",
"191 217 LINE SMOOTH",
"191 141 OFFCURVE",
"229 98 OFFCURVE",
"293 98 CURVE SMOOTH"
);
}
);
width = 587;
}
);
unicode = 2202;
},
{
glyphname = cent;
layers = (
{
layerId = "78D56DC8-6A23-4C9F-B1C5-F953A445AE64";
name = Bold;
paths = (
{
closed = 1;
nodes = (
"237 -114 LINE",
"237 -7 LINE",
"112 17 OFFCURVE",
"41 113 OFFCURVE",
"41 258 CURVE SMOOTH",
"41 403 OFFCURVE",
"113 500 OFFCURVE",
"237 523 CURVE",
"237 630 LINE",
"347 630 LINE",
"347 524 LINE",
"428 511 OFFCURVE",
"479 466 OFFCURVE",
"508 402 CURVE",
"402 344 LINE",
"389 373 OFFCURVE",
"369 399 OFFCURVE",
"338 411 CURVE",
"338 104 LINE",
"373 116 OFFCURVE",
"395 142 OFFCURVE",
"411 173 CURVE",
"516 114 LINE",
"485 50 OFFCURVE",
"431 4 OFFCURVE",
"347 -8 CURVE",
"347 -114 LINE"
);
},
{
closed = 1;
nodes = (
"182 216 LINE SMOOTH",
"182 163 OFFCURVE",
"204 123 OFFCURVE",
"247 106 CURVE",
"247 410 LINE",
"204 393 OFFCURVE",
"182 353 OFFCURVE",
"182 300 CURVE SMOOTH"
);
}
);
width = 552;
}
);
unicode = 00A2;
},
{
glyphname = Euro;
layers = (
{
layerId = "78D56DC8-6A23-4C9F-B1C5-F953A445AE64";
name = Bold;
paths = (
{
closed = 1;
nodes = (
"265 -12 OFFCURVE",
"189 22 OFFCURVE",
"135 83 CURVE SMOOTH",
"81 144 OFFCURVE",
"50 234 OFFCURVE",
"50 349 CURVE SMOOTH",
"50 462 OFFCURVE",
"81 554 OFFCURVE",
"135 615 CURVE SMOOTH",
"189 676 OFFCURVE",
"265 710 OFFCURVE",
"356 710 CURVE SMOOTH",
"423 710 OFFCURVE",
"470 695 OFFCURVE",
"506 673 CURVE SMOOTH",
"542 651 OFFCURVE",
"567 619 OFFCURVE",
"588 590 CURVE",
"479 511 LINE",
"450 563 OFFCURVE",
"415 589 OFFCURVE",
"356 589 CURVE SMOOTH",
"292 589 OFFCURVE",
"238 545 OFFCURVE",
"218 473 CURVE",
"448 473 LINE",
"448 383 LINE",
"210 383 LINE",
"210 315 LINE",
"448 315 LINE",
"448 225 LINE",
"218 225 LINE",
"237 149 OFFCURVE",
"289 109 OFFCURVE",
"356 109 CURVE SMOOTH",
"413 109 OFFCURVE",
"457 137 OFFCURVE",
"489 194 CURVE",
"598 114 LINE",
"578 83 OFFCURVE",
"552 52 OFFCURVE",
"513 28 CURVE SMOOTH",
"473 4 OFFCURVE",
"423 -12 OFFCURVE",
"356 -12 CURVE SMOOTH"
);
}
);
width = 627;
}
);
unicode = 20AC;
},
{
glyphname = florin;
layers = (
{
layerId = "78D56DC8-6A23-4C9F-B1C5-F953A445AE64";
name = Bold;
paths = (
{
closed = 1;
nodes = (
"17 -19 LINE",
"132 -19 LINE",
"160 251 LINE",
"54 251 LINE",
"66 371 LINE",
"172 371 LINE",
"190 546 LINE SMOOTH",
"199 634 OFFCURVE",
"255 698 OFFCURVE",
"362 698 CURVE SMOOTH",
"472 698 LINE",
"460 583 LINE",
"341 583 LINE",
"319 371 LINE",
"444 371 LINE",
"434 251 LINE",
"307 251 LINE",
"283 17 LINE SMOOTH",
"274 -71 OFFCURVE",
"219 -134 OFFCURVE",
"111 -134 CURVE SMOOTH",
"5 -134 LINE"
);
}
);
width = 484;
}
);
unicode = 0192;
},
{
glyphname = sterling;
layers = (
{
layerId = "78D56DC8-6A23-4C9F-B1C5-F953A445AE64";
name = Bold;
paths = (
{
closed = 1;
nodes = (
"66 0 LINE",
"66 136 LINE",
"117 159 OFFCURVE",
"149 201 OFFCURVE",
"149 258 CURVE SMOOTH",
"149 270 OFFCURVE",
"148 281 OFFCURVE",
"145 291 CURVE",
"34 291 LINE",
"34 411 LINE",
"100 411 LINE",
"89 439 OFFCURVE",
"82 470 OFFCURVE",
"82 505 CURVE SMOOTH",
"82 566 OFFCURVE",
"106 618 OFFCURVE",
"150 654 CURVE SMOOTH",
"194 690 OFFCURVE",
"256 710 OFFCURVE",
"332 710 CURVE SMOOTH",
"440 710 OFFCURVE",
"515 669 OFFCURVE",
"568 589 CURVE",
"458 512 LINE",
"421 560 OFFCURVE",
"384 579 OFFCURVE",
"336 579 CURVE SMOOTH",
"271 579 OFFCURVE",
"235 544 OFFCURVE",
"235 481 CURVE SMOOTH",
"235 454 OFFCURVE",
"241 434 OFFCURVE",
"249 411 CURVE",
"445 411 LINE",
"445 291 LINE",
"295 291 LINE",
"296 282 OFFCURVE",
"297 274 OFFCURVE",
"297 263 CURVE SMOOTH",
"297 228 OFFCURVE",
"287 201 OFFCURVE",
"272 181 CURVE SMOOTH",
"256 160 OFFCURVE",
"237 146 OFFCURVE",
"220 137 CURVE",
"220 128 LINE",
"554 128 LINE",
"554 0 LINE"
);
}
);
width = 582;
}
);
unicode = 00A3;
},
{
glyphname = dollar;
layers = (
{
layerId = "78D56DC8-6A23-4C9F-B1C5-F953A445AE64";
name = Bold;
paths = (
{
closed = 1;
nodes = (
"250 -82 LINE",
"250 10 LINE",
"149 19 OFFCURVE",
"83 59 OFFCURVE",
"32 115 CURVE",
"122 197 LINE",
"161 157 OFFCURVE",
"207 130 OFFCURVE",
"263 122 CURVE",
"263 302 LINE",
"112 333 OFFCURVE",
"52 399 OFFCURVE",
"52 496 CURVE SMOOTH",
"52 601 OFFCURVE",
"121 671 OFFCURVE",
"250 686 CURVE",
"250 780 LINE",
"364 780 LINE",
"364 686 LINE",
"444 677 OFFCURVE",
"503 647 OFFCURVE",
"547 596 CURVE",
"456 514 LINE",
"432 541 OFFCURVE",
"400 563 OFFCURVE",
"352 574 CURVE",
"352 408 LINE",
"493 376 OFFCURVE",
"559 320 OFFCURVE",
"559 217 CURVE SMOOTH",
"559 118 OFFCURVE",
"497 37 OFFCURVE",
"364 14 CURVE",
"364 -82 LINE"
);
},
{
closed = 1;
nodes = (
"190 461 OFFCURVE",
"212 443 OFFCURVE",
"263 428 CURVE",
"263 576 LINE",
"212 565 OFFCURVE",
"190 539 OFFCURVE",
"190 500 CURVE SMOOTH"
);
},
{
closed = 1;
nodes = (
"421 235 OFFCURVE",
"409 265 OFFCURVE",
"352 282 CURVE",
"352 124 LINE",
"399 137 OFFCURVE",
"421 167 OFFCURVE",
"421 206 CURVE SMOOTH"
);
}
);
width = 601;
}
);
unicode = 0024;
},
{
glyphname = yen;
layers = (
{
layerId = "78D56DC8-6A23-4C9F-B1C5-F953A445AE64";
name = Bold;
paths = (
{
closed = 1;
nodes = (
"399 133 LINE",
"399 0 LINE",
"246 0 LINE",
"246 133 LINE",
"78 133 LINE",
"78 223 LINE",
"246 223 LINE",
"246 291 LINE",
"78 291 LINE",
"78 381 LINE",
"188 381 LINE",
"19 698 LINE",
"191 698 LINE",
"329 423 LINE",
"331 423 LINE",
"468 698 LINE",
"631 698 LINE",
"457 381 LINE",
"567 381 LINE",
"567 291 LINE",
"399 291 LINE",
"399 223 LINE",
"567 223 LINE",
"567 133 LINE"
);
}
);
width = 650;
}
);
unicode = 00A5;
},
{
glyphname = uni0E3F;
layers = (
{
layerId = "78D56DC8-6A23-4C9F-B1C5-F953A445AE64";
name = Bold;
paths = (
{
closed = 1;
nodes = (
"390 -90 LINE",
"276 -90 LINE",
"276 20 LINE",
"77 20 LINE",
"77 678 LINE",
"276 678 LINE",
"276 780 LINE",
"390 780 LINE",
"390 678 LINE",
"427 678 LINE SMOOTH",
"535 678 OFFCURVE",
"600 612 OFFCURVE",
"600 509 CURVE SMOOTH",
"600 417 OFFCURVE",
"560 379 OFFCURVE",
"472 368 CURVE",
"472 362 LINE",
"515 359 OFFCURVE",
"553 347 OFFCURVE",
"581 323 CURVE",
"608 298 OFFCURVE",
"625 261 OFFCURVE",
"625 208 CURVE SMOOTH",
"625 156 OFFCURVE",
"607 109 OFFCURVE",
"577 75 CURVE SMOOTH",
"547 41 OFFCURVE",
"503 20 OFFCURVE",
"455 20 CURVE SMOOTH",
"390 20 LINE"
);
},
{
closed = 1;
nodes = (
"286 408 LINE",
"286 557 LINE",
"220 557 LINE",
"220 408 LINE"
);
},
{
closed = 1;
nodes = (
"381 408 LINE",
"391 408 LINE SMOOTH",
"430 408 OFFCURVE",
"452 428 OFFCURVE",
"452 467 CURVE SMOOTH",
"452 498 LINE SMOOTH",
"452 537 OFFCURVE",
"430 557 OFFCURVE",
"391 557 CURVE SMOOTH",
"381 557 LINE"
);
},
{
closed = 1;
nodes = (
"286 141 LINE",
"286 292 LINE",
"220 292 LINE",
"220 141 LINE"
);
},
{
closed = 1;
nodes = (
"381 141 LINE",
"415 141 LINE SMOOTH",
"454 141 OFFCURVE",
"477 162 OFFCURVE",
"477 201 CURVE SMOOTH",
"477 232 LINE SMOOTH",
"477 271 OFFCURVE",
"454 292 OFFCURVE",
"415 292 CURVE SMOOTH",
"381 292 LINE"
);
}
);
width = 665;
}
);
unicode = 0E3F;
},
{
glyphname = uni20A1;
layers = (
{
layerId = "78D56DC8-6A23-4C9F-B1C5-F953A445AE64";
name = Bold;
paths = (
{
closed = 1;
nodes = (
"323 9 LINE",
"308 10 OFFCURVE",
"294 13 OFFCURVE",
"281 16 CURVE",
"271 -82 LINE",
"201 -82 LINE",
"214 39 LINE",
"114 90 OFFCURVE",
"50 197 OFFCURVE",
"50 350 CURVE SMOOTH",
"50 531 OFFCURVE",
"137 648 OFFCURVE",
"280 681 CURVE",
"290 780 LINE",
"360 780 LINE",
"351 690 LINE",
"363 690 LINE SMOOTH",
"368 690 OFFCURVE",
"374 690 OFFCURVE",
"379 690 CURVE SMOOTH",
"384 690 OFFCURVE",
"389 690 OFFCURVE",
"394 689 CURVE",
"403 780 LINE",
"473 780 LINE",
"462 675 LINE",
"519 656 OFFCURVE",
"555 619 OFFCURVE",
"588 576 CURVE",
"486 502 LINE",
"475 520 OFFCURVE",
"462 534 OFFCURVE",
"447 545 CURVE",
"404 132 LINE",
"436 144 OFFCURVE",
"465 168 OFFCURVE",
"484 203 CURVE",
"587 127 LINE",
"571 102 OFFCURVE",
"547 75 OFFCURVE",
"515 54 CURVE SMOOTH",
"482 33 OFFCURVE",
"441 15 OFFCURVE",
"392 10 CURVE",
"383 -82 LINE",
"313 -82 LINE"
);
},
{
closed = 1;
nodes = (
"338 575 LINE",
"292 135 LINE",
"307 128 OFFCURVE",
"321 125 OFFCURVE",
"336 124 CURVE",
"382 572 LINE",
"373 575 OFFCURVE",
"357 575 OFFCURVE",
"346 575 CURVE SMOOTH"
);
},
{
closed = 1;
nodes = (
"202 291 LINE SMOOTH",
"202 250 OFFCURVE",
"212 214 OFFCURVE",
"231 187 CURVE",
"267 548 LINE",
"228 520 OFFCURVE",
"202 471 OFFCURVE",
"202 407 CURVE SMOOTH"
);
}
);
width = 617;
}
);
unicode = 20A1;
},
{
glyphname = uni20A4;
layers = (
{
layerId = "78D56DC8-6A23-4C9F-B1C5-F953A445AE64";
name = Bold;
paths = (
{
closed = 1;
nodes = (
"554 0 LINE",
"66 0 LINE",
"66 131 LINE",
"107 150 OFFCURVE",
"135 186 OFFCURVE",
"146 227 CURVE",
"34 227 LINE",
"34 317 LINE",
"138 317 LINE",
"135 328 OFFCURVE",
"131 340 OFFCURVE",
"126 351 CURVE SMOOTH",
"121 362 OFFCURVE",
"116 374 OFFCURVE",
"111 385 CURVE",
"34 385 LINE",
"34 475 LINE",
"84 475 LINE",
"83 486 OFFCURVE",
"82 494 OFFCURVE",
"82 505 CURVE SMOOTH",
"82 566 OFFCURVE",
"106 618 OFFCURVE",
"150 654 CURVE SMOOTH",
"194 690 OFFCURVE",
"256 710 OFFCURVE",
"332 710 CURVE SMOOTH",
"440 710 OFFCURVE",
"515 669 OFFCURVE",
"568 589 CURVE",
"458 516 LINE",
"421 564 OFFCURVE",
"384 583 OFFCURVE",
"336 583 CURVE SMOOTH",
"271 583 OFFCURVE",
"235 544 OFFCURVE",
"235 481 CURVE SMOOTH",
"235 475 LINE",
"425 475 LINE",
"425 385 LINE",
"260 385 LINE",
"271 362 OFFCURVE",
"281 341 OFFCURVE",
"288 317 CURVE",
"425 317 LINE",
"425 227 LINE",
"293 227 LINE",
"282 179 OFFCURVE",
"248 147 OFFCURVE",
"220 132 CURVE",
"220 123 LINE",
"554 123 LINE"
);
}
);
width = 582;
}
);
unicode = 20A4;
},
{
glyphname = uni20A6;
layers = (
{
layerId = "78D56DC8-6A23-4C9F-B1C5-F953A445AE64";
name = Bold;
paths = (
{
closed = 1;
nodes = (
"381 228 LINE",
"238 228 LINE",
"238 0 LINE",
"105 0 LINE",
"105 228 LINE",
"17 228 LINE",
"17 318 LINE",
"105 318 LINE",
"105 386 LINE",
"17 386 LINE",
"17 476 LINE",
"105 476 LINE",
"105 698 LINE",
"279 698 LINE",
"391 476 LINE",
"539 476 LINE",
"539 698 LINE",
"670 698 LINE",
"670 476 LINE",
"759 476 LINE",
"759 386 LINE",
"670 386 LINE",
"670 318 LINE",
"759 318 LINE",
"759 228 LINE",
"670 228 LINE",
"670 0 LINE",
"495 0 LINE"
);
},
{
closed = 1;
nodes = (
"338 314 LINE",
"241 514 LINE",
"238 514 LINE",
"238 314 LINE"
);
},
{
closed = 1;
nodes = (
"536 184 LINE",
"539 184 LINE",
"539 390 LINE",
"435 390 LINE"
);
}
);
width = 776;
}
);
unicode = 20A6;
},
{
glyphname = uni20A8;
layers = (
{
layerId = "78D56DC8-6A23-4C9F-B1C5-F953A445AE64";
name = Bold;
paths = (
{
closed = 1;
nodes = (
"77 0 LINE",
"77 698 LINE",
"313 698 LINE SMOOTH",
"442 698 OFFCURVE",
"524 622 OFFCURVE",
"524 493 CURVE SMOOTH",
"524 421 OFFCURVE",
"497 360 OFFCURVE",
"450 320 CURVE",
"516 195 LINE SMOOTH",
"551 131 OFFCURVE",
"590 103 OFFCURVE",
"634 103 CURVE SMOOTH",
"674 103 OFFCURVE",
"697 121 OFFCURVE",
"697 144 CURVE SMOOTH",
"697 168 OFFCURVE",
"688 186 OFFCURVE",
"657 213 CURVE SMOOTH",
"638 230 LINE SMOOTH",
"585 278 OFFCURVE",
"556 320 OFFCURVE",
"556 381 CURVE SMOOTH",
"556 429 OFFCURVE",
"574 468 OFFCURVE",
"606 495 CURVE SMOOTH",
"638 522 OFFCURVE",
"683 536 OFFCURVE",
"735 536 CURVE SMOOTH",
"778 536 OFFCURVE",
"824 529 OFFCURVE",
"861 506 CURVE",
"813 409 LINE",
"794 421 OFFCURVE",
"774 427 OFFCURVE",
"752 427 CURVE SMOOTH",
"721 427 OFFCURVE",
"696 415 OFFCURVE",
"696 386 CURVE SMOOTH",
"696 359 OFFCURVE",
"718 343 OFFCURVE",
"747 316 CURVE SMOOTH",
"766 299 LINE SMOOTH",
"819 250 OFFCURVE",
"844 213 OFFCURVE",
"844 150 CURVE SMOOTH",
"844 106 OFFCURVE",
"829 65 OFFCURVE",
"794 36 CURVE SMOOTH",
"758 7 OFFCURVE",
"702 -12 OFFCURVE",
"621 -12 CURVE SMOOTH",
"512 -12 OFFCURVE",
"438 24 OFFCURVE",
"391 120 CURVE SMOOTH",
"315 273 LINE",
"229 273 LINE",
"229 0 LINE"
);
},
{
closed = 1;
nodes = (
"293 396 LINE SMOOTH",
"340 396 OFFCURVE",
"367 417 OFFCURVE",
"367 464 CURVE SMOOTH",
"367 507 LINE SMOOTH",
"367 554 OFFCURVE",
"340 575 OFFCURVE",
"293 575 CURVE SMOOTH",
"229 575 LINE",
"229 396 LINE"
);
}
);
width = 893;
}
);
unicode = 20A8;
},
{
glyphname = uni20A9;
layers = (
{
layerId = "78D56DC8-6A23-4C9F-B1C5-F953A445AE64";
name = Bold;
paths = (
{
closed = 1;
nodes = (
"583 228 LINE",
"438 228 LINE",
"384 0 LINE",
"210 0 LINE",
"158 228 LINE",
"38 228 LINE",
"38 318 LINE",
"137 318 LINE",
"122 386 LINE",
"38 386 LINE",
"38 476 LINE",
"101 476 LINE",
"50 698 LINE",
"200 698 LINE",
"244 476 LINE",
"379 476 LINE",
"431 698 LINE",
"597 698 LINE",
"649 476 LINE",
"784 476 LINE",
"829 698 LINE",
"973 698 LINE",
"921 476 LINE",
"985 476 LINE",
"985 386 LINE",
"900 386 LINE",
"884 318 LINE",
"985 318 LINE",
"985 228 LINE",
"863 228 LINE",
"809 0 LINE",
"636 0 LINE"
);
},
{
closed = 1;
nodes = (
"352 358 LINE",
"359 390 LINE",
"261 390 LINE",
"267 357 LINE",
"305 165 LINE",
"308 165 LINE"
);
},
{
closed = 1;
nodes = (
"723 165 LINE",
"760 355 LINE",
"767 390 LINE",
"669 390 LINE",
"676 361 LINE",
"720 165 LINE"
);
},
{
closed = 1;
nodes = (
"458 314 LINE",
"563 314 LINE",
"554 353 LINE",
"512 533 LINE",
"509 533 LINE",
"467 354 LINE"
);
}
);
width = 1023;
}
);
unicode = 20A9;
},
{
glyphname = uni20AA;
layers = (
{
layerId = "78D56DC8-6A23-4C9F-B1C5-F953A445AE64";
name = Bold;
paths = (
{
closed = 1;
nodes = (
"286 505 LINE",
"421 505 LINE",
"421 123 LINE",
"637 123 LINE SMOOTH",
"684 123 OFFCURVE",
"704 155 OFFCURVE",
"704 199 CURVE SMOOTH",
"704 698 LINE",
"839 698 LINE",
"839 198 LINE SMOOTH",
"839 65 OFFCURVE",
"765 0 OFFCURVE",
"657 0 CURVE SMOOTH",
"286 0 LINE"
);
},
{
closed = 1;
nodes = (
"77 0 LINE",
"77 698 LINE",
"448 698 LINE SMOOTH",
"556 698 OFFCURVE",
"630 633 OFFCURVE",
"630 500 CURVE SMOOTH",
"630 191 LINE",
"495 191 LINE",
"495 499 LINE SMOOTH",
"495 543 OFFCURVE",
"477 575 OFFCURVE",
"428 575 CURVE SMOOTH",
"212 575 LINE",
"212 0 LINE"
);
}
);
width = 916;
}
);
unicode = 20AA;
},
{
glyphname = uni20AB;
layers = (
{
layerId = "78D56DC8-6A23-4C9F-B1C5-F953A445AE64";
name = Bold;
paths = (
{
closed = 1;
nodes = (
"338 238 LINE",
"332 238 LINE",
"321 217 OFFCURVE",
"307 197 OFFCURVE",
"286 182 CURVE SMOOTH",
"265 166 OFFCURVE",
"235 157 OFFCURVE",
"198 157 CURVE SMOOTH",
"150 157 OFFCURVE",
"110 171 OFFCURVE",
"82 203 CURVE SMOOTH",
"53 234 OFFCURVE",
"36 282 OFFCURVE",
"36 349 CURVE SMOOTH",
"36 416 OFFCURVE",
"53 464 OFFCURVE",
"82 496 CURVE SMOOTH",
"110 527 OFFCURVE",
"150 541 OFFCURVE",
"198 541 CURVE SMOOTH",
"274 541 OFFCURVE",
"311 506 OFFCURVE",
"332 459 CURVE",
"338 459 LINE",
"338 593 LINE",
"216 593 LINE",
"216 683 LINE",
"338 683 LINE",
"338 740 LINE",
"486 740 LINE",
"486 683 LINE",
"545 683 LINE",
"545 593 LINE",
"486 593 LINE",
"486 165 LINE",
"338 165 LINE"
);
},
{
closed = 1;
nodes = (
"311 261 OFFCURVE",
"338 288 OFFCURVE",
"338 316 CURVE SMOOTH",
"338 383 LINE SMOOTH",
"338 411 OFFCURVE",
"311 438 OFFCURVE",
"259 438 CURVE SMOOTH",
"207 438 OFFCURVE",
"180 409 OFFCURVE",
"180 366 CURVE SMOOTH",
"180 333 LINE SMOOTH",
"180 290 OFFCURVE",
"207 261 OFFCURVE",
"259 261 CURVE SMOOTH"
);
},
{
closed = 1;
nodes = (
"53 0 LINE",
"53 105 LINE",
"504 105 LINE",
"504 0 LINE"
);
}
);
width = 576;
}
);
unicode = 20AB;
},
{
glyphname = uni20AD;
layers = (
{
layerId = "78D56DC8-6A23-4C9F-B1C5-F953A445AE64";
name = Bold;
paths = (
{
closed = 1;
nodes = (
"247 0 LINE",
"95 0 LINE",
"95 291 LINE",
"6 291 LINE",
"6 411 LINE",
"95 411 LINE",
"95 698 LINE",
"247 698 LINE",
"247 411 LINE",
"285 411 LINE",
"473 698 LINE",
"645 698 LINE",
"443 411 LINE",
"624 411 LINE",
"624 291 LINE",
"456 291 LINE",
"672 0 LINE",
"492 0 LINE",
"287 291 LINE",
"247 291 LINE"
);
}
);
width = 684;
}
);
unicode = 20AD;
},
{
glyphname = uni20AE;
layers = (
{
layerId = "78D56DC8-6A23-4C9F-B1C5-F953A445AE64";
name = Bold;
paths = (
{
closed = 1;
nodes = (
"378 208 LINE",
"378 0 LINE",
"226 0 LINE",
"226 136 LINE",
"106 79 LINE",
"106 169 LINE",
"226 226 LINE",
"226 293 LINE",
"106 237 LINE",
"106 326 LINE",
"226 383 LINE",
"226 575 LINE",
"37 575 LINE",
"37 698 LINE",
"567 698 LINE",
"567 575 LINE",
"378 575 LINE",
"378 455 LINE",
"499 512 LINE",
"499 422 LINE",
"378 365 LINE",
"378 298 LINE",
"499 355 LINE",
"499 265 LINE"
);
}
);
width = 604;
}
);
unicode = 20AE;
},
{
glyphname = uni20B1;
layers = (
{
layerId = "78D56DC8-6A23-4C9F-B1C5-F953A445AE64";
name = Bold;
paths = (
{
closed = 1;
nodes = (
"257 0 LINE",
"105 0 LINE",
"105 311 LINE",
"16 311 LINE",
"16 391 LINE",
"105 391 LINE",
"105 459 LINE",
"16 459 LINE",
"16 539 LINE",
"105 539 LINE",
"105 698 LINE",
"387 698 LINE SMOOTH",
"488 698 OFFCURVE",
"558 654 OFFCURVE",
"583 539 CURVE",
"682 539 LINE",
"682 459 LINE",
"592 459 LINE",
"593 454 OFFCURVE",
"593 449 OFFCURVE",
"593 444 CURVE SMOOTH",
"593 439 OFFCURVE",
"593 433 OFFCURVE",
"593 428 CURVE SMOOTH",
"593 421 OFFCURVE",
"593 415 OFFCURVE",
"593 409 CURVE SMOOTH",
"593 403 OFFCURVE",
"593 397 OFFCURVE",
"592 391 CURVE",
"682 391 LINE",
"682 311 LINE",
"580 311 LINE",
"553 203 OFFCURVE",
"486 151 OFFCURVE",
"386 151 CURVE SMOOTH",
"257 151 LINE"
);
},
{
closed = 1;
nodes = (
"257 533 LINE",
"439 533 LINE",
"432 572 OFFCURVE",
"407 596 OFFCURVE",
"368 596 CURVE SMOOTH",
"257 596 LINE"
);
},
{
closed = 1;
nodes = (
"441 387 LINE",
"441 463 LINE",
"257 463 LINE",
"257 387 LINE"
);
},
{
closed = 1;
nodes = (
"368 251 LINE SMOOTH",
"407 251 OFFCURVE",
"432 276 OFFCURVE",
"439 317 CURVE",
"257 317 LINE",
"257 251 LINE"
);
}
);
width = 698;
}
);
unicode = 20B1;
},
{
glyphname = uni20B2;
layers = (
{
layerId = "78D56DC8-6A23-4C9F-B1C5-F953A445AE64";
name = Bold;
paths = (
{
closed = 1;
nodes = (
"197 -82 LINE",
"217 32 LINE",
"118 76 OFFCURVE",
"50 183 OFFCURVE",
"50 348 CURVE SMOOTH",
"50 453 OFFCURVE",
"78 537 OFFCURVE",
"127 595 CURVE SMOOTH",
"176 653 OFFCURVE",
"247 685 OFFCURVE",
"332 689 CURVE",
"347 780 LINE",
"462 780 LINE",
"444 676 LINE",
"515 655 OFFCURVE",
"568 608 OFFCURVE",
"603 537 CURVE",
"486 483 LINE",
"473 518 OFFCURVE",
"450 546 OFFCURVE",
"414 562 CURVE",
"384 387 LINE",
"615 387 LINE",
"615 250 LINE SMOOTH",
"615 162 OFFCURVE",
"574 102 OFFCURVE",
"518 63 CURVE SMOOTH",
"462 24 OFFCURVE",
"392 8 OFFCURVE",
"333 8 CURVE SMOOTH",
"328 8 LINE",
"312 -82 LINE"
);
},
{
closed = 1;
nodes = (
"202 297 LINE SMOOTH",
"202 230 OFFCURVE",
"219 186 OFFCURVE",
"248 158 CURVE",
"321 573 LINE",
"246 560 OFFCURVE",
"202 498 OFFCURVE",
"202 402 CURVE SMOOTH"
);
},
{
closed = 1;
nodes = (
"364 272 LINE",
"338 123 LINE",
"345 123 LINE SMOOTH",
"381 123 OFFCURVE",
"414 132 OFFCURVE",
"438 152 CURVE SMOOTH",
"462 172 OFFCURVE",
"478 202 OFFCURVE",
"478 245 CURVE SMOOTH",
"478 272 LINE"
);
}
);
width = 667;
}
);
unicode = 20B2;
},
{
glyphname = uni20B4;
layers = (
{
layerId = "78D56DC8-6A23-4C9F-B1C5-F953A445AE64";
name = Bold;
paths = (
{
closed = 1;
nodes = (
"259 -12 OFFCURVE",
"203 12 OFFCURVE",
"165 51 CURVE SMOOTH",
"127 90 OFFCURVE",
"107 142 OFFCURVE",
"107 199 CURVE SMOOTH",
"107 210 OFFCURVE",
"108 219 OFFCURVE",
"109 228 CURVE",
"38 228 LINE",
"38 318 LINE",
"146 318 LINE",
"275 386 LINE",
"38 386 LINE",
"38 476 LINE",
"397 476 LINE",
"400 486 OFFCURVE",
"402 497 OFFCURVE",
"402 508 CURVE SMOOTH",
"402 565 OFFCURVE",
"371 589 OFFCURVE",
"316 589 CURVE SMOOTH",
"268 589 OFFCURVE",
"223 569 OFFCURVE",
"192 534 CURVE",
"118 627 LINE",
"161 676 OFFCURVE",
"238 710 OFFCURVE",
"322 710 CURVE SMOOTH",
"390 710 OFFCURVE",
"444 689 OFFCURVE",
"481 654 CURVE SMOOTH",
"517 619 OFFCURVE",
"537 572 OFFCURVE",
"537 523 CURVE SMOOTH",
"537 508 OFFCURVE",
"536 492 OFFCURVE",
"532 476 CURVE",
"606 476 LINE",
"606 386 LINE",
"487 386 LINE",
"363 318 LINE",
"606 318 LINE",
"606 228 LINE",
"245 228 LINE",
"243 220 OFFCURVE",
"242 212 OFFCURVE",
"242 203 CURVE SMOOTH",
"242 138 OFFCURVE",
"280 106 OFFCURVE",
"341 106 CURVE SMOOTH",
"388 106 OFFCURVE",
"428 125 OFFCURVE",
"476 177 CURVE",
"552 84 LINE",
"505 28 OFFCURVE",
"431 -12 OFFCURVE",
"335 -12 CURVE SMOOTH"
);
}
);
width = 644;
}
);
unicode = 20B4;
},
{
glyphname = uni20B5;
layers = (
{
layerId = "78D56DC8-6A23-4C9F-B1C5-F953A445AE64";
name = Bold;
paths = (
{
closed = 1;
nodes = (
"199 -82 LINE",
"219 36 LINE",
"115 84 OFFCURVE",
"50 193 OFFCURVE",
"50 349 CURVE SMOOTH",
"50 450 OFFCURVE",
"79 534 OFFCURVE",
"129 592 CURVE SMOOTH",
"179 650 OFFCURVE",
"249 684 OFFCURVE",
"333 689 CURVE",
"349 780 LINE",
"464 780 LINE",
"446 678 LINE",
"509 659 OFFCURVE",
"549 620 OFFCURVE",
"578 576 CURVE",
"475 502 LINE",
"460 529 OFFCURVE",
"440 548 OFFCURVE",
"415 561 CURVE",
"339 123 LINE",
"352 123 LINE SMOOTH",
"405 123 OFFCURVE",
"445 150 OFFCURVE",
"474 203 CURVE",
"577 128 LINE",
"558 100 OFFCURVE",
"533 70 OFFCURVE",
"497 47 CURVE SMOOTH",
"460 23 OFFCURVE",
"413 8 OFFCURVE",
"352 8 CURVE SMOOTH",
"329 8 LINE",
"314 -82 LINE"
);
},
{
closed = 1;
nodes = (
"202 292 LINE SMOOTH",
"202 236 OFFCURVE",
"219 193 OFFCURVE",
"250 164 CURVE",
"322 573 LINE",
"253 558 OFFCURVE",
"202 499 OFFCURVE",
"202 407 CURVE SMOOTH"
);
}
);
width = 607;
}
);
unicode = 20B5;
},
{
glyphname = uni20B8;
layers = (
{
layerId = "78D56DC8-6A23-4C9F-B1C5-F953A445AE64";
name = Bold;
paths = (
{
closed = 1;
nodes = (
"37 593 LINE",
"37 698 LINE",
"567 698 LINE",
"567 593 LINE"
);
},
{
closed = 1;
nodes = (
"378 406 LINE",
"378 0 LINE",
"226 0 LINE",
"226 406 LINE",
"37 406 LINE",
"37 511 LINE",
"567 511 LINE",
"567 406 LINE"
);
}
);
width = 604;
}
);
unicode = 20B8;
},
{
glyphname = uni20B9;
layers = (
{
layerId = "78D56DC8-6A23-4C9F-B1C5-F953A445AE64";
name = Bold;
paths = (
{
closed = 1;
nodes = (
"346 0 LINE",
"181 219 LINE",
"62 219 LINE",
"62 324 LINE",
"223 324 LINE SMOOTH",
"284 324 OFFCURVE",
"316 351 OFFCURVE",
"321 406 CURVE",
"62 406 LINE",
"62 511 LINE",
"321 511 LINE",
"316 576 OFFCURVE",
"284 593 OFFCURVE",
"223 593 CURVE SMOOTH",
"62 593 LINE",
"62 698 LINE",
"592 698 LINE",
"592 593 LINE",
"388 593 LINE",
"388 589 LINE",
"419 585 OFFCURVE",
"450 555 OFFCURVE",
"465 511 CURVE",
"592 511 LINE",
"592 406 LINE",
"469 406 LINE",
"457 327 OFFCURVE",
"418 264 OFFCURVE",
"342 235 CURVE",
"531 0 LINE"
);
}
);
width = 629;
}
);
unicode = 20B9;
},
{
glyphname = uni20BA;
layers = (
{
layerId = "78D56DC8-6A23-4C9F-B1C5-F953A445AE64";
name = Bold;
paths = (
{
closed = 1;
nodes = (
"105 213 LINE",
"17 171 LINE",
"17 261 LINE",
"105 303 LINE",
"105 371 LINE",
"17 329 LINE",
"17 418 LINE",
"105 460 LINE",
"105 698 LINE",
"257 698 LINE",
"257 532 LINE",
"408 604 LINE",
"408 514 LINE",
"257 443 LINE",
"257 375 LINE",
"408 446 LINE",
"408 357 LINE",
"257 285 LINE",
"257 123 LINE",
"306 123 LINE SMOOTH",
"351 123 OFFCURVE",
"385 132 OFFCURVE",
"407 160 CURVE SMOOTH",
"429 188 OFFCURVE",
"440 233 OFFCURVE",
"440 305 CURVE",
"585 305 LINE",
"585 220 OFFCURVE",
"566 144 OFFCURVE",
"524 89 CURVE SMOOTH",
"482 33 OFFCURVE",
"416 0 OFFCURVE",
"325 0 CURVE SMOOTH",
"105 0 LINE"
);
}
);
width = 611;
}
);
unicode = 20BA;
},
{
glyphname = uni20BD;
layers = (
{
layerId = "78D56DC8-6A23-4C9F-B1C5-F953A445AE64";
name = Bold;
paths = (
{
closed = 1;
nodes = (
"256 103 LINE",
"256 0 LINE",
"104 0 LINE",
"104 103 LINE",
"16 103 LINE",
"16 208 LINE",
"104 208 LINE",
"104 290 LINE",
"16 290 LINE",
"16 395 LINE",
"104 395 LINE",
"104 698 LINE",
"415 698 LINE SMOOTH",
"546 698 OFFCURVE",
"625 625 OFFCURVE",
"625 494 CURVE SMOOTH",
"625 363 OFFCURVE",
"546 290 OFFCURVE",
"415 290 CURVE SMOOTH",
"256 290 LINE",
"256 208 LINE",
"470 208 LINE",
"470 103 LINE"
);
},
{
closed = 1;
nodes = (
"256 395 LINE",
"396 395 LINE SMOOTH",
"443 395 OFFCURVE",
"469 421 OFFCURVE",
"469 466 CURVE SMOOTH",
"469 510 LINE SMOOTH",
"469 555 OFFCURVE",
"441 575 OFFCURVE",
"396 575 CURVE SMOOTH",
"256 575 LINE"
);
}
);
width = 661;
}
);
unicode = 20BD;
},
{
glyphname = uni20BF;
layers = (
{
layerId = "78D56DC8-6A23-4C9F-B1C5-F953A445AE64";
name = Bold;
paths = (
{
closed = 1;
nodes = (
"354 20 LINE",
"287 20 LINE",
"287 -82 LINE",
"177 -82 LINE",
"177 20 LINE",
"77 20 LINE",
"77 678 LINE",
"177 678 LINE",
"177 780 LINE",
"287 780 LINE",
"287 678 LINE",
"354 678 LINE",
"354 780 LINE",
"464 780 LINE",
"464 675 LINE",
"551 660 OFFCURVE",
"600 600 OFFCURVE",
"600 509 CURVE SMOOTH",
"600 417 OFFCURVE",
"560 379 OFFCURVE",
"472 368 CURVE",
"472 362 LINE",
"517 359 OFFCURVE",
"555 346 OFFCURVE",
"583 322 CURVE",
"610 297 OFFCURVE",
"625 260 OFFCURVE",
"625 208 CURVE SMOOTH",
"625 157 OFFCURVE",
"608 111 OFFCURVE",
"579 78 CURVE SMOOTH",
"550 45 OFFCURVE",
"509 23 OFFCURVE",
"464 20 CURVE",
"464 -82 LINE",
"354 -82 LINE"
);
},
{
closed = 1;
nodes = (
"220 408 LINE",
"391 408 LINE SMOOTH",
"430 408 OFFCURVE",
"452 427 OFFCURVE",
"452 466 CURVE SMOOTH",
"452 499 LINE SMOOTH",
"452 538 OFFCURVE",
"430 557 OFFCURVE",
"391 557 CURVE SMOOTH",
"220 557 LINE"
);
},
{
closed = 1;
nodes = (
"220 141 LINE",
"415 141 LINE SMOOTH",
"454 141 OFFCURVE",
"477 161 OFFCURVE",
"477 200 CURVE SMOOTH",
"477 233 LINE SMOOTH",
"477 272 OFFCURVE",
"454 292 OFFCURVE",
"415 292 CURVE SMOOTH",
"220 292 LINE"
);
}
);
width = 665;
}
);
unicode = 20BF;
},
{
glyphname = fi;
layers = (
{
layerId = "78D56DC8-6A23-4C9F-B1C5-F953A445AE64";
name = Bold;
paths = (
{
closed = 1;
nodes = (
"95 410 LINE",
"21 410 LINE",
"21 525 LINE",
"95 525 LINE",
"95 587 LINE SMOOTH",
"95 688 OFFCURVE",
"149 740 OFFCURVE",
"252 740 CURVE SMOOTH",
"348 740 LINE",
"348 625 LINE",
"243 625 LINE",
"243 525 LINE",
"578 525 LINE",
"578 0 LINE",
"430 0 LINE",
"430 410 LINE",
"243 410 LINE",
"243 0 LINE",
"95 0 LINE"
);
},
{
closed = 1;
nodes = (
"444 581 OFFCURVE",
"418 611 OFFCURVE",
"418 654 CURVE SMOOTH",
"418 676 LINE SMOOTH",
"418 719 OFFCURVE",
"444 749 OFFCURVE",
"504 749 CURVE SMOOTH",
"564 749 OFFCURVE",
"590 719 OFFCURVE",
"590 676 CURVE SMOOTH",
"590 654 LINE SMOOTH",
"590 611 OFFCURVE",
"564 581 OFFCURVE",
"504 581 CURVE SMOOTH"
);
}
);
width = 647;
}
);
leftKerningGroup = f;
rightKerningGroup = i;
unicode = FB01;
},
{
glyphname = fl;
lastChange = "2018-11-02 14:35:17 +0000";
layers = (
{
layerId = "78D56DC8-6A23-4C9F-B1C5-F953A445AE64";
name = Bold;
paths = (
{
closed = 1;
nodes = (
"95 410 LINE",
"21 410 LINE",
"21 525 LINE",
"95 525 LINE",
"95 587 LINE SMOOTH",
"95 688 OFFCURVE",
"149 740 OFFCURVE",
"252 740 CURVE SMOOTH",
"348 740 LINE",
"348 625 LINE",
"243 625 LINE",
"243 525 LINE",
"348 525 LINE",
"348 410 LINE",
"243 410 LINE",
"243 0 LINE",
"95 0 LINE"
);
},
{
closed = 1;
nodes = (
"577 0 LINE SMOOTH",
"476 0 OFFCURVE",
"430 51 OFFCURVE",
"430 144 CURVE SMOOTH",
"430 740 LINE",
"578 740 LINE",
"578 115 LINE",
"644 115 LINE",
"644 0 LINE"
);
}
);
width = 664;
}
);
leftKerningGroup = f;
rightKerningGroup = l;
unicode = FB02;
},
{
glyphname = aacute;
lastChange = "2018-11-02 02:11:18 +0000";
layers = (
{
layerId = "78D56DC8-6A23-4C9F-B1C5-F953A445AE64";
name = Bold;
paths = (
{
closed = 1;
nodes = (
"285 579 LINE",
"197 622 LINE",
"296 816 LINE",
"419 755 LINE"
);
},
{
closed = 1;
nodes = (
"155 537 OFFCURVE",
"97 500 OFFCURVE",
"54 437 CURVE",
"142 359 LINE",
"165 391 OFFCURVE",
"196 421 OFFCURVE",
"255 421 CURVE SMOOTH",
"318 421 OFFCURVE",
"342 389 OFFCURVE",
"342 338 CURVE SMOOTH",
"342 305 LINE",
"259 305 LINE SMOOTH",
"120 305 OFFCURVE",
"34 252 OFFCURVE",
"34 141 CURVE SMOOTH",
"34 49 OFFCURVE",
"92 -12 OFFCURVE",
"197 -12 CURVE SMOOTH",
"277 -12 OFFCURVE",
"335 24 OFFCURVE",
"351 92 CURVE",
"357 92 LINE",
"357 0 LINE",
"490 0 LINE",
"490 345 LINE SMOOTH",
"490 470 OFFCURVE",
"415 537 OFFCURVE",
"266 537 CURVE SMOOTH"
);
},
{
closed = 1;
nodes = (
"342 111 OFFCURVE",
"301 91 OFFCURVE",
"252 91 CURVE SMOOTH",
"208 91 OFFCURVE",
"183 108 OFFCURVE",
"183 147 CURVE SMOOTH",
"183 162 LINE SMOOTH",
"183 201 OFFCURVE",
"212 221 OFFCURVE",
"270 221 CURVE SMOOTH",
"342 221 LINE",
"342 159 LINE SMOOTH"
);
}
);
width = 553;
}
);
leftKerningGroup = a;
rightKerningGroup = a;
unicode = 00E1;
},
{
glyphname = abreve;
lastChange = "2018-11-02 02:11:19 +0000";
layers = (
{
layerId = "78D56DC8-6A23-4C9F-B1C5-F953A445AE64";
name = Bold;
paths = (
{
closed = 1;
nodes = (
"210 579 OFFCURVE",
"168 604 OFFCURVE",
"139 637 CURVE SMOOTH",
"110 670 OFFCURVE",
"91 713 OFFCURVE",
"79 749 CURVE",
"160 791 LINE",
"180 758 LINE SMOOTH",
"209 710 OFFCURVE",
"234 682 OFFCURVE",
"269 682 CURVE SMOOTH",
"304 682 OFFCURVE",
"330 710 OFFCURVE",
"359 758 CURVE SMOOTH",
"379 791 LINE",
"459 749 LINE",
"447 713 OFFCURVE",
"428 670 OFFCURVE",
"397 637 CURVE SMOOTH",
"366 604 OFFCURVE",
"325 579 OFFCURVE",
"269 579 CURVE SMOOTH"
);
},
{
closed = 1;
nodes = (
"155 537 OFFCURVE",
"97 500 OFFCURVE",
"54 437 CURVE",
"142 359 LINE",
"165 391 OFFCURVE",
"196 421 OFFCURVE",
"255 421 CURVE SMOOTH",
"318 421 OFFCURVE",
"342 389 OFFCURVE",
"342 338 CURVE SMOOTH",
"342 305 LINE",
"259 305 LINE SMOOTH",
"120 305 OFFCURVE",
"34 252 OFFCURVE",
"34 141 CURVE SMOOTH",
"34 49 OFFCURVE",
"92 -12 OFFCURVE",
"197 -12 CURVE SMOOTH",
"277 -12 OFFCURVE",
"335 24 OFFCURVE",
"351 92 CURVE",
"357 92 LINE",
"357 0 LINE",
"490 0 LINE",
"490 345 LINE SMOOTH",
"490 470 OFFCURVE",
"415 537 OFFCURVE",
"266 537 CURVE SMOOTH"
);
},
{
closed = 1;
nodes = (
"342 111 OFFCURVE",
"301 91 OFFCURVE",
"252 91 CURVE SMOOTH",
"208 91 OFFCURVE",
"183 108 OFFCURVE",
"183 147 CURVE SMOOTH",
"183 162 LINE SMOOTH",
"183 201 OFFCURVE",
"212 221 OFFCURVE",
"270 221 CURVE SMOOTH",
"342 221 LINE",
"342 159 LINE SMOOTH"
);
}
);
width = 553;
}
);
leftKerningGroup = a;
rightKerningGroup = a;
unicode = 0103;
},
{
glyphname = acircumflex;
lastChange = "2018-11-02 02:11:20 +0000";
layers = (
{
layerId = "78D56DC8-6A23-4C9F-B1C5-F953A445AE64";
name = Bold;
paths = (
{
closed = 1;
nodes = (
"331 795 LINE",
"463 636 LINE",
"390 578 LINE",
"269 693 LINE",
"148 578 LINE",
"75 636 LINE",
"207 795 LINE"
);
},
{
closed = 1;
nodes = (
"155 537 OFFCURVE",
"97 500 OFFCURVE",
"54 437 CURVE",
"142 359 LINE",
"165 391 OFFCURVE",
"196 421 OFFCURVE",
"255 421 CURVE SMOOTH",
"318 421 OFFCURVE",
"342 389 OFFCURVE",
"342 338 CURVE SMOOTH",
"342 305 LINE",
"259 305 LINE SMOOTH",
"120 305 OFFCURVE",
"34 252 OFFCURVE",
"34 141 CURVE SMOOTH",
"34 49 OFFCURVE",
"92 -12 OFFCURVE",
"197 -12 CURVE SMOOTH",
"277 -12 OFFCURVE",
"335 24 OFFCURVE",
"351 92 CURVE",
"357 92 LINE",
"357 0 LINE",
"490 0 LINE",
"490 345 LINE SMOOTH",
"490 470 OFFCURVE",
"415 537 OFFCURVE",
"266 537 CURVE SMOOTH"
);
},
{
closed = 1;
nodes = (
"342 111 OFFCURVE",
"301 91 OFFCURVE",
"252 91 CURVE SMOOTH",
"208 91 OFFCURVE",
"183 108 OFFCURVE",
"183 147 CURVE SMOOTH",
"183 162 LINE SMOOTH",
"183 201 OFFCURVE",
"212 221 OFFCURVE",
"270 221 CURVE SMOOTH",
"342 221 LINE",
"342 159 LINE SMOOTH"
);
}
);
width = 553;
}
);
leftKerningGroup = a;
rightKerningGroup = a;
unicode = 00E2;
},
{
glyphname = adieresis;
lastChange = "2018-11-02 02:11:20 +0000";
layers = (
{
layerId = "78D56DC8-6A23-4C9F-B1C5-F953A445AE64";
name = Bold;
paths = (
{
closed = 1;
nodes = (
"99 600 OFFCURVE",
"79 628 OFFCURVE",
"79 663 CURVE SMOOTH",
"79 688 LINE SMOOTH",
"79 723 OFFCURVE",
"99 751 OFFCURVE",
"159 751 CURVE SMOOTH",
"219 751 OFFCURVE",
"239 723 OFFCURVE",
"239 688 CURVE SMOOTH",
"239 663 LINE SMOOTH",
"239 628 OFFCURVE",
"219 600 OFFCURVE",
"159 600 CURVE SMOOTH"
);
},
{
closed = 1;
nodes = (
"319 600 OFFCURVE",
"299 628 OFFCURVE",
"299 663 CURVE SMOOTH",
"299 688 LINE SMOOTH",
"299 723 OFFCURVE",
"319 751 OFFCURVE",
"379 751 CURVE SMOOTH",
"439 751 OFFCURVE",
"459 723 OFFCURVE",
"459 688 CURVE SMOOTH",
"459 663 LINE SMOOTH",
"459 628 OFFCURVE",
"439 600 OFFCURVE",
"379 600 CURVE SMOOTH"
);
},
{
closed = 1;
nodes = (
"155 537 OFFCURVE",
"97 500 OFFCURVE",
"54 437 CURVE",
"142 359 LINE",
"165 391 OFFCURVE",
"196 421 OFFCURVE",
"255 421 CURVE SMOOTH",
"318 421 OFFCURVE",
"342 389 OFFCURVE",
"342 338 CURVE SMOOTH",
"342 305 LINE",
"259 305 LINE SMOOTH",
"120 305 OFFCURVE",
"34 252 OFFCURVE",
"34 141 CURVE SMOOTH",
"34 49 OFFCURVE",
"92 -12 OFFCURVE",
"197 -12 CURVE SMOOTH",
"277 -12 OFFCURVE",
"335 24 OFFCURVE",
"351 92 CURVE",
"357 92 LINE",
"357 0 LINE",
"490 0 LINE",
"490 345 LINE SMOOTH",
"490 470 OFFCURVE",
"415 537 OFFCURVE",
"266 537 CURVE SMOOTH"
);
},
{
closed = 1;
nodes = (
"342 111 OFFCURVE",
"301 91 OFFCURVE",
"252 91 CURVE SMOOTH",
"208 91 OFFCURVE",
"183 108 OFFCURVE",
"183 147 CURVE SMOOTH",
"183 162 LINE SMOOTH",
"183 201 OFFCURVE",
"212 221 OFFCURVE",
"270 221 CURVE SMOOTH",
"342 221 LINE",
"342 159 LINE SMOOTH"
);
}
);
width = 553;
}
);
leftKerningGroup = a;
rightKerningGroup = a;
unicode = 00E4;
},
{
glyphname = uni1EA1;
lastChange = "2018-11-02 02:11:21 +0000";
layers = (
{
layerId = "78D56DC8-6A23-4C9F-B1C5-F953A445AE64";
name = Bold;
paths = (
{
closed = 1;
nodes = (
"209 -204 OFFCURVE",
"188 -176 OFFCURVE",
"188 -141 CURVE SMOOTH",
"188 -115 LINE SMOOTH",
"188 -80 OFFCURVE",
"209 -52 OFFCURVE",
"269 -52 CURVE SMOOTH",
"329 -52 OFFCURVE",
"350 -80 OFFCURVE",
"350 -115 CURVE SMOOTH",
"350 -141 LINE SMOOTH",
"350 -176 OFFCURVE",
"329 -204 OFFCURVE",
"269 -204 CURVE SMOOTH"
);
},
{
closed = 1;
nodes = (
"155 537 OFFCURVE",
"97 500 OFFCURVE",
"54 437 CURVE",
"142 359 LINE",
"165 391 OFFCURVE",
"196 421 OFFCURVE",
"255 421 CURVE SMOOTH",
"318 421 OFFCURVE",
"342 389 OFFCURVE",
"342 338 CURVE SMOOTH",
"342 305 LINE",
"259 305 LINE SMOOTH",
"120 305 OFFCURVE",
"34 252 OFFCURVE",
"34 141 CURVE SMOOTH",
"34 49 OFFCURVE",
"92 -12 OFFCURVE",
"197 -12 CURVE SMOOTH",
"277 -12 OFFCURVE",
"335 24 OFFCURVE",
"351 92 CURVE",
"357 92 LINE",
"357 0 LINE",
"490 0 LINE",
"490 345 LINE SMOOTH",
"490 470 OFFCURVE",
"415 537 OFFCURVE",
"266 537 CURVE SMOOTH"
);
},
{
closed = 1;
nodes = (
"342 111 OFFCURVE",
"301 91 OFFCURVE",
"252 91 CURVE SMOOTH",
"208 91 OFFCURVE",
"183 108 OFFCURVE",
"183 147 CURVE SMOOTH",
"183 162 LINE SMOOTH",
"183 201 OFFCURVE",
"212 221 OFFCURVE",
"270 221 CURVE SMOOTH",
"342 221 LINE",
"342 159 LINE SMOOTH"
);
}
);
width = 553;
}
);
leftKerningGroup = a;
rightKerningGroup = a;
unicode = 1EA1;
},
{
glyphname = agrave;
lastChange = "2018-11-02 02:11:21 +0000";
layers = (
{
layerId = "78D56DC8-6A23-4C9F-B1C5-F953A445AE64";
name = Bold;
paths = (
{
closed = 1;
nodes = (
"119 755 LINE",
"242 816 LINE",
"341 622 LINE",
"253 579 LINE"
);
},
{
closed = 1;
nodes = (
"155 537 OFFCURVE",
"97 500 OFFCURVE",
"54 437 CURVE",
"142 359 LINE",
"165 391 OFFCURVE",
"196 421 OFFCURVE",
"255 421 CURVE SMOOTH",
"318 421 OFFCURVE",
"342 389 OFFCURVE",
"342 338 CURVE SMOOTH",
"342 305 LINE",
"259 305 LINE SMOOTH",
"120 305 OFFCURVE",
"34 252 OFFCURVE",
"34 141 CURVE SMOOTH",
"34 49 OFFCURVE",
"92 -12 OFFCURVE",
"197 -12 CURVE SMOOTH",
"277 -12 OFFCURVE",
"335 24 OFFCURVE",
"351 92 CURVE",
"357 92 LINE",
"357 0 LINE",
"490 0 LINE",
"490 345 LINE SMOOTH",
"490 470 OFFCURVE",
"415 537 OFFCURVE",
"266 537 CURVE SMOOTH"
);
},
{
closed = 1;
nodes = (
"342 111 OFFCURVE",
"301 91 OFFCURVE",
"252 91 CURVE SMOOTH",
"208 91 OFFCURVE",
"183 108 OFFCURVE",
"183 147 CURVE SMOOTH",
"183 162 LINE SMOOTH",
"183 201 OFFCURVE",
"212 221 OFFCURVE",
"270 221 CURVE SMOOTH",
"342 221 LINE",
"342 159 LINE SMOOTH"
);
}
);
width = 553;
}
);
leftKerningGroup = a;
rightKerningGroup = a;
unicode = 00E0;
},
{
glyphname = uni1EA3;
lastChange = "2018-11-02 02:11:22 +0000";
layers = (
{
layerId = "78D56DC8-6A23-4C9F-B1C5-F953A445AE64";
name = Bold;
paths = (
{
closed = 1;
nodes = (
"148 802 LINE",
"291 802 LINE SMOOTH",
"328 802 OFFCURVE",
"353 793 OFFCURVE",
"368 780 CURVE SMOOTH",
"383 767 OFFCURVE",
"389 749 OFFCURVE",
"389 729 CURVE SMOOTH",
"389 690 OFFCURVE",
"365 643 OFFCURVE",
"332 603 CURVE SMOOTH",
"304 569 LINE",
"229 604 LINE",
"270 696 LINE",
"148 696 LINE"
);
},
{
closed = 1;
nodes = (
"155 537 OFFCURVE",
"97 500 OFFCURVE",
"54 437 CURVE",
"142 359 LINE",
"165 391 OFFCURVE",
"196 421 OFFCURVE",
"255 421 CURVE SMOOTH",
"318 421 OFFCURVE",
"342 389 OFFCURVE",
"342 338 CURVE SMOOTH",
"342 305 LINE",
"259 305 LINE SMOOTH",
"120 305 OFFCURVE",
"34 252 OFFCURVE",
"34 141 CURVE SMOOTH",
"34 49 OFFCURVE",
"92 -12 OFFCURVE",
"197 -12 CURVE SMOOTH",
"277 -12 OFFCURVE",
"335 24 OFFCURVE",
"351 92 CURVE",
"357 92 LINE",
"357 0 LINE",
"490 0 LINE",
"490 345 LINE SMOOTH",
"490 470 OFFCURVE",
"415 537 OFFCURVE",
"266 537 CURVE SMOOTH"
);
},
{
closed = 1;
nodes = (
"342 111 OFFCURVE",
"301 91 OFFCURVE",
"252 91 CURVE SMOOTH",
"208 91 OFFCURVE",
"183 108 OFFCURVE",
"183 147 CURVE SMOOTH",
"183 162 LINE SMOOTH",
"183 201 OFFCURVE",
"212 221 OFFCURVE",
"270 221 CURVE SMOOTH",
"342 221 LINE",
"342 159 LINE SMOOTH"
);
}
);
width = 553;
}
);
leftKerningGroup = a;
rightKerningGroup = a;
unicode = 1EA3;
},
{
glyphname = amacron;
lastChange = "2018-11-02 02:11:22 +0000";
layers = (
{
layerId = "78D56DC8-6A23-4C9F-B1C5-F953A445AE64";
name = Bold;
paths = (
{
closed = 1;
nodes = (
"116 727 LINE",
"422 727 LINE",
"422 624 LINE",
"116 624 LINE"
);
},
{
closed = 1;
nodes = (
"155 537 OFFCURVE",
"97 500 OFFCURVE",
"54 437 CURVE",
"142 359 LINE",
"165 391 OFFCURVE",
"196 421 OFFCURVE",
"255 421 CURVE SMOOTH",
"318 421 OFFCURVE",
"342 389 OFFCURVE",
"342 338 CURVE SMOOTH",
"342 305 LINE",
"259 305 LINE SMOOTH",
"120 305 OFFCURVE",
"34 252 OFFCURVE",
"34 141 CURVE SMOOTH",
"34 49 OFFCURVE",
"92 -12 OFFCURVE",
"197 -12 CURVE SMOOTH",
"277 -12 OFFCURVE",
"335 24 OFFCURVE",
"351 92 CURVE",
"357 92 LINE",
"357 0 LINE",
"490 0 LINE",
"490 345 LINE SMOOTH",
"490 470 OFFCURVE",
"415 537 OFFCURVE",
"266 537 CURVE SMOOTH"
);
},
{
closed = 1;
nodes = (
"342 111 OFFCURVE",
"301 91 OFFCURVE",
"252 91 CURVE SMOOTH",
"208 91 OFFCURVE",
"183 108 OFFCURVE",
"183 147 CURVE SMOOTH",
"183 162 LINE SMOOTH",
"183 201 OFFCURVE",
"212 221 OFFCURVE",
"270 221 CURVE SMOOTH",
"342 221 LINE",
"342 159 LINE SMOOTH"
);
}
);
width = 553;
}
);
leftKerningGroup = a;
rightKerningGroup = a;
unicode = 0101;
},
{
glyphname = aogonek;
lastChange = "2018-11-02 02:27:09 +0000";
layers = (
{
layerId = "78D56DC8-6A23-4C9F-B1C5-F953A445AE64";
name = Bold;
paths = (
{
closed = 1;
nodes = (
"342 111 OFFCURVE",
"301 91 OFFCURVE",
"252 91 CURVE SMOOTH",
"208 91 OFFCURVE",
"183 108 OFFCURVE",
"183 147 CURVE SMOOTH",
"183 162 LINE SMOOTH",
"183 201 OFFCURVE",
"212 221 OFFCURVE",
"270 221 CURVE SMOOTH",
"342 221 LINE",
"342 159 LINE SMOOTH"
);
},
{
closed = 1;
nodes = (
"395 -4 LINE",
"320 -39 OFFCURVE",
"276 -71 OFFCURVE",
"276 -127 CURVE SMOOTH",
"276 -159 OFFCURVE",
"290 -181 OFFCURVE",
"313 -193 CURVE SMOOTH",
"336 -206 OFFCURVE",
"367 -212 OFFCURVE",
"400 -212 CURVE SMOOTH",
"464 -212 OFFCURVE",
"505 -193 OFFCURVE",
"522 -161 CURVE",
"469 -110 LINE",
"454 -126 OFFCURVE",
"438 -138 OFFCURVE",
"414 -138 CURVE SMOOTH",
"394 -138 OFFCURVE",
"376 -130 OFFCURVE",
"376 -105 CURVE SMOOTH",
"376 -93 OFFCURVE",
"380 -82 OFFCURVE",
"396 -66 CURVE SMOOTH",
"412 -50 OFFCURVE",
"441 -31 OFFCURVE",
"490 0 CURVE",
"490 345 LINE SMOOTH",
"490 470 OFFCURVE",
"415 537 OFFCURVE",
"266 537 CURVE SMOOTH",
"155 537 OFFCURVE",
"97 500 OFFCURVE",
"54 437 CURVE",
"142 359 LINE",
"165 391 OFFCURVE",
"196 421 OFFCURVE",
"255 421 CURVE SMOOTH",
"318 421 OFFCURVE",
"342 389 OFFCURVE",
"342 338 CURVE SMOOTH",
"342 305 LINE",
"259 305 LINE SMOOTH",
"120 305 OFFCURVE",
"34 252 OFFCURVE",
"34 141 CURVE SMOOTH",
"34 49 OFFCURVE",
"92 -12 OFFCURVE",
"197 -12 CURVE SMOOTH",
"277 -12 OFFCURVE",
"335 24 OFFCURVE",
"351 92 CURVE",
"357 92 LINE",
"357 0 LINE",
"394 0 LINE"
);
}
);
width = 553;
}
);
leftKerningGroup = a;
rightKerningGroup = a;
unicode = 0105;
},
{
glyphname = aring;
lastChange = "2018-11-02 02:11:23 +0000";
layers = (
{
layerId = "78D56DC8-6A23-4C9F-B1C5-F953A445AE64";
name = Bold;
paths = (
{
closed = 1;
nodes = (
"228 558 OFFCURVE",
"191 573 OFFCURVE",
"164 598 CURVE SMOOTH",
"137 623 OFFCURVE",
"121 660 OFFCURVE",
"121 701 CURVE SMOOTH",
"121 742 OFFCURVE",
"137 779 OFFCURVE",
"164 804 CURVE SMOOTH",
"191 829 OFFCURVE",
"228 844 OFFCURVE",
"269 844 CURVE SMOOTH",
"310 844 OFFCURVE",
"347 829 OFFCURVE",
"374 804 CURVE SMOOTH",
"401 779 OFFCURVE",
"417 742 OFFCURVE",
"417 701 CURVE SMOOTH",
"417 660 OFFCURVE",
"401 623 OFFCURVE",
"374 598 CURVE SMOOTH",
"347 573 OFFCURVE",
"310 558 OFFCURVE",
"269 558 CURVE SMOOTH"
);
},
{
closed = 1;
nodes = (
"302 633 OFFCURVE",
"320 652 OFFCURVE",
"320 684 CURVE SMOOTH",
"320 718 LINE SMOOTH",
"320 750 OFFCURVE",
"302 769 OFFCURVE",
"269 769 CURVE SMOOTH",
"236 769 OFFCURVE",
"218 750 OFFCURVE",
"218 718 CURVE SMOOTH",
"218 684 LINE SMOOTH",
"218 652 OFFCURVE",
"236 633 OFFCURVE",
"269 633 CURVE SMOOTH"
);
},
{
closed = 1;
nodes = (
"155 537 OFFCURVE",
"97 500 OFFCURVE",
"54 437 CURVE",
"142 359 LINE",
"165 391 OFFCURVE",
"196 421 OFFCURVE",
"255 421 CURVE SMOOTH",
"318 421 OFFCURVE",
"342 389 OFFCURVE",
"342 338 CURVE SMOOTH",
"342 305 LINE",
"259 305 LINE SMOOTH",
"120 305 OFFCURVE",
"34 252 OFFCURVE",
"34 141 CURVE SMOOTH",
"34 49 OFFCURVE",
"92 -12 OFFCURVE",
"197 -12 CURVE SMOOTH",
"277 -12 OFFCURVE",
"335 24 OFFCURVE",
"351 92 CURVE",
"357 92 LINE",
"357 0 LINE",
"490 0 LINE",
"490 345 LINE SMOOTH",
"490 470 OFFCURVE",
"415 537 OFFCURVE",
"266 537 CURVE SMOOTH"
);
},
{
closed = 1;
nodes = (
"342 111 OFFCURVE",
"301 91 OFFCURVE",
"252 91 CURVE SMOOTH",
"208 91 OFFCURVE",
"183 108 OFFCURVE",
"183 147 CURVE SMOOTH",
"183 162 LINE SMOOTH",
"183 201 OFFCURVE",
"212 221 OFFCURVE",
"270 221 CURVE SMOOTH",
"342 221 LINE",
"342 159 LINE SMOOTH"
);
}
);
width = 553;
}
);
leftKerningGroup = a;
rightKerningGroup = a;
unicode = 00E5;
},
{
glyphname = aringacute;
lastChange = "2018-11-02 02:11:24 +0000";
layers = (
{
layerId = "78D56DC8-6A23-4C9F-B1C5-F953A445AE64";
name = Bold;
paths = (
{
closed = 1;
nodes = (
"262 815 LINE",
"209 872 LINE",
"338 989 LINE",
"412 908 LINE"
);
},
{
closed = 1;
nodes = (
"226 564 OFFCURVE",
"189 575 OFFCURVE",
"162 596 CURVE",
"134 616 OFFCURVE",
"117 645 OFFCURVE",
"117 684 CURVE SMOOTH",
"117 721 OFFCURVE",
"134 752 OFFCURVE",
"162 773 CURVE SMOOTH",
"189 793 OFFCURVE",
"226 804 OFFCURVE",
"269 804 CURVE SMOOTH",
"312 804 OFFCURVE",
"349 793 OFFCURVE",
"377 773 CURVE",
"404 752 OFFCURVE",
"421 721 OFFCURVE",
"421 684 CURVE SMOOTH",
"421 645 OFFCURVE",
"404 616 OFFCURVE",
"377 596 CURVE SMOOTH",
"349 575 OFFCURVE",
"312 564 OFFCURVE",
"269 564 CURVE SMOOTH"
);
},
{
closed = 1;
nodes = (
"306 634 OFFCURVE",
"324 649 OFFCURVE",
"324 679 CURVE SMOOTH",
"324 689 LINE SMOOTH",
"324 719 OFFCURVE",
"306 734 OFFCURVE",
"269 734 CURVE SMOOTH",
"232 734 OFFCURVE",
"214 719 OFFCURVE",
"214 689 CURVE SMOOTH",
"214 679 LINE SMOOTH",
"214 649 OFFCURVE",
"232 634 OFFCURVE",
"269 634 CURVE SMOOTH"
);
},
{
closed = 1;
nodes = (
"155 537 OFFCURVE",
"97 500 OFFCURVE",
"54 437 CURVE",
"142 359 LINE",
"165 391 OFFCURVE",
"196 421 OFFCURVE",
"255 421 CURVE SMOOTH",
"318 421 OFFCURVE",
"342 389 OFFCURVE",
"342 338 CURVE SMOOTH",
"342 305 LINE",
"259 305 LINE SMOOTH",
"120 305 OFFCURVE",
"34 252 OFFCURVE",
"34 141 CURVE SMOOTH",
"34 49 OFFCURVE",
"92 -12 OFFCURVE",
"197 -12 CURVE SMOOTH",
"277 -12 OFFCURVE",
"335 24 OFFCURVE",
"351 92 CURVE",
"357 92 LINE",
"357 0 LINE",
"490 0 LINE",
"490 345 LINE SMOOTH",
"490 470 OFFCURVE",
"415 537 OFFCURVE",
"266 537 CURVE SMOOTH"
);
},
{
closed = 1;
nodes = (
"342 111 OFFCURVE",
"301 91 OFFCURVE",
"252 91 CURVE SMOOTH",
"208 91 OFFCURVE",
"183 108 OFFCURVE",
"183 147 CURVE SMOOTH",
"183 162 LINE SMOOTH",
"183 201 OFFCURVE",
"212 221 OFFCURVE",
"270 221 CURVE SMOOTH",
"342 221 LINE",
"342 159 LINE SMOOTH"
);
}
);
width = 553;
}
);
leftKerningGroup = a;
rightKerningGroup = a;
unicode = 01FB;
},
{
glyphname = atilde;
lastChange = "2018-11-02 02:11:25 +0000";
layers = (
{
layerId = "78D56DC8-6A23-4C9F-B1C5-F953A445AE64";
name = Bold;
paths = (
{
closed = 1;
nodes = (
"314 601 OFFCURVE",
"293 610 OFFCURVE",
"268 621 CURVE SMOOTH",
"239 633 OFFCURVE",
"217 643 OFFCURVE",
"190 643 CURVE SMOOTH",
"167 643 OFFCURVE",
"152 635 OFFCURVE",
"131 618 CURVE",
"79 686 LINE",
"103 722 OFFCURVE",
"140 750 OFFCURVE",
"193 750 CURVE SMOOTH",
"224 750 OFFCURVE",
"245 741 OFFCURVE",
"270 730 CURVE SMOOTH",
"299 718 OFFCURVE",
"321 708 OFFCURVE",
"348 708 CURVE SMOOTH",
"371 708 OFFCURVE",
"386 716 OFFCURVE",
"407 733 CURVE",
"459 665 LINE",
"435 629 OFFCURVE",
"398 601 OFFCURVE",
"345 601 CURVE SMOOTH"
);
},
{
closed = 1;
nodes = (
"155 537 OFFCURVE",
"97 500 OFFCURVE",
"54 437 CURVE",
"142 359 LINE",
"165 391 OFFCURVE",
"196 421 OFFCURVE",
"255 421 CURVE SMOOTH",
"318 421 OFFCURVE",
"342 389 OFFCURVE",
"342 338 CURVE SMOOTH",
"342 305 LINE",
"259 305 LINE SMOOTH",
"120 305 OFFCURVE",
"34 252 OFFCURVE",
"34 141 CURVE SMOOTH",
"34 49 OFFCURVE",
"92 -12 OFFCURVE",
"197 -12 CURVE SMOOTH",
"277 -12 OFFCURVE",
"335 24 OFFCURVE",
"351 92 CURVE",
"357 92 LINE",
"357 0 LINE",
"490 0 LINE",
"490 345 LINE SMOOTH",
"490 470 OFFCURVE",
"415 537 OFFCURVE",
"266 537 CURVE SMOOTH"
);
},
{
closed = 1;
nodes = (
"342 111 OFFCURVE",
"301 91 OFFCURVE",
"252 91 CURVE SMOOTH",
"208 91 OFFCURVE",
"183 108 OFFCURVE",
"183 147 CURVE SMOOTH",
"183 162 LINE SMOOTH",
"183 201 OFFCURVE",
"212 221 OFFCURVE",
"270 221 CURVE SMOOTH",
"342 221 LINE",
"342 159 LINE SMOOTH"
);
}
);
width = 553;
}
);
leftKerningGroup = a;
rightKerningGroup = a;
unicode = 00E3;
},
{
glyphname = uni1EAF;
lastChange = "2018-11-02 02:11:25 +0000";
layers = (
{
layerId = "78D56DC8-6A23-4C9F-B1C5-F953A445AE64";
name = Bold;
paths = (
{
closed = 1;
nodes = (
"212 572 OFFCURVE",
"169 592 OFFCURVE",
"137 621 CURVE SMOOTH",
"105 650 OFFCURVE",
"83 686 OFFCURVE",
"70 721 CURVE",
"145 768 LINE",
"165 738 LINE SMOOTH",
"200 686 OFFCURVE",
"237 673 OFFCURVE",
"268 673 CURVE SMOOTH",
"303 673 OFFCURVE",
"336 687 OFFCURVE",
"371 738 CURVE SMOOTH",
"391 768 LINE",
"466 721 LINE",
"453 686 OFFCURVE",
"431 650 OFFCURVE",
"399 621 CURVE SMOOTH",
"367 592 OFFCURVE",
"324 572 OFFCURVE",
"268 572 CURVE SMOOTH"
);
},
{
closed = 1;
nodes = (
"288 733 LINE",
"209 772 LINE",
"305 966 LINE",
"418 909 LINE"
);
},
{
closed = 1;
nodes = (
"155 537 OFFCURVE",
"97 500 OFFCURVE",
"54 437 CURVE",
"142 359 LINE",
"165 391 OFFCURVE",
"196 421 OFFCURVE",
"255 421 CURVE SMOOTH",
"318 421 OFFCURVE",
"342 389 OFFCURVE",
"342 338 CURVE SMOOTH",
"342 305 LINE",
"259 305 LINE SMOOTH",
"120 305 OFFCURVE",
"34 252 OFFCURVE",
"34 141 CURVE SMOOTH",
"34 49 OFFCURVE",
"92 -12 OFFCURVE",
"197 -12 CURVE SMOOTH",
"277 -12 OFFCURVE",
"335 24 OFFCURVE",
"351 92 CURVE",
"357 92 LINE",
"357 0 LINE",
"490 0 LINE",
"490 345 LINE SMOOTH",
"490 470 OFFCURVE",
"415 537 OFFCURVE",
"266 537 CURVE SMOOTH"
);
},
{
closed = 1;
nodes = (
"342 111 OFFCURVE",
"301 91 OFFCURVE",
"252 91 CURVE SMOOTH",
"208 91 OFFCURVE",
"183 108 OFFCURVE",
"183 147 CURVE SMOOTH",
"183 162 LINE SMOOTH",
"183 201 OFFCURVE",
"212 221 OFFCURVE",
"270 221 CURVE SMOOTH",
"342 221 LINE",
"342 159 LINE SMOOTH"
);
}
);
width = 553;
}
);
leftKerningGroup = a;
rightKerningGroup = a;
unicode = 1EAF;
},
{
glyphname = uni1EB7;
lastChange = "2018-11-02 02:11:26 +0000";
layers = (
{
layerId = "78D56DC8-6A23-4C9F-B1C5-F953A445AE64";
name = Bold;
paths = (
{
closed = 1;
nodes = (
"210 579 OFFCURVE",
"168 604 OFFCURVE",
"139 637 CURVE SMOOTH",
"110 670 OFFCURVE",
"91 713 OFFCURVE",
"79 749 CURVE",
"160 791 LINE",
"180 758 LINE SMOOTH",
"209 710 OFFCURVE",
"234 682 OFFCURVE",
"269 682 CURVE SMOOTH",
"304 682 OFFCURVE",
"330 710 OFFCURVE",
"359 758 CURVE SMOOTH",
"379 791 LINE",
"459 749 LINE",
"447 713 OFFCURVE",
"428 670 OFFCURVE",
"397 637 CURVE SMOOTH",
"366 604 OFFCURVE",
"325 579 OFFCURVE",
"269 579 CURVE SMOOTH"
);
},
{
closed = 1;
nodes = (
"209 -204 OFFCURVE",
"188 -176 OFFCURVE",
"188 -141 CURVE SMOOTH",
"188 -115 LINE SMOOTH",
"188 -80 OFFCURVE",
"209 -52 OFFCURVE",
"269 -52 CURVE SMOOTH",
"329 -52 OFFCURVE",
"350 -80 OFFCURVE",
"350 -115 CURVE SMOOTH",
"350 -141 LINE SMOOTH",
"350 -176 OFFCURVE",
"329 -204 OFFCURVE",
"269 -204 CURVE SMOOTH"
);
},
{
closed = 1;
nodes = (
"155 537 OFFCURVE",
"97 500 OFFCURVE",
"54 437 CURVE",
"142 359 LINE",
"165 391 OFFCURVE",
"196 421 OFFCURVE",
"255 421 CURVE SMOOTH",
"318 421 OFFCURVE",
"342 389 OFFCURVE",
"342 338 CURVE SMOOTH",
"342 305 LINE",
"259 305 LINE SMOOTH",
"120 305 OFFCURVE",
"34 252 OFFCURVE",
"34 141 CURVE SMOOTH",
"34 49 OFFCURVE",
"92 -12 OFFCURVE",
"197 -12 CURVE SMOOTH",
"277 -12 OFFCURVE",
"335 24 OFFCURVE",
"351 92 CURVE",
"357 92 LINE",
"357 0 LINE",
"490 0 LINE",
"490 345 LINE SMOOTH",
"490 470 OFFCURVE",
"415 537 OFFCURVE",
"266 537 CURVE SMOOTH"
);
},
{
closed = 1;
nodes = (
"342 111 OFFCURVE",
"301 91 OFFCURVE",
"252 91 CURVE SMOOTH",
"208 91 OFFCURVE",
"183 108 OFFCURVE",
"183 147 CURVE SMOOTH",
"183 162 LINE SMOOTH",
"183 201 OFFCURVE",
"212 221 OFFCURVE",
"270 221 CURVE SMOOTH",
"342 221 LINE",
"342 159 LINE SMOOTH"
);
}
);
width = 553;
}
);
leftKerningGroup = a;
rightKerningGroup = a;
unicode = 1EB7;
},
{
glyphname = uni1EB1;
lastChange = "2018-11-02 02:11:27 +0000";
layers = (
{
layerId = "78D56DC8-6A23-4C9F-B1C5-F953A445AE64";
name = Bold;
paths = (
{
closed = 1;
nodes = (
"212 572 OFFCURVE",
"169 592 OFFCURVE",
"137 621 CURVE SMOOTH",
"105 650 OFFCURVE",
"83 686 OFFCURVE",
"70 721 CURVE",
"145 768 LINE",
"165 738 LINE SMOOTH",
"200 686 OFFCURVE",
"237 673 OFFCURVE",
"268 673 CURVE SMOOTH",
"303 673 OFFCURVE",
"336 687 OFFCURVE",
"371 738 CURVE SMOOTH",
"391 768 LINE",
"466 721 LINE",
"453 686 OFFCURVE",
"431 650 OFFCURVE",
"399 621 CURVE SMOOTH",
"367 592 OFFCURVE",
"324 572 OFFCURVE",
"268 572 CURVE SMOOTH"
);
},
{
closed = 1;
nodes = (
"121 909 LINE",
"232 966 LINE",
"328 774 LINE",
"248 733 LINE"
);
},
{
closed = 1;
nodes = (
"155 537 OFFCURVE",
"97 500 OFFCURVE",
"54 437 CURVE",
"142 359 LINE",
"165 391 OFFCURVE",
"196 421 OFFCURVE",
"255 421 CURVE SMOOTH",
"318 421 OFFCURVE",
"342 389 OFFCURVE",
"342 338 CURVE SMOOTH",
"342 305 LINE",
"259 305 LINE SMOOTH",
"120 305 OFFCURVE",
"34 252 OFFCURVE",
"34 141 CURVE SMOOTH",
"34 49 OFFCURVE",
"92 -12 OFFCURVE",
"197 -12 CURVE SMOOTH",
"277 -12 OFFCURVE",
"335 24 OFFCURVE",
"351 92 CURVE",
"357 92 LINE",
"357 0 LINE",
"490 0 LINE",
"490 345 LINE SMOOTH",
"490 470 OFFCURVE",
"415 537 OFFCURVE",
"266 537 CURVE SMOOTH"
);
},
{
closed = 1;
nodes = (
"342 111 OFFCURVE",
"301 91 OFFCURVE",
"252 91 CURVE SMOOTH",
"208 91 OFFCURVE",
"183 108 OFFCURVE",
"183 147 CURVE SMOOTH",
"183 162 LINE SMOOTH",
"183 201 OFFCURVE",
"212 221 OFFCURVE",
"270 221 CURVE SMOOTH",
"342 221 LINE",
"342 159 LINE SMOOTH"
);
}
);
width = 553;
}
);
leftKerningGroup = a;
rightKerningGroup = a;
unicode = 1EB1;
},
{
glyphname = uni1EB3;
lastChange = "2018-11-02 02:11:28 +0000";
layers = (
{
layerId = "78D56DC8-6A23-4C9F-B1C5-F953A445AE64";
name = Bold;
paths = (
{
closed = 1;
nodes = (
"212 572 OFFCURVE",
"169 592 OFFCURVE",
"137 621 CURVE SMOOTH",
"105 650 OFFCURVE",
"83 686 OFFCURVE",
"70 721 CURVE",
"145 768 LINE",
"165 738 LINE SMOOTH",
"200 686 OFFCURVE",
"237 673 OFFCURVE",
"268 673 CURVE SMOOTH",
"303 673 OFFCURVE",
"336 687 OFFCURVE",
"371 738 CURVE SMOOTH",
"391 768 LINE",
"466 721 LINE",
"453 686 OFFCURVE",
"431 650 OFFCURVE",
"399 621 CURVE SMOOTH",
"367 592 OFFCURVE",
"324 572 OFFCURVE",
"268 572 CURVE SMOOTH"
);
},
{
closed = 1;
nodes = (
"138 952 LINE",
"274 952 LINE SMOOTH",
"311 952 OFFCURVE",
"336 943 OFFCURVE",
"351 930 CURVE SMOOTH",
"366 917 OFFCURVE",
"372 899 OFFCURVE",
"372 880 CURVE SMOOTH",
"372 840 OFFCURVE",
"343 794 OFFCURVE",
"310 753 CURVE SMOOTH",
"283 720 LINE",
"217 752 LINE",
"260 851 LINE",
"138 851 LINE"
);
},
{
closed = 1;
nodes = (
"155 537 OFFCURVE",
"97 500 OFFCURVE",
"54 437 CURVE",
"142 359 LINE",
"165 391 OFFCURVE",
"196 421 OFFCURVE",
"255 421 CURVE SMOOTH",
"318 421 OFFCURVE",
"342 389 OFFCURVE",
"342 338 CURVE SMOOTH",
"342 305 LINE",
"259 305 LINE SMOOTH",
"120 305 OFFCURVE",
"34 252 OFFCURVE",
"34 141 CURVE SMOOTH",
"34 49 OFFCURVE",
"92 -12 OFFCURVE",
"197 -12 CURVE SMOOTH",
"277 -12 OFFCURVE",
"335 24 OFFCURVE",
"351 92 CURVE",
"357 92 LINE",
"357 0 LINE",
"490 0 LINE",
"490 345 LINE SMOOTH",
"490 470 OFFCURVE",
"415 537 OFFCURVE",
"266 537 CURVE SMOOTH"
);
},
{
closed = 1;
nodes = (
"342 111 OFFCURVE",
"301 91 OFFCURVE",
"252 91 CURVE SMOOTH",
"208 91 OFFCURVE",
"183 108 OFFCURVE",
"183 147 CURVE SMOOTH",
"183 162 LINE SMOOTH",
"183 201 OFFCURVE",
"212 221 OFFCURVE",
"270 221 CURVE SMOOTH",
"342 221 LINE",
"342 159 LINE SMOOTH"
);
}
);
width = 553;
}
);
leftKerningGroup = a;
rightKerningGroup = a;
unicode = 1EB3;
},
{
glyphname = uni1EB5;
lastChange = "2018-11-02 02:11:28 +0000";
layers = (
{
layerId = "78D56DC8-6A23-4C9F-B1C5-F953A445AE64";
name = Bold;
paths = (
{
closed = 1;
nodes = (
"212 572 OFFCURVE",
"169 592 OFFCURVE",
"137 621 CURVE SMOOTH",
"105 650 OFFCURVE",
"83 686 OFFCURVE",
"70 721 CURVE",
"145 768 LINE",
"165 738 LINE SMOOTH",
"200 686 OFFCURVE",
"237 673 OFFCURVE",
"268 673 CURVE SMOOTH",
"303 673 OFFCURVE",
"336 687 OFFCURVE",
"371 738 CURVE SMOOTH",
"391 768 LINE",
"466 721 LINE",
"453 686 OFFCURVE",
"431 650 OFFCURVE",
"399 621 CURVE SMOOTH",
"367 592 OFFCURVE",
"324 572 OFFCURVE",
"268 572 CURVE SMOOTH"
);
},
{
closed = 1;
nodes = (
"311 788 OFFCURVE",
"290 795 OFFCURVE",
"266 806 CURVE SMOOTH",
"238 818 OFFCURVE",
"216 828 OFFCURVE",
"191 828 CURVE SMOOTH",
"168 828 OFFCURVE",
"153 821 OFFCURVE",
"132 804 CURVE",
"82 868 LINE",
"106 904 OFFCURVE",
"143 931 OFFCURVE",
"196 931 CURVE SMOOTH",
"225 931 OFFCURVE",
"246 922 OFFCURVE",
"270 911 CURVE",
"298 900 OFFCURVE",
"319 891 OFFCURVE",
"344 891 CURVE SMOOTH",
"367 891 OFFCURVE",
"382 899 OFFCURVE",
"403 916 CURVE",
"453 852 LINE",
"429 816 OFFCURVE",
"392 788 OFFCURVE",
"339 788 CURVE SMOOTH"
);
},
{
closed = 1;
nodes = (
"155 537 OFFCURVE",
"97 500 OFFCURVE",
"54 437 CURVE",
"142 359 LINE",
"165 391 OFFCURVE",
"196 421 OFFCURVE",
"255 421 CURVE SMOOTH",
"318 421 OFFCURVE",
"342 389 OFFCURVE",
"342 338 CURVE SMOOTH",
"342 305 LINE",
"259 305 LINE SMOOTH",
"120 305 OFFCURVE",
"34 252 OFFCURVE",
"34 141 CURVE SMOOTH",
"34 49 OFFCURVE",
"92 -12 OFFCURVE",
"197 -12 CURVE SMOOTH",
"277 -12 OFFCURVE",
"335 24 OFFCURVE",
"351 92 CURVE",
"357 92 LINE",
"357 0 LINE",
"490 0 LINE",
"490 345 LINE SMOOTH",
"490 470 OFFCURVE",
"415 537 OFFCURVE",
"266 537 CURVE SMOOTH"
);
},
{
closed = 1;
nodes = (
"342 111 OFFCURVE",
"301 91 OFFCURVE",
"252 91 CURVE SMOOTH",
"208 91 OFFCURVE",
"183 108 OFFCURVE",
"183 147 CURVE SMOOTH",
"183 162 LINE SMOOTH",
"183 201 OFFCURVE",
"212 221 OFFCURVE",
"270 221 CURVE SMOOTH",
"342 221 LINE",
"342 159 LINE SMOOTH"
);
}
);
width = 553;
}
);
leftKerningGroup = a;
rightKerningGroup = a;
unicode = 1EB5;
},
{
glyphname = uni1EA5;
lastChange = "2018-11-02 02:11:29 +0000";
layers = (
{
layerId = "78D56DC8-6A23-4C9F-B1C5-F953A445AE64";
name = Bold;
paths = (
{
closed = 1;
nodes = (
"441 733 LINE",
"362 772 LINE",
"461 966 LINE",
"575 909 LINE"
);
},
{
closed = 1;
nodes = (
"315 781 LINE",
"460 634 LINE",
"392 570 LINE",
"268 674 LINE",
"144 570 LINE",
"76 634 LINE",
"221 781 LINE"
);
},
{
closed = 1;
nodes = (
"155 537 OFFCURVE",
"97 500 OFFCURVE",
"54 437 CURVE",
"142 359 LINE",
"165 391 OFFCURVE",
"196 421 OFFCURVE",
"255 421 CURVE SMOOTH",
"318 421 OFFCURVE",
"342 389 OFFCURVE",
"342 338 CURVE SMOOTH",
"342 305 LINE",
"259 305 LINE SMOOTH",
"120 305 OFFCURVE",
"34 252 OFFCURVE",
"34 141 CURVE SMOOTH",
"34 49 OFFCURVE",
"92 -12 OFFCURVE",
"197 -12 CURVE SMOOTH",
"277 -12 OFFCURVE",
"335 24 OFFCURVE",
"351 92 CURVE",
"357 92 LINE",
"357 0 LINE",
"490 0 LINE",
"490 345 LINE SMOOTH",
"490 470 OFFCURVE",
"415 537 OFFCURVE",
"266 537 CURVE SMOOTH"
);
},
{
closed = 1;
nodes = (
"342 111 OFFCURVE",
"301 91 OFFCURVE",
"252 91 CURVE SMOOTH",
"208 91 OFFCURVE",
"183 108 OFFCURVE",
"183 147 CURVE SMOOTH",
"183 162 LINE SMOOTH",
"183 201 OFFCURVE",
"212 221 OFFCURVE",
"270 221 CURVE SMOOTH",
"342 221 LINE",
"342 159 LINE SMOOTH"
);
}
);
width = 553;
}
);
leftKerningGroup = a;
rightKerningGroup = a;
unicode = 1EA5;
},
{
glyphname = uni1EAD;
lastChange = "2018-11-02 02:11:30 +0000";
layers = (
{
layerId = "78D56DC8-6A23-4C9F-B1C5-F953A445AE64";
name = Bold;
paths = (
{
closed = 1;
nodes = (
"331 795 LINE",
"463 636 LINE",
"390 578 LINE",
"269 693 LINE",
"148 578 LINE",
"75 636 LINE",
"207 795 LINE"
);
},
{
closed = 1;
nodes = (
"209 -204 OFFCURVE",
"188 -176 OFFCURVE",
"188 -141 CURVE SMOOTH",
"188 -115 LINE SMOOTH",
"188 -80 OFFCURVE",
"209 -52 OFFCURVE",
"269 -52 CURVE SMOOTH",
"329 -52 OFFCURVE",
"350 -80 OFFCURVE",
"350 -115 CURVE SMOOTH",
"350 -141 LINE SMOOTH",
"350 -176 OFFCURVE",
"329 -204 OFFCURVE",
"269 -204 CURVE SMOOTH"
);
},
{
closed = 1;
nodes = (
"155 537 OFFCURVE",
"97 500 OFFCURVE",
"54 437 CURVE",
"142 359 LINE",
"165 391 OFFCURVE",
"196 421 OFFCURVE",
"255 421 CURVE SMOOTH",
"318 421 OFFCURVE",
"342 389 OFFCURVE",
"342 338 CURVE SMOOTH",
"342 305 LINE",
"259 305 LINE SMOOTH",
"120 305 OFFCURVE",
"34 252 OFFCURVE",
"34 141 CURVE SMOOTH",
"34 49 OFFCURVE",
"92 -12 OFFCURVE",
"197 -12 CURVE SMOOTH",
"277 -12 OFFCURVE",
"335 24 OFFCURVE",
"351 92 CURVE",
"357 92 LINE",
"357 0 LINE",
"490 0 LINE",
"490 345 LINE SMOOTH",
"490 470 OFFCURVE",
"415 537 OFFCURVE",
"266 537 CURVE SMOOTH"
);
},
{
closed = 1;
nodes = (
"342 111 OFFCURVE",
"301 91 OFFCURVE",
"252 91 CURVE SMOOTH",
"208 91 OFFCURVE",
"183 108 OFFCURVE",
"183 147 CURVE SMOOTH",
"183 162 LINE SMOOTH",
"183 201 OFFCURVE",
"212 221 OFFCURVE",
"270 221 CURVE SMOOTH",
"342 221 LINE",
"342 159 LINE SMOOTH"
);
}
);
width = 553;
}
);
leftKerningGroup = a;
rightKerningGroup = a;
unicode = 1EAD;
},
{
glyphname = uni1EA7;
lastChange = "2018-11-02 02:11:30 +0000";
layers = (
{
layerId = "78D56DC8-6A23-4C9F-B1C5-F953A445AE64";
name = Bold;
paths = (
{
closed = 1;
nodes = (
"-39 909 LINE",
"75 966 LINE",
"174 772 LINE",
"95 733 LINE"
);
},
{
closed = 1;
nodes = (
"315 781 LINE",
"460 634 LINE",
"392 570 LINE",
"268 674 LINE",
"144 570 LINE",
"76 634 LINE",
"221 781 LINE"
);
},
{
closed = 1;
nodes = (
"155 537 OFFCURVE",
"97 500 OFFCURVE",
"54 437 CURVE",
"142 359 LINE",
"165 391 OFFCURVE",
"196 421 OFFCURVE",
"255 421 CURVE SMOOTH",
"318 421 OFFCURVE",
"342 389 OFFCURVE",
"342 338 CURVE SMOOTH",
"342 305 LINE",
"259 305 LINE SMOOTH",
"120 305 OFFCURVE",
"34 252 OFFCURVE",
"34 141 CURVE SMOOTH",
"34 49 OFFCURVE",
"92 -12 OFFCURVE",
"197 -12 CURVE SMOOTH",
"277 -12 OFFCURVE",
"335 24 OFFCURVE",
"351 92 CURVE",
"357 92 LINE",
"357 0 LINE",
"490 0 LINE",
"490 345 LINE SMOOTH",
"490 470 OFFCURVE",
"415 537 OFFCURVE",
"266 537 CURVE SMOOTH"
);
},
{
closed = 1;
nodes = (
"342 111 OFFCURVE",
"301 91 OFFCURVE",
"252 91 CURVE SMOOTH",
"208 91 OFFCURVE",
"183 108 OFFCURVE",
"183 147 CURVE SMOOTH",
"183 162 LINE SMOOTH",
"183 201 OFFCURVE",
"212 221 OFFCURVE",
"270 221 CURVE SMOOTH",
"342 221 LINE",
"342 159 LINE SMOOTH"
);
}
);
width = 553;
}
);
leftKerningGroup = a;
rightKerningGroup = a;
unicode = 1EA7;
},
{
glyphname = uni1EA9;
lastChange = "2018-11-02 02:11:31 +0000";
layers = (
{
layerId = "78D56DC8-6A23-4C9F-B1C5-F953A445AE64";
name = Bold;
paths = (
{
closed = 1;
nodes = (
"306 952 LINE",
"440 952 LINE SMOOTH",
"477 952 OFFCURVE",
"501 943 OFFCURVE",
"517 930 CURVE SMOOTH",
"532 917 OFFCURVE",
"538 899 OFFCURVE",
"538 880 CURVE SMOOTH",
"538 840 OFFCURVE",
"508 793 OFFCURVE",
"475 753 CURVE SMOOTH",
"448 720 LINE",
"382 754 LINE",
"425 851 LINE",
"306 851 LINE"
);
},
{
closed = 1;
nodes = (
"315 781 LINE",
"460 634 LINE",
"392 570 LINE",
"268 674 LINE",
"144 570 LINE",
"76 634 LINE",
"221 781 LINE"
);
},
{
closed = 1;
nodes = (
"155 537 OFFCURVE",
"97 500 OFFCURVE",
"54 437 CURVE",
"142 359 LINE",
"165 391 OFFCURVE",
"196 421 OFFCURVE",
"255 421 CURVE SMOOTH",
"318 421 OFFCURVE",
"342 389 OFFCURVE",
"342 338 CURVE SMOOTH",
"342 305 LINE",
"259 305 LINE SMOOTH",
"120 305 OFFCURVE",
"34 252 OFFCURVE",
"34 141 CURVE SMOOTH",
"34 49 OFFCURVE",
"92 -12 OFFCURVE",
"197 -12 CURVE SMOOTH",
"277 -12 OFFCURVE",
"335 24 OFFCURVE",
"351 92 CURVE",
"357 92 LINE",
"357 0 LINE",
"490 0 LINE",
"490 345 LINE SMOOTH",
"490 470 OFFCURVE",
"415 537 OFFCURVE",
"266 537 CURVE SMOOTH"
);
},
{
closed = 1;
nodes = (
"342 111 OFFCURVE",
"301 91 OFFCURVE",
"252 91 CURVE SMOOTH",
"208 91 OFFCURVE",
"183 108 OFFCURVE",
"183 147 CURVE SMOOTH",
"183 162 LINE SMOOTH",
"183 201 OFFCURVE",
"212 221 OFFCURVE",
"270 221 CURVE SMOOTH",
"342 221 LINE",
"342 159 LINE SMOOTH"
);
}
);
width = 553;
}
);
leftKerningGroup = a;
rightKerningGroup = a;
unicode = 1EA9;
},
{
glyphname = uni1EAB;
lastChange = "2018-11-02 02:11:31 +0000";
layers = (
{
layerId = "78D56DC8-6A23-4C9F-B1C5-F953A445AE64";
name = Bold;
paths = (
{
closed = 1;
nodes = (
"224 942 OFFCURVE",
"245 933 OFFCURVE",
"270 922 CURVE SMOOTH",
"299 910 OFFCURVE",
"321 900 OFFCURVE",
"348 900 CURVE SMOOTH",
"371 900 OFFCURVE",
"386 908 OFFCURVE",
"407 925 CURVE",
"457 861 LINE",
"433 825 OFFCURVE",
"396 797 OFFCURVE",
"343 797 CURVE SMOOTH",
"312 797 OFFCURVE",
"291 806 OFFCURVE",
"266 817 CURVE SMOOTH",
"237 829 OFFCURVE",
"215 839 OFFCURVE",
"188 839 CURVE SMOOTH",
"165 839 OFFCURVE",
"150 831 OFFCURVE",
"129 814 CURVE",
"79 878 LINE",
"103 914 OFFCURVE",
"140 942 OFFCURVE",
"193 942 CURVE SMOOTH"
);
},
{
closed = 1;
nodes = (
"316 768 LINE",
"458 634 LINE",
"392 570 LINE",
"268 665 LINE",
"144 570 LINE",
"78 634 LINE",
"220 768 LINE"
);
},
{
closed = 1;
nodes = (
"155 537 OFFCURVE",
"97 500 OFFCURVE",
"54 437 CURVE",
"142 359 LINE",
"165 391 OFFCURVE",
"196 421 OFFCURVE",
"255 421 CURVE SMOOTH",
"318 421 OFFCURVE",
"342 389 OFFCURVE",
"342 338 CURVE SMOOTH",
"342 305 LINE",
"259 305 LINE SMOOTH",
"120 305 OFFCURVE",
"34 252 OFFCURVE",
"34 141 CURVE SMOOTH",
"34 49 OFFCURVE",
"92 -12 OFFCURVE",
"197 -12 CURVE SMOOTH",
"277 -12 OFFCURVE",
"335 24 OFFCURVE",
"351 92 CURVE",
"357 92 LINE",
"357 0 LINE",
"490 0 LINE",
"490 345 LINE SMOOTH",
"490 470 OFFCURVE",
"415 537 OFFCURVE",
"266 537 CURVE SMOOTH"
);
},
{
closed = 1;
nodes = (
"342 111 OFFCURVE",
"301 91 OFFCURVE",
"252 91 CURVE SMOOTH",
"208 91 OFFCURVE",
"183 108 OFFCURVE",
"183 147 CURVE SMOOTH",
"183 162 LINE SMOOTH",
"183 201 OFFCURVE",
"212 221 OFFCURVE",
"270 221 CURVE SMOOTH",
"342 221 LINE",
"342 159 LINE SMOOTH"
);
}
);
width = 553;
}
);
leftKerningGroup = a;
rightKerningGroup = a;
unicode = 1EAB;
},
{
glyphname = ae;
layers = (
{
layerId = "78D56DC8-6A23-4C9F-B1C5-F953A445AE64";
name = Bold;
paths = (
{
closed = 1;
nodes = (
"270 225 LINE SMOOTH",
"217 225 OFFCURVE",
"183 205 OFFCURVE",
"183 166 CURVE SMOOTH",
"183 152 LINE SMOOTH",
"183 111 OFFCURVE",
"207 91 OFFCURVE",
"254 91 CURVE SMOOTH",
"301 91 OFFCURVE",
"342 111 OFFCURVE",
"342 159 CURVE SMOOTH",
"342 225 LINE"
);
},
{
closed = 1;
nodes = (
"675 312 LINE",
"675 321 LINE SMOOTH",
"675 385 OFFCURVE",
"647 428 OFFCURVE",
"587 428 CURVE SMOOTH",
"527 428 OFFCURVE",
"491 385 OFFCURVE",
"491 320 CURVE SMOOTH",
"491 312 LINE"
);
},
{
closed = 1;
nodes = (
"671 106 OFFCURVE",
"710 136 OFFCURVE",
"739 167 CURVE",
"813 75 LINE",
"766 20 OFFCURVE",
"689 -12 OFFCURVE",
"593 -12 CURVE SMOOTH",
"493 -12 OFFCURVE",
"417 32 OFFCURVE",
"389 91 CURVE",
"383 91 LINE",
"372 63 OFFCURVE",
"354 37 OFFCURVE",
"324 18 CURVE SMOOTH",
"294 -1 OFFCURVE",
"253 -12 OFFCURVE",
"198 -12 CURVE SMOOTH",
"145 -12 OFFCURVE",
"104 4 OFFCURVE",
"76 32 CURVE SMOOTH",
"48 60 OFFCURVE",
"34 99 OFFCURVE",
"34 144 CURVE SMOOTH",
"34 200 OFFCURVE",
"57 242 OFFCURVE",
"97 270 CURVE SMOOTH",
"137 298 OFFCURVE",
"194 312 OFFCURVE",
"259 312 CURVE SMOOTH",
"342 312 LINE",
"342 338 LINE SMOOTH",
"342 389 OFFCURVE",
"318 421 OFFCURVE",
"255 421 CURVE SMOOTH",
"196 421 OFFCURVE",
"165 391 OFFCURVE",
"142 359 CURVE",
"54 437 LINE",
"97 500 OFFCURVE",
"155 537 OFFCURVE",
"266 537 CURVE SMOOTH",
"330 537 OFFCURVE",
"381 515 OFFCURVE",
"414 463 CURVE",
"420 463 LINE",
"452 514 OFFCURVE",
"512 537 OFFCURVE",
"588 537 CURVE SMOOTH",
"675 537 OFFCURVE",
"736 505 OFFCURVE",
"774 456 CURVE SMOOTH",
"812 407 OFFCURVE",
"828 340 OFFCURVE",
"828 269 CURVE SMOOTH",
"828 225 LINE",
"490 225 LINE",
"490 217 LINE SMOOTH",
"490 149 OFFCURVE",
"534 106 OFFCURVE",
"610 106 CURVE SMOOTH"
);
}
);
width = 864;
}
);
leftKerningGroup = a;
rightKerningGroup = e;
unicode = 00E6;
},
{
glyphname = aeacute;
layers = (
{
layerId = "78D56DC8-6A23-4C9F-B1C5-F953A445AE64";
name = Bold;
paths = (
{
closed = 1;
nodes = (
"270 225 LINE SMOOTH",
"217 225 OFFCURVE",
"183 205 OFFCURVE",
"183 166 CURVE SMOOTH",
"183 152 LINE SMOOTH",
"183 111 OFFCURVE",
"207 91 OFFCURVE",
"254 91 CURVE SMOOTH",
"301 91 OFFCURVE",
"342 111 OFFCURVE",
"342 159 CURVE SMOOTH",
"342 225 LINE"
);
},
{
closed = 1;
nodes = (
"675 312 LINE",
"675 321 LINE SMOOTH",
"675 385 OFFCURVE",
"647 428 OFFCURVE",
"587 428 CURVE SMOOTH",
"527 428 OFFCURVE",
"491 385 OFFCURVE",
"491 320 CURVE SMOOTH",
"491 312 LINE"
);
},
{
closed = 1;
nodes = (
"671 106 OFFCURVE",
"710 136 OFFCURVE",
"739 167 CURVE",
"813 75 LINE",
"766 20 OFFCURVE",
"689 -12 OFFCURVE",
"593 -12 CURVE SMOOTH",
"493 -12 OFFCURVE",
"417 32 OFFCURVE",
"389 91 CURVE",
"383 91 LINE",
"372 63 OFFCURVE",
"354 37 OFFCURVE",
"324 18 CURVE SMOOTH",
"294 -1 OFFCURVE",
"253 -12 OFFCURVE",
"198 -12 CURVE SMOOTH",
"145 -12 OFFCURVE",
"104 4 OFFCURVE",
"76 32 CURVE SMOOTH",
"48 60 OFFCURVE",
"34 99 OFFCURVE",
"34 144 CURVE SMOOTH",
"34 200 OFFCURVE",
"57 242 OFFCURVE",
"97 270 CURVE SMOOTH",
"137 298 OFFCURVE",
"194 312 OFFCURVE",
"259 312 CURVE SMOOTH",
"342 312 LINE",
"342 338 LINE SMOOTH",
"342 389 OFFCURVE",
"318 421 OFFCURVE",
"255 421 CURVE SMOOTH",
"196 421 OFFCURVE",
"165 391 OFFCURVE",
"142 359 CURVE",
"54 437 LINE",
"97 500 OFFCURVE",
"155 537 OFFCURVE",
"266 537 CURVE SMOOTH",
"330 537 OFFCURVE",
"381 515 OFFCURVE",
"414 463 CURVE",
"420 463 LINE",
"452 514 OFFCURVE",
"512 537 OFFCURVE",
"588 537 CURVE SMOOTH",
"675 537 OFFCURVE",
"736 505 OFFCURVE",
"774 456 CURVE SMOOTH",
"812 407 OFFCURVE",
"828 340 OFFCURVE",
"828 269 CURVE SMOOTH",
"828 225 LINE",
"490 225 LINE",
"490 217 LINE SMOOTH",
"490 149 OFFCURVE",
"534 106 OFFCURVE",
"610 106 CURVE SMOOTH"
);
},
{
closed = 1;
nodes = (
"448 579 LINE",
"360 622 LINE",
"459 816 LINE",
"582 755 LINE"
);
}
);
width = 864;
}
);
leftKerningGroup = a;
rightKerningGroup = e;
unicode = 01FD;
},
{
glyphname = cacute;
layers = (
{
layerId = "78D56DC8-6A23-4C9F-B1C5-F953A445AE64";
name = Bold;
paths = (
{
closed = 1;
nodes = (
"202 -12 OFFCURVE",
"140 15 OFFCURVE",
"99 63 CURVE SMOOTH",
"58 110 OFFCURVE",
"36 179 OFFCURVE",
"36 263 CURVE SMOOTH",
"36 347 OFFCURVE",
"58 415 OFFCURVE",
"99 463 CURVE SMOOTH",
"140 511 OFFCURVE",
"202 537 OFFCURVE",
"281 537 CURVE SMOOTH",
"388 537 OFFCURVE",
"460 487 OFFCURVE",
"491 400 CURVE",
"371 348 LINE",
"362 388 OFFCURVE",
"333 420 OFFCURVE",
"281 420 CURVE SMOOTH",
"221 420 OFFCURVE",
"190 378 OFFCURVE",
"190 311 CURVE SMOOTH",
"190 213 LINE SMOOTH",
"190 146 OFFCURVE",
"221 104 OFFCURVE",
"281 104 CURVE SMOOTH",
"340 104 OFFCURVE",
"364 140 OFFCURVE",
"379 183 CURVE",
"494 133 LINE",
"459 33 OFFCURVE",
"385 -12 OFFCURVE",
"281 -12 CURVE SMOOTH"
);
},
{
closed = 1;
nodes = (
"291 579 LINE",
"203 622 LINE",
"302 816 LINE",
"425 755 LINE"
);
}
);
width = 517;
}
);
leftKerningGroup = c;
rightKerningGroup = c;
unicode = 0107;
},
{
glyphname = ccaron;
layers = (
{
layerId = "78D56DC8-6A23-4C9F-B1C5-F953A445AE64";
name = Bold;
paths = (
{
closed = 1;
nodes = (
"202 -12 OFFCURVE",
"140 15 OFFCURVE",
"99 63 CURVE SMOOTH",
"58 110 OFFCURVE",
"36 179 OFFCURVE",
"36 263 CURVE SMOOTH",
"36 347 OFFCURVE",
"58 415 OFFCURVE",
"99 463 CURVE SMOOTH",
"140 511 OFFCURVE",
"202 537 OFFCURVE",
"281 537 CURVE SMOOTH",
"388 537 OFFCURVE",
"460 487 OFFCURVE",
"491 400 CURVE",
"371 348 LINE",
"362 388 OFFCURVE",
"333 420 OFFCURVE",
"281 420 CURVE SMOOTH",
"221 420 OFFCURVE",
"190 378 OFFCURVE",
"190 311 CURVE SMOOTH",
"190 213 LINE SMOOTH",
"190 146 OFFCURVE",
"221 104 OFFCURVE",
"281 104 CURVE SMOOTH",
"340 104 OFFCURVE",
"364 140 OFFCURVE",
"379 183 CURVE",
"494 133 LINE",
"459 33 OFFCURVE",
"385 -12 OFFCURVE",
"281 -12 CURVE SMOOTH"
);
},
{
closed = 1;
nodes = (
"213 587 LINE",
"81 746 LINE",
"154 804 LINE",
"275 689 LINE",
"396 804 LINE",
"469 746 LINE",
"337 587 LINE"
);
}
);
width = 517;
}
);
leftKerningGroup = c;
rightKerningGroup = c;
unicode = 010D;
},
{
glyphname = ccedilla;
layers = (
{
layerId = "78D56DC8-6A23-4C9F-B1C5-F953A445AE64";
name = Bold;
paths = (
{
closed = 1;
nodes = (
"388 537 OFFCURVE",
"460 487 OFFCURVE",
"491 400 CURVE",
"371 348 LINE",
"362 388 OFFCURVE",
"333 420 OFFCURVE",
"281 420 CURVE SMOOTH",
"221 420 OFFCURVE",
"190 378 OFFCURVE",
"190 311 CURVE SMOOTH",
"190 213 LINE SMOOTH",
"190 146 OFFCURVE",
"221 104 OFFCURVE",
"281 104 CURVE SMOOTH",
"340 104 OFFCURVE",
"364 140 OFFCURVE",
"379 183 CURVE",
"494 133 LINE",
"459 36 OFFCURVE",
"388 -9 OFFCURVE",
"291 -12 CURVE",
"282 -55 LINE",
"286 -59 LINE",
"302 -55 OFFCURVE",
"318 -52 OFFCURVE",
"334 -52 CURVE SMOOTH",
"374 -52 OFFCURVE",
"407 -72 OFFCURVE",
"407 -121 CURVE SMOOTH",
"407 -156 OFFCURVE",
"391 -177 OFFCURVE",
"367 -192 CURVE SMOOTH",
"342 -207 OFFCURVE",
"308 -212 OFFCURVE",
"275 -212 CURVE SMOOTH",
"206 -212 OFFCURVE",
"168 -188 OFFCURVE",
"151 -168 CURVE",
"197 -112 LINE",
"210 -128 OFFCURVE",
"232 -141 OFFCURVE",
"263 -141 CURVE SMOOTH",
"288 -141 OFFCURVE",
"307 -133 OFFCURVE",
"307 -116 CURVE SMOOTH",
"307 -108 OFFCURVE",
"304 -100 OFFCURVE",
"293 -92 CURVE",
"281 -85 OFFCURVE",
"263 -79 OFFCURVE",
"232 -76 CURVE SMOOTH",
"211 -74 LINE",
"225 -7 LINE",
"102 16 OFFCURVE",
"36 115 OFFCURVE",
"36 263 CURVE SMOOTH",
"36 347 OFFCURVE",
"58 415 OFFCURVE",
"99 463 CURVE SMOOTH",
"140 511 OFFCURVE",
"202 537 OFFCURVE",
"281 537 CURVE SMOOTH"
);
}
);
width = 517;
}
);
leftKerningGroup = c;
rightKerningGroup = c;
unicode = 00E7;
},
{
glyphname = ccircumflex;
layers = (
{
layerId = "78D56DC8-6A23-4C9F-B1C5-F953A445AE64";
name = Bold;
paths = (
{
closed = 1;
nodes = (
"202 -12 OFFCURVE",
"140 15 OFFCURVE",
"99 63 CURVE SMOOTH",
"58 110 OFFCURVE",
"36 179 OFFCURVE",
"36 263 CURVE SMOOTH",
"36 347 OFFCURVE",
"58 415 OFFCURVE",
"99 463 CURVE SMOOTH",
"140 511 OFFCURVE",
"202 537 OFFCURVE",
"281 537 CURVE SMOOTH",
"388 537 OFFCURVE",
"460 487 OFFCURVE",
"491 400 CURVE",
"371 348 LINE",
"362 388 OFFCURVE",
"333 420 OFFCURVE",
"281 420 CURVE SMOOTH",
"221 420 OFFCURVE",
"190 378 OFFCURVE",
"190 311 CURVE SMOOTH",
"190 213 LINE SMOOTH",
"190 146 OFFCURVE",
"221 104 OFFCURVE",
"281 104 CURVE SMOOTH",
"340 104 OFFCURVE",
"364 140 OFFCURVE",
"379 183 CURVE",
"494 133 LINE",
"459 33 OFFCURVE",
"385 -12 OFFCURVE",
"281 -12 CURVE SMOOTH"
);
},
{
closed = 1;
nodes = (
"337 795 LINE",
"469 636 LINE",
"396 578 LINE",
"275 693 LINE",
"154 578 LINE",
"81 636 LINE",
"213 795 LINE"
);
}
);
width = 517;
}
);
leftKerningGroup = c;
rightKerningGroup = c;
unicode = 0109;
},
{
glyphname = cdotaccent;
layers = (
{
layerId = "78D56DC8-6A23-4C9F-B1C5-F953A445AE64";
name = Bold;
paths = (
{
closed = 1;
nodes = (
"202 -12 OFFCURVE",
"140 15 OFFCURVE",
"99 63 CURVE SMOOTH",
"58 110 OFFCURVE",
"36 179 OFFCURVE",
"36 263 CURVE SMOOTH",
"36 347 OFFCURVE",
"58 415 OFFCURVE",
"99 463 CURVE SMOOTH",
"140 511 OFFCURVE",
"202 537 OFFCURVE",
"281 537 CURVE SMOOTH",
"388 537 OFFCURVE",
"460 487 OFFCURVE",
"491 400 CURVE",
"371 348 LINE",
"362 388 OFFCURVE",
"333 420 OFFCURVE",
"281 420 CURVE SMOOTH",
"221 420 OFFCURVE",
"190 378 OFFCURVE",
"190 311 CURVE SMOOTH",
"190 213 LINE SMOOTH",
"190 146 OFFCURVE",
"221 104 OFFCURVE",
"281 104 CURVE SMOOTH",
"340 104 OFFCURVE",
"364 140 OFFCURVE",
"379 183 CURVE",
"494 133 LINE",
"459 33 OFFCURVE",
"385 -12 OFFCURVE",
"281 -12 CURVE SMOOTH"
);
},
{
closed = 1;
nodes = (
"208 591 OFFCURVE",
"186 622 OFFCURVE",
"186 661 CURVE SMOOTH",
"186 690 LINE SMOOTH",
"186 729 OFFCURVE",
"208 760 OFFCURVE",
"275 760 CURVE SMOOTH",
"342 760 OFFCURVE",
"364 729 OFFCURVE",
"364 690 CURVE SMOOTH",
"364 661 LINE SMOOTH",
"364 622 OFFCURVE",
"342 591 OFFCURVE",
"275 591 CURVE SMOOTH"
);
}
);
width = 517;
}
);
leftKerningGroup = c;
rightKerningGroup = c;
unicode = 010B;
},
{
glyphname = dcaron;
layers = (
{
layerId = "78D56DC8-6A23-4C9F-B1C5-F953A445AE64";
name = Bold;
paths = (
{
closed = 1;
nodes = (
"391 88 LINE",
"386 88 LINE",
"378 60 OFFCURVE",
"360 35 OFFCURVE",
"336 17 CURVE SMOOTH",
"311 -1 OFFCURVE",
"278 -12 OFFCURVE",
"245 -12 CURVE SMOOTH",
"112 -12 OFFCURVE",
"43 84 OFFCURVE",
"43 263 CURVE SMOOTH",
"43 442 OFFCURVE",
"112 537 OFFCURVE",
"245 537 CURVE SMOOTH",
"313 537 OFFCURVE",
"371 496 OFFCURVE",
"386 437 CURVE",
"391 437 LINE",
"391 740 LINE",
"539 740 LINE",
"539 0 LINE",
"391 0 LINE"
);
},
{
closed = 1;
nodes = (
"350 108 OFFCURVE",
"391 137 OFFCURVE",
"391 185 CURVE SMOOTH",
"391 340 LINE SMOOTH",
"391 388 OFFCURVE",
"350 417 OFFCURVE",
"294 417 CURVE SMOOTH",
"238 417 OFFCURVE",
"197 375 OFFCURVE",
"197 308 CURVE SMOOTH",
"197 217 LINE SMOOTH",
"197 150 OFFCURVE",
"238 108 OFFCURVE",
"294 108 CURVE SMOOTH"
);
},
{
closed = 1;
nodes = (
"699 525 LINE",
"602 525 LINE",
"608 740 LINE",
"765 740 LINE"
);
}
);
width = 682;
}
);
leftKerningGroup = d;
rightKerningGroup = dcaron;
unicode = 010F;
},
{
glyphname = dcroat;
layers = (
{
layerId = "78D56DC8-6A23-4C9F-B1C5-F953A445AE64";
name = Bold;
paths = (
{
closed = 1;
nodes = (
"391 88 LINE",
"386 88 LINE",
"378 60 OFFCURVE",
"360 35 OFFCURVE",
"336 17 CURVE SMOOTH",
"311 -1 OFFCURVE",
"278 -12 OFFCURVE",
"245 -12 CURVE SMOOTH",
"112 -12 OFFCURVE",
"43 84 OFFCURVE",
"43 263 CURVE SMOOTH",
"43 442 OFFCURVE",
"112 537 OFFCURVE",
"245 537 CURVE SMOOTH",
"313 537 OFFCURVE",
"371 496 OFFCURVE",
"386 437 CURVE",
"391 437 LINE",
"391 590 LINE",
"250 590 LINE",
"250 690 LINE",
"391 690 LINE",
"391 740 LINE",
"539 740 LINE",
"539 690 LINE",
"600 690 LINE",
"600 590 LINE",
"539 590 LINE",
"539 0 LINE",
"391 0 LINE"
);
},
{
closed = 1;
nodes = (
"350 108 OFFCURVE",
"391 137 OFFCURVE",
"391 185 CURVE SMOOTH",
"391 340 LINE SMOOTH",
"391 388 OFFCURVE",
"350 417 OFFCURVE",
"294 417 CURVE SMOOTH",
"238 417 OFFCURVE",
"197 375 OFFCURVE",
"197 308 CURVE SMOOTH",
"197 217 LINE SMOOTH",
"197 150 OFFCURVE",
"238 108 OFFCURVE",
"294 108 CURVE SMOOTH"
);
}
);
width = 608;
}
);
leftKerningGroup = d;
unicode = 0111;
},
{
glyphname = eth;
layers = (
{
layerId = "78D56DC8-6A23-4C9F-B1C5-F953A445AE64";
name = Bold;
paths = (
{
closed = 1;
nodes = (
"479 693 LINE",
"406 649 LINE",
"502 549 OFFCURVE",
"555 423 OFFCURVE",
"555 278 CURVE SMOOTH",
"555 177 OFFCURVE",
"529 104 OFFCURVE",
"485 57 CURVE SMOOTH",
"440 10 OFFCURVE",
"377 -12 OFFCURVE",
"301 -12 CURVE SMOOTH",
"220 -12 OFFCURVE",
"154 14 OFFCURVE",
"110 59 CURVE SMOOTH",
"65 104 OFFCURVE",
"41 170 OFFCURVE",
"41 253 CURVE SMOOTH",
"41 328 OFFCURVE",
"60 389 OFFCURVE",
"95 433 CURVE SMOOTH",
"130 476 OFFCURVE",
"179 500 OFFCURVE",
"239 500 CURVE SMOOTH",
"314 500 OFFCURVE",
"363 462 OFFCURVE",
"395 402 CURVE",
"402 405 LINE",
"383 469 OFFCURVE",
"345 526 OFFCURVE",
"290 581 CURVE",
"201 528 LINE",
"150 588 LINE",
"230 635 LINE",
"181 675 OFFCURVE",
"127 709 OFFCURVE",
"71 740 CURVE",
"297 740 LINE",
"306 735 OFFCURVE",
"314 729 OFFCURVE",
"322 723 CURVE",
"330 716 OFFCURVE",
"338 710 OFFCURVE",
"346 704 CURVE",
"429 753 LINE"
);
},
{
closed = 1;
nodes = (
"362 98 OFFCURVE",
"402 140 OFFCURVE",
"402 216 CURVE SMOOTH",
"402 270 LINE SMOOTH",
"402 346 OFFCURVE",
"362 388 OFFCURVE",
"298 388 CURVE SMOOTH",
"234 388 OFFCURVE",
"194 346 OFFCURVE",
"194 270 CURVE SMOOTH",
"194 216 LINE SMOOTH",
"194 140 OFFCURVE",
"234 98 OFFCURVE",
"298 98 CURVE SMOOTH"
);
}
);
width = 603;
}
);
leftKerningGroup = d;
rightKerningGroup = o;
unicode = 00F0;
},
{
glyphname = eacute;
layers = (
{
layerId = "78D56DC8-6A23-4C9F-B1C5-F953A445AE64";
name = Bold;
paths = (
{
closed = 1;
nodes = (
"208 -12 OFFCURVE",
"145 15 OFFCURVE",
"102 63 CURVE SMOOTH",
"58 110 OFFCURVE",
"36 179 OFFCURVE",
"36 263 CURVE SMOOTH",
"36 346 OFFCURVE",
"58 414 OFFCURVE",
"100 462 CURVE SMOOTH",
"142 510 OFFCURVE",
"203 537 OFFCURVE",
"282 537 CURVE SMOOTH",
"369 537 OFFCURVE",
"430 505 OFFCURVE",
"470 456 CURVE SMOOTH",
"509 407 OFFCURVE",
"526 340 OFFCURVE",
"526 269 CURVE SMOOTH",
"526 225 LINE",
"189 225 LINE",
"189 217 LINE SMOOTH",
"189 148 OFFCURVE",
"225 104 OFFCURVE",
"305 104 CURVE SMOOTH",
"366 104 OFFCURVE",
"401 132 OFFCURVE",
"434 167 CURVE",
"508 75 LINE",
"461 20 OFFCURVE",
"384 -12 OFFCURVE",
"288 -12 CURVE SMOOTH"
);
},
{
closed = 1;
nodes = (
"225 428 OFFCURVE",
"189 385 OFFCURVE",
"189 320 CURVE SMOOTH",
"189 312 LINE",
"373 312 LINE",
"373 321 LINE SMOOTH",
"373 385 OFFCURVE",
"345 428 OFFCURVE",
"285 428 CURVE SMOOTH"
);
},
{
closed = 1;
nodes = (
"304 579 LINE",
"216 622 LINE",
"315 816 LINE",
"438 755 LINE"
);
}
);
width = 562;
}
);
leftKerningGroup = c;
rightKerningGroup = e;
unicode = 00E9;
},
{
glyphname = ebreve;
layers = (
{
layerId = "78D56DC8-6A23-4C9F-B1C5-F953A445AE64";
name = Bold;
paths = (
{
closed = 1;
nodes = (
"208 -12 OFFCURVE",
"145 15 OFFCURVE",
"102 63 CURVE SMOOTH",
"58 110 OFFCURVE",
"36 179 OFFCURVE",
"36 263 CURVE SMOOTH",
"36 346 OFFCURVE",
"58 414 OFFCURVE",
"100 462 CURVE SMOOTH",
"142 510 OFFCURVE",
"203 537 OFFCURVE",
"282 537 CURVE SMOOTH",
"369 537 OFFCURVE",
"430 505 OFFCURVE",
"470 456 CURVE SMOOTH",
"509 407 OFFCURVE",
"526 340 OFFCURVE",
"526 269 CURVE SMOOTH",
"526 225 LINE",
"189 225 LINE",
"189 217 LINE SMOOTH",
"189 148 OFFCURVE",
"225 104 OFFCURVE",
"305 104 CURVE SMOOTH",
"366 104 OFFCURVE",
"401 132 OFFCURVE",
"434 167 CURVE",
"508 75 LINE",
"461 20 OFFCURVE",
"384 -12 OFFCURVE",
"288 -12 CURVE SMOOTH"
);
},
{
closed = 1;
nodes = (
"225 428 OFFCURVE",
"189 385 OFFCURVE",
"189 320 CURVE SMOOTH",
"189 312 LINE",
"373 312 LINE",
"373 321 LINE SMOOTH",
"373 385 OFFCURVE",
"345 428 OFFCURVE",
"285 428 CURVE SMOOTH"
);
},
{
closed = 1;
nodes = (
"229 579 OFFCURVE",
"187 604 OFFCURVE",
"158 637 CURVE SMOOTH",
"129 670 OFFCURVE",
"110 713 OFFCURVE",
"98 749 CURVE",
"179 791 LINE",
"199 758 LINE SMOOTH",
"228 710 OFFCURVE",
"253 682 OFFCURVE",
"288 682 CURVE SMOOTH",
"323 682 OFFCURVE",
"349 710 OFFCURVE",
"378 758 CURVE SMOOTH",
"398 791 LINE",
"478 749 LINE",
"466 713 OFFCURVE",
"447 670 OFFCURVE",
"416 637 CURVE SMOOTH",
"385 604 OFFCURVE",
"344 579 OFFCURVE",
"288 579 CURVE SMOOTH"
);
}
);
width = 562;
}
);
leftKerningGroup = c;
rightKerningGroup = e;
unicode = 0115;
},
{
glyphname = ecaron;
layers = (
{
layerId = "78D56DC8-6A23-4C9F-B1C5-F953A445AE64";
name = Bold;
paths = (
{
closed = 1;
nodes = (
"208 -12 OFFCURVE",
"145 15 OFFCURVE",
"102 63 CURVE SMOOTH",
"58 110 OFFCURVE",
"36 179 OFFCURVE",
"36 263 CURVE SMOOTH",
"36 346 OFFCURVE",
"58 414 OFFCURVE",
"100 462 CURVE SMOOTH",
"142 510 OFFCURVE",
"203 537 OFFCURVE",
"282 537 CURVE SMOOTH",
"369 537 OFFCURVE",
"430 505 OFFCURVE",
"470 456 CURVE SMOOTH",
"509 407 OFFCURVE",
"526 340 OFFCURVE",
"526 269 CURVE SMOOTH",
"526 225 LINE",
"189 225 LINE",
"189 217 LINE SMOOTH",
"189 148 OFFCURVE",
"225 104 OFFCURVE",
"305 104 CURVE SMOOTH",
"366 104 OFFCURVE",
"401 132 OFFCURVE",
"434 167 CURVE",
"508 75 LINE",
"461 20 OFFCURVE",
"384 -12 OFFCURVE",
"288 -12 CURVE SMOOTH"
);
},
{
closed = 1;
nodes = (
"225 428 OFFCURVE",
"189 385 OFFCURVE",
"189 320 CURVE SMOOTH",
"189 312 LINE",
"373 312 LINE",
"373 321 LINE SMOOTH",
"373 385 OFFCURVE",
"345 428 OFFCURVE",
"285 428 CURVE SMOOTH"
);
},
{
closed = 1;
nodes = (
"226 587 LINE",
"94 746 LINE",
"167 804 LINE",
"288 689 LINE",
"409 804 LINE",
"482 746 LINE",
"350 587 LINE"
);
}
);
width = 562;
}
);
leftKerningGroup = c;
rightKerningGroup = e;
unicode = 011B;
},
{
glyphname = ecircumflex;
layers = (
{
layerId = "78D56DC8-6A23-4C9F-B1C5-F953A445AE64";
name = Bold;
paths = (
{
closed = 1;
nodes = (
"208 -12 OFFCURVE",
"145 15 OFFCURVE",
"102 63 CURVE SMOOTH",
"58 110 OFFCURVE",
"36 179 OFFCURVE",
"36 263 CURVE SMOOTH",
"36 346 OFFCURVE",
"58 414 OFFCURVE",
"100 462 CURVE SMOOTH",
"142 510 OFFCURVE",
"203 537 OFFCURVE",
"282 537 CURVE SMOOTH",
"369 537 OFFCURVE",
"430 505 OFFCURVE",
"470 456 CURVE SMOOTH",
"509 407 OFFCURVE",
"526 340 OFFCURVE",
"526 269 CURVE SMOOTH",
"526 225 LINE",
"189 225 LINE",
"189 217 LINE SMOOTH",
"189 148 OFFCURVE",
"225 104 OFFCURVE",
"305 104 CURVE SMOOTH",
"366 104 OFFCURVE",
"401 132 OFFCURVE",
"434 167 CURVE",
"508 75 LINE",
"461 20 OFFCURVE",
"384 -12 OFFCURVE",
"288 -12 CURVE SMOOTH"
);
},
{
closed = 1;
nodes = (
"225 428 OFFCURVE",
"189 385 OFFCURVE",
"189 320 CURVE SMOOTH",
"189 312 LINE",
"373 312 LINE",
"373 321 LINE SMOOTH",
"373 385 OFFCURVE",
"345 428 OFFCURVE",
"285 428 CURVE SMOOTH"
);
},
{
closed = 1;
nodes = (
"350 795 LINE",
"482 636 LINE",
"409 578 LINE",
"288 693 LINE",
"167 578 LINE",
"94 636 LINE",
"226 795 LINE"
);
}
);
width = 562;
}
);
leftKerningGroup = c;
rightKerningGroup = e;
unicode = 00EA;
},
{
glyphname = edieresis;
layers = (
{
layerId = "78D56DC8-6A23-4C9F-B1C5-F953A445AE64";
name = Bold;
paths = (
{
closed = 1;
nodes = (
"208 -12 OFFCURVE",
"145 15 OFFCURVE",
"102 63 CURVE SMOOTH",
"58 110 OFFCURVE",
"36 179 OFFCURVE",
"36 263 CURVE SMOOTH",
"36 346 OFFCURVE",
"58 414 OFFCURVE",
"100 462 CURVE SMOOTH",
"142 510 OFFCURVE",
"203 537 OFFCURVE",
"282 537 CURVE SMOOTH",
"369 537 OFFCURVE",
"430 505 OFFCURVE",
"470 456 CURVE SMOOTH",
"509 407 OFFCURVE",
"526 340 OFFCURVE",
"526 269 CURVE SMOOTH",
"526 225 LINE",
"189 225 LINE",
"189 217 LINE SMOOTH",
"189 148 OFFCURVE",
"225 104 OFFCURVE",
"305 104 CURVE SMOOTH",
"366 104 OFFCURVE",
"401 132 OFFCURVE",
"434 167 CURVE",
"508 75 LINE",
"461 20 OFFCURVE",
"384 -12 OFFCURVE",
"288 -12 CURVE SMOOTH"
);
},
{
closed = 1;
nodes = (
"225 428 OFFCURVE",
"189 385 OFFCURVE",
"189 320 CURVE SMOOTH",
"189 312 LINE",
"373 312 LINE",
"373 321 LINE SMOOTH",
"373 385 OFFCURVE",
"345 428 OFFCURVE",
"285 428 CURVE SMOOTH"
);
},
{
closed = 1;
nodes = (
"118 600 OFFCURVE",
"98 628 OFFCURVE",
"98 663 CURVE SMOOTH",
"98 688 LINE SMOOTH",
"98 723 OFFCURVE",
"118 751 OFFCURVE",
"178 751 CURVE SMOOTH",
"238 751 OFFCURVE",
"258 723 OFFCURVE",
"258 688 CURVE SMOOTH",
"258 663 LINE SMOOTH",
"258 628 OFFCURVE",
"238 600 OFFCURVE",
"178 600 CURVE SMOOTH"
);
},
{
closed = 1;
nodes = (
"338 600 OFFCURVE",
"318 628 OFFCURVE",
"318 663 CURVE SMOOTH",
"318 688 LINE SMOOTH",
"318 723 OFFCURVE",
"338 751 OFFCURVE",
"398 751 CURVE SMOOTH",
"458 751 OFFCURVE",
"478 723 OFFCURVE",
"478 688 CURVE SMOOTH",
"478 663 LINE SMOOTH",
"478 628 OFFCURVE",
"458 600 OFFCURVE",
"398 600 CURVE SMOOTH"
);
}
);
width = 562;
}
);
leftKerningGroup = c;
rightKerningGroup = e;
unicode = 00EB;
},
{
glyphname = edotaccent;
layers = (
{
layerId = "78D56DC8-6A23-4C9F-B1C5-F953A445AE64";
name = Bold;
paths = (
{
closed = 1;
nodes = (
"208 -12 OFFCURVE",
"145 15 OFFCURVE",
"102 63 CURVE SMOOTH",
"58 110 OFFCURVE",
"36 179 OFFCURVE",
"36 263 CURVE SMOOTH",
"36 346 OFFCURVE",
"58 414 OFFCURVE",
"100 462 CURVE SMOOTH",
"142 510 OFFCURVE",
"203 537 OFFCURVE",
"282 537 CURVE SMOOTH",
"369 537 OFFCURVE",
"430 505 OFFCURVE",
"470 456 CURVE SMOOTH",
"509 407 OFFCURVE",
"526 340 OFFCURVE",
"526 269 CURVE SMOOTH",
"526 225 LINE",
"189 225 LINE",
"189 217 LINE SMOOTH",
"189 148 OFFCURVE",
"225 104 OFFCURVE",
"305 104 CURVE SMOOTH",
"366 104 OFFCURVE",
"401 132 OFFCURVE",
"434 167 CURVE",
"508 75 LINE",
"461 20 OFFCURVE",
"384 -12 OFFCURVE",
"288 -12 CURVE SMOOTH"
);
},
{
closed = 1;
nodes = (
"225 428 OFFCURVE",
"189 385 OFFCURVE",
"189 320 CURVE SMOOTH",
"189 312 LINE",
"373 312 LINE",
"373 321 LINE SMOOTH",
"373 385 OFFCURVE",
"345 428 OFFCURVE",
"285 428 CURVE SMOOTH"
);
},
{
closed = 1;
nodes = (
"221 591 OFFCURVE",
"199 622 OFFCURVE",
"199 661 CURVE SMOOTH",
"199 690 LINE SMOOTH",
"199 729 OFFCURVE",
"221 760 OFFCURVE",
"288 760 CURVE SMOOTH",
"355 760 OFFCURVE",
"377 729 OFFCURVE",
"377 690 CURVE SMOOTH",
"377 661 LINE SMOOTH",
"377 622 OFFCURVE",
"355 591 OFFCURVE",
"288 591 CURVE SMOOTH"
);
}
);
width = 562;
}
);
leftKerningGroup = c;
rightKerningGroup = e;
unicode = 0117;
},
{
glyphname = uni1EB9;
layers = (
{
layerId = "78D56DC8-6A23-4C9F-B1C5-F953A445AE64";
name = Bold;
paths = (
{
closed = 1;
nodes = (
"208 -12 OFFCURVE",
"145 15 OFFCURVE",
"102 63 CURVE SMOOTH",
"58 110 OFFCURVE",
"36 179 OFFCURVE",
"36 263 CURVE SMOOTH",
"36 346 OFFCURVE",
"58 414 OFFCURVE",
"100 462 CURVE SMOOTH",
"142 510 OFFCURVE",
"203 537 OFFCURVE",
"282 537 CURVE SMOOTH",
"369 537 OFFCURVE",
"430 505 OFFCURVE",
"470 456 CURVE SMOOTH",
"509 407 OFFCURVE",
"526 340 OFFCURVE",
"526 269 CURVE SMOOTH",
"526 225 LINE",
"189 225 LINE",
"189 217 LINE SMOOTH",
"189 148 OFFCURVE",
"225 104 OFFCURVE",
"305 104 CURVE SMOOTH",
"366 104 OFFCURVE",
"401 132 OFFCURVE",
"434 167 CURVE",
"508 75 LINE",
"461 20 OFFCURVE",
"384 -12 OFFCURVE",
"288 -12 CURVE SMOOTH"
);
},
{
closed = 1;
nodes = (
"225 428 OFFCURVE",
"189 385 OFFCURVE",
"189 320 CURVE SMOOTH",
"189 312 LINE",
"373 312 LINE",
"373 321 LINE SMOOTH",
"373 385 OFFCURVE",
"345 428 OFFCURVE",
"285 428 CURVE SMOOTH"
);
},
{
closed = 1;
nodes = (
"223 -204 OFFCURVE",
"202 -176 OFFCURVE",
"202 -141 CURVE SMOOTH",
"202 -115 LINE SMOOTH",
"202 -80 OFFCURVE",
"223 -52 OFFCURVE",
"283 -52 CURVE SMOOTH",
"343 -52 OFFCURVE",
"364 -80 OFFCURVE",
"364 -115 CURVE SMOOTH",
"364 -141 LINE SMOOTH",
"364 -176 OFFCURVE",
"343 -204 OFFCURVE",
"283 -204 CURVE SMOOTH"
);
}
);
width = 562;
}
);
leftKerningGroup = c;
rightKerningGroup = e;
unicode = 1EB9;
},
{
glyphname = egrave;
layers = (
{
layerId = "78D56DC8-6A23-4C9F-B1C5-F953A445AE64";
name = Bold;
paths = (
{
closed = 1;
nodes = (
"208 -12 OFFCURVE",
"145 15 OFFCURVE",
"102 63 CURVE SMOOTH",
"58 110 OFFCURVE",
"36 179 OFFCURVE",
"36 263 CURVE SMOOTH",
"36 346 OFFCURVE",
"58 414 OFFCURVE",
"100 462 CURVE SMOOTH",
"142 510 OFFCURVE",
"203 537 OFFCURVE",
"282 537 CURVE SMOOTH",
"369 537 OFFCURVE",
"430 505 OFFCURVE",
"470 456 CURVE SMOOTH",
"509 407 OFFCURVE",
"526 340 OFFCURVE",
"526 269 CURVE SMOOTH",
"526 225 LINE",
"189 225 LINE",
"189 217 LINE SMOOTH",
"189 148 OFFCURVE",
"225 104 OFFCURVE",
"305 104 CURVE SMOOTH",
"366 104 OFFCURVE",
"401 132 OFFCURVE",
"434 167 CURVE",
"508 75 LINE",
"461 20 OFFCURVE",
"384 -12 OFFCURVE",
"288 -12 CURVE SMOOTH"
);
},
{
closed = 1;
nodes = (
"225 428 OFFCURVE",
"189 385 OFFCURVE",
"189 320 CURVE SMOOTH",
"189 312 LINE",
"373 312 LINE",
"373 321 LINE SMOOTH",
"373 385 OFFCURVE",
"345 428 OFFCURVE",
"285 428 CURVE SMOOTH"
);
},
{
closed = 1;
nodes = (
"138 755 LINE",
"261 816 LINE",
"360 622 LINE",
"272 579 LINE"
);
}
);
width = 562;
}
);
leftKerningGroup = c;
rightKerningGroup = e;
unicode = 00E8;
},
{
glyphname = uni1EBB;
layers = (
{
layerId = "78D56DC8-6A23-4C9F-B1C5-F953A445AE64";
name = Bold;
paths = (
{
closed = 1;
nodes = (
"208 -12 OFFCURVE",
"145 15 OFFCURVE",
"102 63 CURVE SMOOTH",
"58 110 OFFCURVE",
"36 179 OFFCURVE",
"36 263 CURVE SMOOTH",
"36 346 OFFCURVE",
"58 414 OFFCURVE",
"100 462 CURVE SMOOTH",
"142 510 OFFCURVE",
"203 537 OFFCURVE",
"282 537 CURVE SMOOTH",
"369 537 OFFCURVE",
"430 505 OFFCURVE",
"470 456 CURVE SMOOTH",
"509 407 OFFCURVE",
"526 340 OFFCURVE",
"526 269 CURVE SMOOTH",
"526 225 LINE",
"189 225 LINE",
"189 217 LINE SMOOTH",
"189 148 OFFCURVE",
"225 104 OFFCURVE",
"305 104 CURVE SMOOTH",
"366 104 OFFCURVE",
"401 132 OFFCURVE",
"434 167 CURVE",
"508 75 LINE",
"461 20 OFFCURVE",
"384 -12 OFFCURVE",
"288 -12 CURVE SMOOTH"
);
},
{
closed = 1;
nodes = (
"225 428 OFFCURVE",
"189 385 OFFCURVE",
"189 320 CURVE SMOOTH",
"189 312 LINE",
"373 312 LINE",
"373 321 LINE SMOOTH",
"373 385 OFFCURVE",
"345 428 OFFCURVE",
"285 428 CURVE SMOOTH"
);
},
{
closed = 1;
nodes = (
"167 802 LINE",
"310 802 LINE SMOOTH",
"347 802 OFFCURVE",
"372 793 OFFCURVE",
"387 780 CURVE SMOOTH",
"402 767 OFFCURVE",
"408 749 OFFCURVE",
"408 729 CURVE SMOOTH",
"408 690 OFFCURVE",
"384 643 OFFCURVE",
"351 603 CURVE SMOOTH",
"323 569 LINE",
"248 604 LINE",
"289 696 LINE",
"167 696 LINE"
);
}
);
width = 562;
}
);
leftKerningGroup = c;
rightKerningGroup = e;
unicode = 1EBB;
},
{
glyphname = emacron;
layers = (
{
layerId = "78D56DC8-6A23-4C9F-B1C5-F953A445AE64";
name = Bold;
paths = (
{
closed = 1;
nodes = (
"208 -12 OFFCURVE",
"145 15 OFFCURVE",
"102 63 CURVE SMOOTH",
"58 110 OFFCURVE",
"36 179 OFFCURVE",
"36 263 CURVE SMOOTH",
"36 346 OFFCURVE",
"58 414 OFFCURVE",
"100 462 CURVE SMOOTH",
"142 510 OFFCURVE",
"203 537 OFFCURVE",
"282 537 CURVE SMOOTH",
"369 537 OFFCURVE",
"430 505 OFFCURVE",
"470 456 CURVE SMOOTH",
"509 407 OFFCURVE",
"526 340 OFFCURVE",
"526 269 CURVE SMOOTH",
"526 225 LINE",
"189 225 LINE",
"189 217 LINE SMOOTH",
"189 148 OFFCURVE",
"225 104 OFFCURVE",
"305 104 CURVE SMOOTH",
"366 104 OFFCURVE",
"401 132 OFFCURVE",
"434 167 CURVE",
"508 75 LINE",
"461 20 OFFCURVE",
"384 -12 OFFCURVE",
"288 -12 CURVE SMOOTH"
);
},
{
closed = 1;
nodes = (
"225 428 OFFCURVE",
"189 385 OFFCURVE",
"189 320 CURVE SMOOTH",
"189 312 LINE",
"373 312 LINE",
"373 321 LINE SMOOTH",
"373 385 OFFCURVE",
"345 428 OFFCURVE",
"285 428 CURVE SMOOTH"
);
},
{
closed = 1;
nodes = (
"135 727 LINE",
"441 727 LINE",
"441 624 LINE",
"135 624 LINE"
);
}
);
width = 562;
}
);
leftKerningGroup = c;
rightKerningGroup = e;
unicode = 0113;
},
{
glyphname = eogonek;
layers = (
{
layerId = "78D56DC8-6A23-4C9F-B1C5-F953A445AE64";
name = Bold;
paths = (
{
closed = 1;
nodes = (
"304 -212 OFFCURVE",
"274 -206 OFFCURVE",
"251 -193 CURVE SMOOTH",
"228 -181 OFFCURVE",
"214 -160 OFFCURVE",
"214 -128 CURVE SMOOTH",
"214 -72 OFFCURVE",
"259 -43 OFFCURVE",
"328 -12 CURVE",
"327 -8 LINE",
"308 -12 OFFCURVE",
"295 -12 OFFCURVE",
"283 -12 CURVE SMOOTH",
"204 -12 OFFCURVE",
"143 15 OFFCURVE",
"101 63 CURVE SMOOTH",
"59 110 OFFCURVE",
"36 179 OFFCURVE",
"36 263 CURVE SMOOTH",
"36 346 OFFCURVE",
"58 414 OFFCURVE",
"100 462 CURVE SMOOTH",
"142 510 OFFCURVE",
"203 537 OFFCURVE",
"282 537 CURVE SMOOTH",
"369 537 OFFCURVE",
"430 505 OFFCURVE",
"470 456 CURVE SMOOTH",
"509 407 OFFCURVE",
"526 340 OFFCURVE",
"526 269 CURVE SMOOTH",
"526 225 LINE",
"189 225 LINE",
"189 217 LINE SMOOTH",
"189 148 OFFCURVE",
"226 104 OFFCURVE",
"307 104 CURVE SMOOTH",
"366 104 OFFCURVE",
"406 136 OFFCURVE",
"435 167 CURVE",
"509 75 LINE",
"502 66 OFFCURVE",
"490 56 OFFCURVE",
"473 43 CURVE SMOOTH",
"456 30 OFFCURVE",
"432 12 OFFCURVE",
"402 -10 CURVE SMOOTH",
"373 -31 OFFCURVE",
"351 -49 OFFCURVE",
"336 -63 CURVE SMOOTH",
"321 -77 OFFCURVE",
"313 -91 OFFCURVE",
"313 -106 CURVE SMOOTH",
"313 -129 OFFCURVE",
"331 -138 OFFCURVE",
"351 -138 CURVE SMOOTH",
"374 -138 OFFCURVE",
"390 -126 OFFCURVE",
"405 -110 CURVE",
"457 -161 LINE",
"440 -193 OFFCURVE",
"400 -212 OFFCURVE",
"336 -212 CURVE SMOOTH"
);
},
{
closed = 1;
nodes = (
"373 312 LINE",
"373 321 LINE SMOOTH",
"373 385 OFFCURVE",
"345 428 OFFCURVE",
"285 428 CURVE SMOOTH",
"225 428 OFFCURVE",
"189 385 OFFCURVE",
"189 320 CURVE SMOOTH",
"189 312 LINE"
);
}
);
width = 562;
}
);
leftKerningGroup = c;
rightKerningGroup = e;
unicode = 0119;
},
{
glyphname = uni1EBD;
layers = (
{
layerId = "78D56DC8-6A23-4C9F-B1C5-F953A445AE64";
name = Bold;
paths = (
{
closed = 1;
nodes = (
"208 -12 OFFCURVE",
"145 15 OFFCURVE",
"102 63 CURVE SMOOTH",
"58 110 OFFCURVE",
"36 179 OFFCURVE",
"36 263 CURVE SMOOTH",
"36 346 OFFCURVE",
"58 414 OFFCURVE",
"100 462 CURVE SMOOTH",
"142 510 OFFCURVE",
"203 537 OFFCURVE",
"282 537 CURVE SMOOTH",
"369 537 OFFCURVE",
"430 505 OFFCURVE",
"470 456 CURVE SMOOTH",
"509 407 OFFCURVE",
"526 340 OFFCURVE",
"526 269 CURVE SMOOTH",
"526 225 LINE",
"189 225 LINE",
"189 217 LINE SMOOTH",
"189 148 OFFCURVE",
"225 104 OFFCURVE",
"305 104 CURVE SMOOTH",
"366 104 OFFCURVE",
"401 132 OFFCURVE",
"434 167 CURVE",
"508 75 LINE",
"461 20 OFFCURVE",
"384 -12 OFFCURVE",
"288 -12 CURVE SMOOTH"
);
},
{
closed = 1;
nodes = (
"225 428 OFFCURVE",
"189 385 OFFCURVE",
"189 320 CURVE SMOOTH",
"189 312 LINE",
"373 312 LINE",
"373 321 LINE SMOOTH",
"373 385 OFFCURVE",
"345 428 OFFCURVE",
"285 428 CURVE SMOOTH"
);
},
{
closed = 1;
nodes = (
"333 601 OFFCURVE",
"312 610 OFFCURVE",
"287 621 CURVE SMOOTH",
"258 633 OFFCURVE",
"236 643 OFFCURVE",
"209 643 CURVE SMOOTH",
"186 643 OFFCURVE",
"171 635 OFFCURVE",
"150 618 CURVE",
"98 686 LINE",
"122 722 OFFCURVE",
"159 750 OFFCURVE",
"212 750 CURVE SMOOTH",
"243 750 OFFCURVE",
"264 741 OFFCURVE",
"289 730 CURVE SMOOTH",
"318 718 OFFCURVE",
"340 708 OFFCURVE",
"367 708 CURVE SMOOTH",
"390 708 OFFCURVE",
"405 716 OFFCURVE",
"426 733 CURVE",
"478 665 LINE",
"454 629 OFFCURVE",
"417 601 OFFCURVE",
"364 601 CURVE SMOOTH"
);
}
);
width = 562;
}
);
leftKerningGroup = c;
rightKerningGroup = e;
unicode = 1EBD;
},
{
glyphname = uni1EBF;
layers = (
{
layerId = "78D56DC8-6A23-4C9F-B1C5-F953A445AE64";
name = Bold;
paths = (
{
closed = 1;
nodes = (
"208 -12 OFFCURVE",
"145 15 OFFCURVE",
"102 63 CURVE SMOOTH",
"58 110 OFFCURVE",
"36 179 OFFCURVE",
"36 263 CURVE SMOOTH",
"36 346 OFFCURVE",
"58 414 OFFCURVE",
"100 462 CURVE SMOOTH",
"142 510 OFFCURVE",
"203 537 OFFCURVE",
"282 537 CURVE SMOOTH",
"369 537 OFFCURVE",
"430 505 OFFCURVE",
"470 456 CURVE SMOOTH",
"509 407 OFFCURVE",
"526 340 OFFCURVE",
"526 269 CURVE SMOOTH",
"526 225 LINE",
"189 225 LINE",
"189 217 LINE SMOOTH",
"189 148 OFFCURVE",
"225 104 OFFCURVE",
"305 104 CURVE SMOOTH",
"366 104 OFFCURVE",
"401 132 OFFCURVE",
"434 167 CURVE",
"508 75 LINE",
"461 20 OFFCURVE",
"384 -12 OFFCURVE",
"288 -12 CURVE SMOOTH"
);
},
{
closed = 1;
nodes = (
"225 428 OFFCURVE",
"189 385 OFFCURVE",
"189 320 CURVE SMOOTH",
"189 312 LINE",
"373 312 LINE",
"373 321 LINE SMOOTH",
"373 385 OFFCURVE",
"345 428 OFFCURVE",
"285 428 CURVE SMOOTH"
);
},
{
closed = 1;
nodes = (
"460 733 LINE",
"381 772 LINE",
"480 966 LINE",
"594 909 LINE"
);
},
{
closed = 1;
nodes = (
"334 781 LINE",
"479 634 LINE",
"411 570 LINE",
"287 674 LINE",
"163 570 LINE",
"95 634 LINE",
"240 781 LINE"
);
}
);
width = 562;
}
);
leftKerningGroup = c;
rightKerningGroup = e;
unicode = 1EBF;
},
{
glyphname = uni1EC7;
layers = (
{
layerId = "78D56DC8-6A23-4C9F-B1C5-F953A445AE64";
name = Bold;
paths = (
{
closed = 1;
nodes = (
"208 -12 OFFCURVE",
"145 15 OFFCURVE",
"102 63 CURVE SMOOTH",
"58 110 OFFCURVE",
"36 179 OFFCURVE",
"36 263 CURVE SMOOTH",
"36 346 OFFCURVE",
"58 414 OFFCURVE",
"100 462 CURVE SMOOTH",
"142 510 OFFCURVE",
"203 537 OFFCURVE",
"282 537 CURVE SMOOTH",
"369 537 OFFCURVE",
"430 505 OFFCURVE",
"470 456 CURVE SMOOTH",
"509 407 OFFCURVE",
"526 340 OFFCURVE",
"526 269 CURVE SMOOTH",
"526 225 LINE",
"189 225 LINE",
"189 217 LINE SMOOTH",
"189 148 OFFCURVE",
"225 104 OFFCURVE",
"305 104 CURVE SMOOTH",
"366 104 OFFCURVE",
"401 132 OFFCURVE",
"434 167 CURVE",
"508 75 LINE",
"461 20 OFFCURVE",
"384 -12 OFFCURVE",
"288 -12 CURVE SMOOTH"
);
},
{
closed = 1;
nodes = (
"225 428 OFFCURVE",
"189 385 OFFCURVE",
"189 320 CURVE SMOOTH",
"189 312 LINE",
"373 312 LINE",
"373 321 LINE SMOOTH",
"373 385 OFFCURVE",
"345 428 OFFCURVE",
"285 428 CURVE SMOOTH"
);
},
{
closed = 1;
nodes = (
"350 795 LINE",
"482 636 LINE",
"409 578 LINE",
"288 693 LINE",
"167 578 LINE",
"94 636 LINE",
"226 795 LINE"
);
},
{
closed = 1;
nodes = (
"223 -204 OFFCURVE",
"202 -176 OFFCURVE",
"202 -141 CURVE SMOOTH",
"202 -115 LINE SMOOTH",
"202 -80 OFFCURVE",
"223 -52 OFFCURVE",
"283 -52 CURVE SMOOTH",
"343 -52 OFFCURVE",
"364 -80 OFFCURVE",
"364 -115 CURVE SMOOTH",
"364 -141 LINE SMOOTH",
"364 -176 OFFCURVE",
"343 -204 OFFCURVE",
"283 -204 CURVE SMOOTH"
);
}
);
width = 562;
}
);
leftKerningGroup = c;
rightKerningGroup = e;
unicode = 1EC7;
},
{
glyphname = uni1EC1;
layers = (
{
layerId = "78D56DC8-6A23-4C9F-B1C5-F953A445AE64";
name = Bold;
paths = (
{
closed = 1;
nodes = (
"208 -12 OFFCURVE",
"145 15 OFFCURVE",
"102 63 CURVE SMOOTH",
"58 110 OFFCURVE",
"36 179 OFFCURVE",
"36 263 CURVE SMOOTH",
"36 346 OFFCURVE",
"58 414 OFFCURVE",
"100 462 CURVE SMOOTH",
"142 510 OFFCURVE",
"203 537 OFFCURVE",
"282 537 CURVE SMOOTH",
"369 537 OFFCURVE",
"430 505 OFFCURVE",
"470 456 CURVE SMOOTH",
"509 407 OFFCURVE",
"526 340 OFFCURVE",
"526 269 CURVE SMOOTH",
"526 225 LINE",
"189 225 LINE",
"189 217 LINE SMOOTH",
"189 148 OFFCURVE",
"225 104 OFFCURVE",
"305 104 CURVE SMOOTH",
"366 104 OFFCURVE",
"401 132 OFFCURVE",
"434 167 CURVE",
"508 75 LINE",
"461 20 OFFCURVE",
"384 -12 OFFCURVE",
"288 -12 CURVE SMOOTH"
);
},
{
closed = 1;
nodes = (
"225 428 OFFCURVE",
"189 385 OFFCURVE",
"189 320 CURVE SMOOTH",
"189 312 LINE",
"373 312 LINE",
"373 321 LINE SMOOTH",
"373 385 OFFCURVE",
"345 428 OFFCURVE",
"285 428 CURVE SMOOTH"
);
},
{
closed = 1;
nodes = (
"-20 909 LINE",
"94 966 LINE",
"193 772 LINE",
"114 733 LINE"
);
},
{
closed = 1;
nodes = (
"334 781 LINE",
"479 634 LINE",
"411 570 LINE",
"287 674 LINE",
"163 570 LINE",
"95 634 LINE",
"240 781 LINE"
);
}
);
width = 562;
}
);
leftKerningGroup = c;
rightKerningGroup = e;
unicode = 1EC1;
},
